<svg xmlns="http://www.w3.org/2000/svg" viewBox="0 0 452 449" xmlns:xlink="http://www.w3.org/1999/xlink"><defs><path id="a" d="M.06 60.533V.19h451.895v60.343H.06z"/><path id="c" d="M.794 27.94h34.84V.27H.794z"/></defs><g fill="none" fill-rule="evenodd"><path fill="#000105" d="M115.79 368.36h14.108v31.482h-7.137v-6.432c-1.31 4.428-4.1 7.123-9.5 7.123-8.53 0-12.44-6.775-12.44-15.904V356.1c0-9.21 4.44-15.913 14.89-15.913 10.97 0 14.19 6.09 14.19 14.79v5.212h-9.05v-6.01c0-3.65-1.4-5.73-4.97-5.73-3.56 0-5.11 2.52-5.11 6.09v31.64c0 3.56 1.47 6.08 4.87 6.08 3.22 0 4.87-1.82 4.87-5.65v-10.43h-4.71v-7.84m18.9-27.47h9.93v50.86h11.84v8.08H134.7v-58.95m45.11 45.29v-31.64c0-3.57-1.57-6.09-5.15-6.09-3.48 0-5.05 2.52-5.05 6.09v31.64c0 3.56 1.57 6.09 5.05 6.09 3.58 0 5.15-2.53 5.15-6.1m-20.13-1.56v-28.5c0-9.21 4.536-15.9 14.98-15.9 10.535 0 15.064 6.68 15.064 15.9v28.53c0 9.13-4.53 15.91-15.065 15.91-10.45 0-14.98-6.77-14.98-15.9m44.75-11.31v18.44h4.35c3.31 0 4.87-1.66 4.87-4.79v-8.86c0-3.12-1.48-4.78-4.96-4.78h-4.27zm0-7.56h3.48c3.23 0 4.71-1.65 4.71-4.78v-7.22c0-3.22-1.48-4.77-4.79-4.77h-3.41v16.78zm-9.92-24.87h14.36c9.93 0 13.24 4.6 13.24 12.95v6c0 4.95-1.84 8.09-5.92 9.39 4.95 1.13 7.39 4.43 7.39 9.82v7.82c0 8.35-3.74 12.95-13.67 12.95H194.5V340.9zm43.61 40.25h7.92l-3.91-23.64h-.1l-3.92 23.64zm-12.45 18.7l11.15-58.95h11.33l11.23 58.94h-10.2l-1.84-10.78h-10.53l-1.74 10.78h-9.41zm36.93-58.94h9.93v50.86h11.84v8.08H262.6V340.9m48.666 27.46h14.1v31.482h-7.135v-6.43c-1.31 4.43-4.09 7.123-9.49 7.123-8.53 0-12.45-6.776-12.45-15.905V356.1c0-9.21 4.44-15.913 14.89-15.913 10.97 0 14.2 6.09 14.2 14.79v5.212h-9.05v-6.01c0-3.65-1.4-5.73-4.97-5.73-3.56 0-5.13 2.52-5.13 6.09v31.64c0 3.56 1.48 6.08 4.89 6.08 3.22 0 4.87-1.82 4.87-5.65v-10.43h-4.69v-7.84m39.01 17.82v-31.64c0-3.57-1.58-6.09-5.14-6.09-3.49 0-5.06 2.52-5.06 6.09v31.64c0 3.56 1.58 6.09 5.07 6.09 3.56 0 5.14-2.53 5.14-6.1m-20.11-1.56v-28.5c0-9.21 4.52-15.9 14.98-15.9 10.53 0 15.05 6.68 15.05 15.89v28.53c0 9.13-4.52 15.91-15.05 15.91-10.46 0-14.98-6.77-14.98-15.9m44.41-3.48h7.92l-3.92-23.64h-.08l-3.91 23.64zm-12.46 18.7l11.15-58.95h11.31l11.23 58.94h-10.2l-1.82-10.78H373.3l-1.75 10.78h-9.4zm36.92-58.95H409v50.86h11.85v8.08h-21.78V340.9"/><g transform="translate(0 340)"><mask id="b" fill="#fff"><use xlink:href="#a"/></mask><path fill="#000105" d="M423.484 47.15v-7.92h9.225v8.092c0 3.307 1.49 5.215 4.88 5.215 3.13 0 4.52-2.088 4.52-5.215V45.06c0-3.398-1.39-5.478-4.44-8.347l-5.84-5.824c-5.66-5.57-8.26-8.96-8.26-15.74v-2.01c0-7.31 4.27-12.96 13.93-12.96 9.92 0 13.84 4.88 13.84 13.39v4.79h-9.06v-5.13c0-3.39-1.57-5.05-4.7-5.05-2.8 0-4.71 1.57-4.71 4.87v1.21c0 3.31 1.83 5.22 4.71 8l6.35 6.26c5.39 5.48 8.01 8.79 8.01 15.31v2.87c0 8.08-4.35 13.82-14.46 13.82-10.11 0-14.02-5.65-14.02-13.39M0 .89h26.377v8.09h-8.19v50.862H8.182V8.98H0V.896" mask="url(#b)"/></g><path fill="#000105" d="M49.616 373.85h-9.572v25.992h-9.92v-58.946h9.92v24.95h9.572v-24.95H59.63v58.946H49.617V373.85m14.803-32.954h23.69v8.084H74.355v16.867h9.833v8.002h-9.833v17.9h13.753v8.08H64.42v-58.94"/><path fill="#5BB249" d="M149.968 107.955c3.75-6.37 8.298-12.21 13.51-17.38l-44.303-48.582c-11.147 10.652-20.652 23-28.128 36.612l58.92 29.35"/><path fill="#D8AE48" d="M258.577 73.635c6.708 3.074 12.947 6.996 18.578 11.64l44.43-48.507c-11.702-10.09-24.97-18.417-39.375-24.566l-23.633 61.433"/><path fill="#B42839" d="M360.325 88.242l-58.886 29.354c2.81 6.564 4.81 13.535 5.89 20.806l65.5-6.183c-1.94-15.51-6.23-30.3-12.52-43.98"/><path fill="#4A9C47" d="M297.214 109.086l58.88-29.35c-7.295-13.552-16.597-25.864-27.515-36.53L284.15 91.7c5.06 5.2 9.46 11.038 13.064 17.386"/><path fill="#3F794A" d="M138.267 150.93c0-1.323.044-2.647.1-3.963L72.85 141.1c-.206 3.25-.332 6.527-.332 9.83 0 12.568 1.56 24.777 4.462 36.445l63.28-18.153c-1.298-5.896-1.993-12.01-1.993-18.29"/><path fill="#F4BC38" d="M288.968 204.783c-4.657 5.668-10.032 10.72-15.98 15.03l34.595 56.01c12.84-8.698 24.27-19.323 33.877-31.458l-52.492-39.582"/><path fill="#DE4A3B" d="M308.25 150.93c0 6.205-.667 12.253-1.947 18.08l63.27 18.18c2.886-11.618 4.424-23.764 4.424-36.26 0-3.102-.103-6.182-.293-9.25l-65.513 6.187c.04 1.025.06 2.04.06 3.064"/><path fill="#ED9643" d="M158.61 206.035l-52.368 39.8c9.74 11.993 21.275 22.446 34.2 30.98l34.586-55.948c-6.093-4.213-11.614-9.207-16.418-14.832"/><path fill="#228CC1" d="M139.328 137.514c1.172-7.4 3.317-14.48 6.275-21.108L86.74 87.08c-6.503 13.842-10.962 28.824-12.99 44.553l65.578 5.88"/><path fill="#8B2142" d="M299.536 280.89l-34.543-55.935c-6.276 3.543-13.036 6.324-20.16 8.19l12.19 64.706c15.168-3.48 29.47-9.26 42.513-16.96"/><path fill="#2BB8CF" d="M303.782 178.172c-2.29 6.728-5.39 13.078-9.196 18.937l52.534 39.62c8.533-12.27 15.277-25.85 19.883-40.4l-63.22-18.17"/><path fill="#E46A3E" d="M235.517 235.035c-4 .578-8.092.893-12.26.893-3.345 0-6.65-.21-9.892-.586L201.18 300.05c7.212 1.057 14.58 1.618 22.078 1.618 8.32 0 16.484-.684 24.437-1.985l-12.178-64.648"/><path fill="#DB3244" d="M228.692 66.107c7.3.47 14.352 1.858 21.033 4.06l23.63-61.414C259.295 3.788 244.298.85 228.692.3v65.807"/><path fill="#CF2765" d="M203.998 233.724c-7.367-1.718-14.368-4.394-20.863-7.89l-34.61 55.976c13.315 7.62 27.872 13.264 43.3 16.55L204 233.725"/><path fill="#1E435B" d="M197.716 69.865c6.824-2.158 14.023-3.472 21.47-3.82V.247C203.37.67 188.174 3.55 173.924 8.493l23.793 61.372"/><path fill="#B88F3F" d="M152.847 198.474c-4.174-6.166-7.58-12.918-10.027-20.097l-63.234 18.146c4.79 15.082 11.886 29.135 20.886 41.752l52.375-39.8"/><path fill="#1D648D" d="M170.6 84.266c5.555-4.4 11.67-8.11 18.225-11.03l-23.78-61.34c-14.16 5.945-27.21 13.997-38.78 23.75l44.334 48.62"/><path fill="#161616" d="M20.733 426.78H8.983v13.1H6.5v-27.365h15.51v2.3H8.982v9.67h11.75v2.296m12.074-3.24c-4.82 0-5.11 3.1-5.11 7.22 0 4.13.29 7.23 5.11 7.23 4.743 0 5.107-3.1 5.107-7.22 0-4.12-.364-7.22-5.107-7.22zm0 16.71c-6.24 0-7.663-3.9-7.663-9.49 0-5.58 1.422-9.48 7.663-9.48 6.276 0 7.662 3.91 7.662 9.49 0 5.59-1.386 9.49-7.662 9.49zm22.07-16.41c-.547-.18-1.28-.29-2.19-.29-2.48 0-3.94.4-5.29 1.17v15.18h-2.554v-18.25h1.423l.546 1.53c1.72-1.27 3.84-1.89 5.88-1.89.84 0 1.5.08 2.19.19v2.38m11.53-4.02c0 3.91 2.26 4.28 6.57 4.82 5.37.7 8.69 2.01 8.69 7.37 0 3.73-1.97 8.25-10.11 8.25-2.52 0-5.94-.69-7.66-1.46v-2.37c1.75.59 3.9 1.53 7.7 1.53 5.69 0 7.4-2.66 7.4-5.95 0-3.9-1.6-4.67-6.17-5.25-6.46-.8-8.93-2.3-8.93-6.97 0-3.17 1.54-7.62 9.2-7.62 3.36 0 5.61.59 7.11 1.28v2.45c-2.48-1.05-4.45-1.42-7.15-1.42-5.4 0-6.64 2.49-6.64 5.37m21.96 15.07c0 2.38 1.39 3.1 3.66 3.1 2.37 0 3.57-.4 4.92-1.17v-15.18h2.55v18.24h-1.42l-.54-1.53c-1.72 1.28-3.58 1.9-5.51 1.9-4.34 0-6.2-1.97-6.2-5.47v-13.14h2.55v13.24m21.96-5.47c5.18.47 6.43 2.23 6.43 5.22 0 2.81-1.79 5.62-7.34 5.62-1.75 0-4.27-.43-5.43-.91v-2.19c1.13.41 2.88.84 5.47.84 3.8 0 4.82-1.6 4.82-3.32 0-1.68-.51-2.84-4.12-3.13-5.29-.48-6.38-2.34-6.38-4.86 0-2.59 1.68-5.4 6.83-5.4 1.71 0 3.65.22 5.25.91v2.19c-1.42-.48-2.84-.84-5.29-.84-3.61 0-4.38 1.34-4.38 3.13 0 1.61.66 2.45 4.16 2.74m20.18 10.69c-.44.11-1.17.15-1.64.15-3.02 0-5.84-1.39-5.84-4.96v-11.65h-3.65v-1.13l3.64-1.05v-4.93l2.55-.73v5.84h5.66v2.01h-5.66V435c0 2.23 1.21 3.14 3.51 3.14.47 0 .95-.035 1.42-.074v2.045m9.96-9.45c-2.59.25-3.72 1.6-3.72 3.72 0 1.65.41 3.62 3.87 3.62 1.98 0 3.29-.54 4.85-1.46v-6.35l-4.99.48zm.66-7.11c-2.44 0-4.05.44-5.47.91v-2.19c1.6-.69 3.72-.98 5.47-.98 5.48 0 6.9 2.48 6.9 6.14v12.47h-1.43l-.55-1.45c-1.64 1.21-3.68 1.82-5.51 1.82-4.78 0-6.38-2.81-6.38-5.87 0-3.1 1.71-5.4 6.49-5.69l4.81-.29v-1.02c0-2.66-.94-3.82-4.34-3.82zm12.22 12.7v-14.6h2.48v14.89c0 1.28.4 1.65 1.54 1.65v2.08c-2.63 0-4.01-1.09-4.01-4.01zm1.24-21.89c1.02 0 1.82.8 1.82 1.82s-.8 1.83-1.82 1.83-1.82-.8-1.82-1.82.81-1.82 1.83-1.82zm18.06 12.29c0-2.37-1.39-3.09-3.65-3.09-2.37 0-3.58.4-4.93 1.17v15.18h-2.55v-18.24h1.42l.55 1.53c1.72-1.27 3.58-1.9 5.51-1.9 4.34 0 6.21 1.97 6.21 5.48v13.13h-2.55v-13.24m12.876 4.02c-2.59.26-3.72 1.6-3.72 3.72 0 1.65.4 3.62 3.87 3.62 1.963 0 3.28-.54 4.85-1.46v-6.35l-5 .48zm.66-7.11c-2.45 0-4.05.43-5.476.9v-2.19c1.61-.69 3.724-.99 5.473-.99 5.476 0 6.9 2.48 6.9 6.14v12.47h-1.42l-.54-1.45c-1.64 1.2-3.687 1.82-5.51 1.82-4.787 0-6.38-2.81-6.38-5.87 0-3.1 1.71-5.4 6.49-5.69l4.812-.29v-1.03c0-2.66-.947-3.82-4.34-3.82zm14.19 1.16v12.11c1.42.77 2.74 1.17 5.11 1.17 4.38 0 4.92-3.62 4.92-7.23 0-3.61-.55-7.22-4.925-7.22-2.37 0-3.69.4-5.11 1.17zM213 430.8c0 5.25-1.61 9.48-7.48 9.48-1.97 0-3.8-.66-5.698-1.86l-.54 1.5h-1.42v-27.36h2.55v10.25c1.58-1.02 3.437-1.5 5.117-1.5 5.87 0 7.48 4.24 7.48 9.49zm4.96 5.47v-23.72h2.48v24.01c0 1.27.4 1.64 1.53 1.64v2.08c-2.63 0-4.017-1.1-4.017-4.02m10.36-6.38h9.485c0-3.25-.18-6.31-4.37-6.31-4.235 0-5 3.03-5.11 6.31zm5.11-8.58c6.2 0 6.93 4.24 6.93 9.49v1.17H228.3c.15 3.17.986 6.06 5.114 6.06 2.623 0 4.23-.26 6.014-1.02v2.18c-2.044.91-4.23 1.1-6.014 1.1-6.167 0-7.66-4.23-7.66-9.49 0-5.25 1.493-9.49 7.66-9.49zm20.35 16.31h5.11c6.566 0 8.76-4.81 8.76-11.38 0-6.57-2.194-11.38-8.76-11.38h-5.11v22.76zm-2.476 2.3v-27.37h7.437c8.946 0 11.53 5.92 11.53 13.69 0 7.78-2.584 13.68-11.53 13.68h-7.44zM277 429.88h9.49c0-3.25-.183-6.31-4.376-6.31-4.23 0-5 3.03-5.11 6.31zm5.11-8.58c6.206 0 6.936 4.24 6.936 9.49v1.17h-12.05c.146 3.18.99 6.06 5.11 6.06 2.625 0 4.23-.26 6.024-1.02v2.18c-2.05.92-4.24 1.1-6.03 1.1-6.17 0-7.66-4.23-7.66-9.49 0-5.25 1.49-9.49 7.66-9.49zm12.11.37l5.22 14.96 5.22-14.96h2.81l-7.117 18.61h-1.82l-7.12-18.61h2.81m17.8 8.22h9.486c0-3.25-.18-6.31-4.38-6.31-4.23 0-4.99 3.026-5.1 6.31zm5.11-8.58c6.21 0 6.94 4.24 6.94 9.49v1.17H312c.14 3.18.985 6.06 5.106 6.06 2.626 0 4.23-.25 6.023-1.02v2.19c-2.05.91-4.24 1.098-6.03 1.098-6.17 0-7.66-4.23-7.66-9.49 0-5.25 1.49-9.485 7.66-9.485zM329 436.25v-23.72h2.47v24.01c0 1.277.41 1.644 1.538 1.644v2.08c-2.63 0-4.014-1.096-4.014-4.014"/><g transform="translate(336 421)"><mask id="d" fill="#fff"><use xlink:href="#c"/></mask><path fill="#161616" d="M8.456 2.537c-4.817 0-5.107 3.098-5.107 7.22 0 4.126.29 7.227 5.1 7.227 4.74 0 5.1-3.1 5.1-7.226 0-4.123-.36-7.22-5.11-7.22zm0 16.71c-6.24 0-7.662-3.9-7.662-9.49C.794 4.177 2.217.27 8.456.27c6.276 0 7.662 3.907 7.662 9.49 0 5.587-1.386 9.487-7.662 9.487zm24.622-9.49c0-3.613-.546-7.22-4.924-7.22-2.372 0-3.684.398-5.107 1.164v12.12c1.423.77 2.735 1.17 5.107 1.17 4.378 0 4.924-3.61 4.924-7.22zm-10.03 7.993V28H20.49V.637h1.425l.547 1.496C24.36.93 26.185.27 28.154.27c5.874 0 7.48 4.236 7.48 9.488 0 5.257-1.606 9.488-7.48 9.488-1.678 0-3.542-.477-5.107-1.496z" mask="url(#d)"/></g><path fill="#161616" d="M397.535 426.635c0-2.373-1.386-3.098-3.465-3.098-2.26 0-3.505.435-4.964 1.2.148.59.22 1.204.22 1.898v13.246h-2.555v-13.24c0-2.37-1.38-3.09-3.46-3.09-2.12 0-3.32.36-4.74 1.09v15.25h-2.55v-18.24h1.43l.55 1.5c1.76-1.27 3.65-1.86 5.33-1.86 2.45 0 4.16.7 5.11 2.08 1.9-1.31 3.83-2.08 5.66-2.08 3.91 0 6.02 1.83 6.02 5.48v13.13h-2.55v-13.25m9.3 3.21h9.49c0-3.25-.18-6.31-4.37-6.31-4.23 0-5 3.03-5.11 6.31zm5.11-8.58c6.21 0 6.94 4.24 6.94 9.49v1.17h-12.05c.15 3.18.99 6.06 5.11 6.06 2.63 0 4.24-.25 6.03-1.02v2.19c-2.04.92-4.23 1.1-6.02 1.1-6.16 0-7.66-4.23-7.66-9.48s1.49-9.48 7.66-9.48zm22.44 5.37c0-2.37-1.38-3.1-3.65-3.1-2.37 0-3.58.4-4.92 1.16v15.18h-2.56v-18.24h1.43l.55 1.53c1.72-1.27 3.58-1.89 5.51-1.89 4.34 0 6.2 1.98 6.2 5.48v13.13h-2.56v-13.25M451 440.11c-.44.11-1.168.145-1.64.145-3.03 0-5.84-1.385-5.84-4.96V423.65h-3.65v-1.13l3.65-1.056v-4.93l2.554-.73v5.84h5.657v2h-5.65v11.35c0 2.224 1.21 3.14 3.51 3.14.47 0 .95-.04 1.42-.08v2.044"/></g></svg>