<svg xmlns="http://www.w3.org/2000/svg" viewBox="0 0 1000 206"><g fill-rule="evenodd"><path d="M298.13 32.2v51.36h-11.58V1.8h13.5l14.84 46.92V1.8h11.45v81.76H314.3L298.12 32.2M349.13 20.73c0-4.95 2.17-8.43 7-8.43 4.93 0 7.1 3.48 7.1 8.43v43.9c0 4.95-2.17 8.44-7.1 8.44-4.83 0-7-3.5-7-8.44v-43.9zm7 63.8c14.6 0 20.85-9.4 20.85-22.07V22.9c0-12.8-6.25-22.06-20.86-22.06-14.47 0-20.74 9.27-20.74 22.07v39.56c0 12.67 6.27 22.07 20.74 22.07zM300.3 133.83h5.06c4.7 0 6.75 2.18 6.75 6.63v18.8c0 4.48-2.03 6.77-6.74 6.77h-5.06v-32.2zm0 42.8h6.63c13.87 0 18.93-6.98 18.93-18.44v-17.25c0-11.46-5.06-18.34-18.93-18.34h-20.38v81.78h13.75v-27.74zM347.8 141.55c0-4.95 2.17-8.44 7-8.44 4.95 0 7.13 3.5 7.13 8.45v43.9c0 4.94-2.18 8.44-7.13 8.44-4.83 0-7-3.5-7-8.46v-43.9zm7 63.8c14.6 0 20.87-9.4 20.87-22.07V143.7c0-12.77-6.26-22.05-20.87-22.05-14.47 0-20.74 9.28-20.74 22.06v39.58c0 12.66 6.27 22.06 20.74 22.06zM410.75 204.38l15.56-81.77h-12.9l-9.65 57.05h-.13l-9.4-57.04h-14l15.57 81.78h14.95M465.98 193.17h-19.05V168.3h13.62v-11.08h-13.62v-23.4h19.05v-11.2h-32.8v81.76h32.8v-11.2M488.15 133.83h4.58c4.7 0 6.76 2.18 6.76 6.63v12.05c0 4.36-2.06 6.76-6.77 6.76h-4.58v-25.43zm0 33.04l12.9 37.5h14.5l-13.16-37.14c7.83-1.8 10.96-7 10.96-15.8v-10.48c0-11.46-5.07-18.34-18.94-18.34H474.4v81.78h13.76v-37.5zM530.48 204.38h13.87v-70.55h11.34V122.6h-36.56v11.23h11.34v70.55M576.3 204.38h13.74v-31.1l15.2-50.67h-13.15l-8.32 31h-.12l-8.33-31H561l15.3 50.67v31.1M138.62 50.52h.3v154.34h33.9V3.23h-27.08l-31.2 36.58v35.4h.28l23.8-24.68"/></g></svg>