<svg xmlns="http://www.w3.org/2000/svg" viewBox="0 0 1000 215"><g fill-rule="evenodd"><path d="M333.15 13.96h4.65c4.8 0 6.87 2.2 6.87 6.75v12.25c0 4.4-2.08 6.86-6.87 6.86h-4.65V13.97zm0 33.56l13.1 38.1h14.7L347.6 47.87c7.96-1.82 11.15-7.1 11.15-16.03V21.2c0-11.65-5.15-18.63-19.24-18.63H319.2V85.6h13.97V47.53zM400.9 74.22h-19.37V49h13.84V37.72h-13.84V13.96h19.36V2.56h-33.34v83.05h33.33V74.23M437.4 65.77c0 5.02-2.2 8.45-7.98 8.45h-5.87V13.96h5.87c5.77 0 7.96 3.42 7.96 8.32v43.5zm-6.27-63.2H409.6V85.6h21.53c14.94 0 20.2-9.54 20.2-22.28V24.87c0-12.87-5.25-22.3-20.2-22.3zM474.5 2.57h-13.97V65.4c0 12.86 6.12 21.18 20.82 21.18 14.2 0 19.72-8.32 19.72-21.18V2.57H488.2v64.18c0 4.9-1.95 8.2-6.85 8.2-4.92 0-6.85-3.3-6.85-8.2V2.57M510.26 24v40.17c0 12.86 6.13 22.4 20.8 22.4 14.84 0 19.72-8.8 19.72-20.68V51.55h-12.72v15.3c0 4.9-1.72 8.08-6.73 8.08-5.03 0-7.12-3.54-7.12-8.56V21.8c0-5.03 2.1-8.58 7.13-8.58 5 0 6.73 2.94 6.73 8.1v10.9h12.72v-9.8c0-12.26-4.27-20.82-19.7-20.82-14.7 0-20.82 9.43-20.82 22.4M559.62 85.6h33.3V74.22H573.6V49h13.82V37.7H573.6V13.96h19.33V2.56h-33.3V85.6M629.43 22.28v43.5c0 5-2.2 8.44-7.96 8.44h-5.88V13.96h5.87c5.75 0 7.96 3.43 7.96 8.32m-27.8-19.7V85.6h21.55c14.94 0 20.2-9.54 20.2-22.28V24.87c0-12.87-5.26-22.3-20.2-22.3h-21.56M319.2 204.4h13.95V121.4H319.2M382.65 121.37H371v47.65l-15.06-47.65h-13.7v83.04h11.74v-52.16l16.4 52.17h12.27v-83.03M423.8 132.77v-11.4h-33.3v83.04h33.3V193h-19.34v-25.2h13.83v-11.27h-13.84v-23.76h19.34M457.2 185.93c0 4.9-2.2 8.56-7.22 8.56-4.9 0-7.1-3.68-7.1-8.57V140.6c0-5.02 2.2-8.57 7.1-8.57 5.02 0 7.22 3.55 7.22 8.58v45.33zm-7.22-65.53c-14.7 0-21.07 9.42-21.07 22.4v40.18c0 11.27 4.78 19.46 15.94 21.44v5.63l26.34 4.9v-10.4l-10.3-1.97c7.1-3.43 10.3-10.53 10.3-19.6V142.8c0-12.98-6.38-22.4-21.2-22.4zM479 121.38v62.83c0 12.87 6.13 21.2 20.83 21.2 14.2 0 19.72-8.33 19.72-21.2V121.4H506.7v64.17c0 4.9-1.97 8.2-6.87 8.2s-6.86-3.3-6.86-8.2v-64.17H479M541.58 178.1l5.5-33.33h.13l5.52 33.32h-11.14zm-1.84-56.72l-15.67 83.04h13.23l2.44-15.2h14.83l2.57 15.2h14.32l-15.8-83.04h-15.92zM577.1 121.38v83.02h30.62v-11.38h-16.66v-71.64H577.1M613.97 204.4h13.95V121.4h-13.95M659.9 204.4v-71.63h11.5v-11.4h-37.1v11.4h11.52v71.64h14.1M677.78 204.42h13.96v-83.04h-13.96M733.02 193.02h-19.35V167.8h13.84v-11.27h-13.83v-23.76h19.35v-11.4H699.7v83.03h33.32v-11.38M738.5 175.4v11.13c0 10.9 5.52 18.86 19.73 18.86 14.2 0 20.33-8.1 20.33-19.5v-4.03c0-9.17-3.68-13.83-11.26-21.55l-8.95-8.82c-4.03-3.93-6.62-6.6-6.62-11.26v-1.72c0-4.66 2.7-6.85 6.62-6.85 4.42 0 6.62 2.3 6.62 7.1V146h12.74v-6.75c0-12-5.5-18.85-19.47-18.85-13.6 0-19.6 7.96-19.6 18.24v2.82c0 9.55 3.67 14.33 11.65 22.16l8.2 8.22c4.3 4.03 6.24 6.97 6.24 11.76v3.18c0 4.4-1.95 7.35-6.37 7.35-4.77 0-6.86-2.7-6.86-7.35v-11.4h-13M96.48 50.02v154.5h33.93V2.7h-27.08L72.07 39.3v35.44h.3l23.8-24.72h.3M187.86 157.8V49.42c0-12.2 4.46-20.84 16.08-20.84 11.9 0 16.37 8.62 16.37 20.83V157.8c0 12.2-4.45 20.82-16.36 20.82-11.62 0-16.08-8.62-16.08-20.83m66.4-5.37V54.78C254.25 23.23 238.47.3 203.93.3c-34.23 0-50.02 22.93-50.02 54.48v97.66c0 31.24 15.8 54.46 50.02 54.46 34.54 0 50.3-23.22 50.3-54.47"/></g></svg>