<svg xmlns="http://www.w3.org/2000/svg" viewBox="0 0 1000 207"><g fill-rule="evenodd"><path d="M126.22 2.88v201.54h-33.9V50.15h-.3L68.27 74.82h-.3V39.44l31.2-36.56h27.06M238 46.6V64.1c0 16.94-9.22 28.23-23.2 32.7 16.95 3.86 24.98 15.75 24.98 34.18v29.73c0 27.93-14.86 46.07-49.05 46.07-34.5 0-46.7-19.62-46.7-50.24V130.1h30.94v28.85c0 11.9 4.16 19.6 15.76 19.6 10.4 0 15.14-7.42 15.14-18.13v-33.28c0-10.7-4.75-16.35-16.63-16.35h-14.27V84.92h12.8c10.98 0 18.1-5.66 18.1-16.35v-21.7c0-11-3.85-18.13-14.55-18.13-10.7 0-14.56 7.13-14.56 19.62v20.5h-30.93V51.04C145.83 21.3 158.03.5 193.1.5 224.32.5 238 18.05 238 46.6M319.1 64.6V24.23c0-13.05 6.15-22.52 20.92-22.52 15.5 0 19.82 8.62 19.82 20.93v9.85h-12.8V21.53c0-5.18-1.72-8.13-6.77-8.13-5.04 0-7.14 3.57-7.14 8.62v44.8c0 5.04 2.1 8.6 7.14 8.6 5.05 0 6.77-3.2 6.77-8.1V51.9h12.8v14.4c0 11.94-4.92 20.8-19.8 20.8-14.8 0-20.94-9.6-20.94-22.52M368.7 2.7h14.02v72h16.74v11.44H368.7V2.7M407.07 86.14h14.03V2.7h-14.03M470.2 32h-.36l-9.47 54.14h-6.53L443.38 32h-.25v54.14h-11.56V2.7h16.36l9.1 47h.14l8.12-47H483v83.44h-12.8V32M507.6 59.68h11.22l-5.55-33.48h-.12l-5.54 33.48zM490 86.14L505.78 2.7h16l15.88 83.44h-14.4l-2.6-15.27h-14.88l-2.47 15.27H490zM535.77 2.7h37.3v11.44H561.5v72h-14.15v-72h-11.58V2.7M580.8 2.7h33.5v11.44h-19.46v23.88h13.9v11.32h-13.9V74.7h19.45v11.44h-33.5V2.7M334.25 177.96h11.2l-5.53-33.47h-.13l-5.55 33.46zm-17.6 26.46l15.76-83.44h16l15.9 83.44h-14.4l-2.6-15.26h-14.9l-2.45 15.26h-13.3zM368.32 182.9V142.5c0-13.05 6.16-22.53 20.93-22.53 15.5 0 19.8 8.6 19.8 20.92v9.84h-12.8V139.8c0-5.16-1.7-8.1-6.76-8.1-5.05 0-7.15 3.56-7.15 8.6v44.8c0 5.05 2.1 8.62 7.14 8.62 5.04 0 6.76-3.2 6.76-8.13v-15.4h12.8v14.4c0 11.95-4.92 20.8-19.8 20.8-14.78 0-20.94-9.6-20.94-22.5M413.96 120.98h37.3v11.45H439.7v72h-14.17v-72h-11.57v-11.45M459 204.42h14.03v-83.44H459M510.8 185.1v-44.8c0-5.04-2.2-8.6-7.26-8.6-4.92 0-7.14 3.56-7.14 8.6v44.8c0 5.05 2.22 8.62 7.14 8.62 5.05 0 7.27-3.57 7.27-8.62zm-28.43-2.2V142.5c0-13.05 6.4-22.53 21.17-22.53 14.9 0 21.3 9.47 21.3 22.52v40.37c0 12.9-6.4 22.5-21.3 22.5-14.76 0-21.17-9.6-21.17-22.5zM545.87 152v52.42h-11.82v-83.44h13.8l15.12 47.87v-47.87h11.7v83.44h-12.3L545.86 152"/></g></svg>