<svg xmlns="http://www.w3.org/2000/svg" viewBox="0 0 1000 204"><g fill-rule="evenodd"><path d="M130.3 2.14v201.53H96.4V49.4h-.3L72.33 74.08h-.3V38.7l31.2-36.56h27.06M355.6 83.48h13.74V1.7H355.6M377.4 83.48h13.73V47.4h13.74V36.33h-13.74v-23.4h18.44V1.72H377.4v81.76M448.48 12.92V1.72H415.7v81.76h32.78v-11.2h-19.04V47.4h13.62V36.33h-13.62v-23.4h19.04M500.66 65.63c0 4.34-2.18 6.63-6.75 6.63h-6.02V46.7h5.9c4.83 0 6.88 2.3 6.88 6.63v12.3zm-12.78-52.7h4.7c4.6 0 6.64 2.18 6.64 6.63v10c0 4.36-2.05 6.65-6.52 6.65h-4.82V12.93zm26.5 41.72c0-7.47-3.35-12.05-10.22-13.63 5.65-1.8 8.2-6.14 8.2-13v-8.34c0-11.56-4.6-17.97-18.32-17.97h-19.9V83.5h21.33c13.75 0 18.92-6.4 18.92-17.98V54.65zM520.26 83.48h32.8v-11.2h-19.07V47.4h13.6V36.33H534v-23.4h19.05V1.72h-32.8v81.76M561.5 1.7V83.5h30.13v-11.2h-16.4V1.7H561.5M624.7 20.64v43.9c0 4.95-2.16 8.45-7.1 8.45-4.82 0-7-3.5-7-8.45v-43.9c0-4.95 2.18-8.44 7-8.44 4.94 0 7.12 3.5 7.12 8.44m-27.86 2.18v39.55c0 12.68 6.27 22.07 20.73 22.07 14.58 0 20.85-9.4 20.85-22.07V22.82c0-12.78-6.27-22.07-20.86-22.07-14.47 0-20.74 9.3-20.74 22.07M663.1 53.57h-.1L656.6 1.7h-13.25l10.97 81.78h12.9l7.7-50.54h.12l8.08 50.54h13.02l10.6-81.77h-11.56l-6.28 51.87h-.1L681.2 1.7H670l-6.9 51.87M328.14 203.37h12.9l7.7-50.53h.13l8.08 50.53h13.02l10.6-81.76H369l-6.26 51.87h-.13l-7.57-51.86H343.8l-6.86 51.87h-.12l-6.4-51.86h-13.25l10.97 81.77M401.37 144.64h.13l5.43 32.8h-10.98l5.42-32.8zm-22.65 58.73h13.02l2.4-14.94h14.6l2.5 14.94h14.1L409.8 121.6h-15.66l-15.42 81.77zM447.93 203.37v-70.55h11.33v-11.2h-36.52v11.2h11.32v70.55h13.87M498.4 132.82v-11.2h-32.78v81.75h32.78v-11.2h-19.04V167.3h13.62v-11.1h-13.62v-23.38h19.04M530.8 151.52c0 4.34-2.04 6.75-6.73 6.75h-4.6v-25.45h4.6c4.7 0 6.74 2.17 6.74 6.63v12.07zm13.87-1.1v-10.48c0-11.46-5.06-18.32-18.92-18.32h-20v81.75h13.73v-37.5l12.9 37.5h14.46l-13.13-37.15c7.84-1.8 10.97-7 10.97-15.8zM171.33 144.54l30.33-82.97h.3v82.97h-30.63zm62.16 59.18v-32.7h13.67v-26.48H233.5V2.1h-33.32l-58.6 148.1V171h59.8v32.72h32.1zM319.1 1.7V83.5h30.15v-11.2h-16.4V1.7H319.1"/></g></svg>