<svg xmlns="http://www.w3.org/2000/svg" viewBox="0 0 1000 205"><g fill-rule="evenodd"><path d="M302.56.7v81.78h30.15v-11.2h-16.4V.7h-13.74M340.2 82.47h13.73V.7H340.2M362.97 82.48h13.74V46.4h13.76V35.33H376.7v-23.4h18.44V.7h-32.17v81.78M402.4 82.48h32.77v-11.2h-19.04V46.4h13.63V35.33h-13.63v-23.4h19.04V.7H402.4v81.78M56.22 37.3v35.37h.3L80.3 48h.3v154.33h33.9V.7H87.45L56.22 37.3M195.1 64.65c-13.38 0-23.2 4.75-28.55 13.97h-.3V28.36h58.3V.72h-89.22v113.6h30.92v-4.48c0-11.88 5.35-18.43 14.86-18.43 10.43 0 14.6 7.15 14.6 18.16v48.77c0 10.7-3.87 18.13-14.28 18.13-11.6 0-15.74-7.73-15.74-19.63v-25.27h-30.95v22.9c0 30.63 12.2 50.25 46.7 50.25 34.2 0 48.16-18.13 48.16-46.08v-49.37c0-31.82-16.36-44.6-34.5-44.6M330.25 183.48v-43.72c0-4.93-2.16-8.4-7.08-8.4-4.8 0-6.97 3.47-6.97 8.4v43.72c0 4.93 2.16 8.42 6.97 8.42 4.92 0 7.08-3.5 7.08-8.42m-27.75-2.16v-39.4c0-12.73 6.25-21.98 20.67-21.98 14.54 0 20.77 9.25 20.77 22v39.38c0 12.62-6.23 22-20.77 22-14.42 0-20.67-9.38-20.67-22M363.24 151.18v51.16H351.7V120.9h13.47l14.77 46.72V120.9h11.4v81.44h-12l-16.1-51.16M421.04 120.9h13.7v70.27h16.34v11.17h-30.04V120.9M472.3 176.52h10.93l-5.4-32.68h-.13l-5.4 32.68zm-17.2 25.82l15.4-81.44h15.6l15.5 81.44h-14.05l-2.52-14.9H470.5l-2.4 14.9h-13zM518.74 151.18v51.16H507.2V120.9h13.46l14.77 46.72V120.9h11.4v81.44h-12l-16.1-51.16M575.2 191.17c5.63 0 7.8-3.36 7.8-8.28v-42.66c0-4.8-2.17-8.17-7.8-8.17h-5.78v59.1h5.77zm21.5-48.4v37.72c0 12.47-5.17 21.84-19.83 21.84h-21.14V120.9h21.14c14.66 0 19.82 9.25 19.82 21.86z"/></g></svg>