<svg xmlns="http://www.w3.org/2000/svg" viewBox="0 0 1000 470"><g fill-rule="evenodd"><path d="M835.9 248.96c0-28.14-18.07-50.95-45.4-50.95-13.7 0-30.18 15-39.14 24.2C742.4 213 727 198 713.32 198c-27.35 0-46.5 22.8-46.5 50.96 0 14.07 5.53 26.8 14.5 36.03l70.1 70.2 70-70.17-.05-.05c8.97-9.2 14.52-21.96 14.52-36.04"/><path d="M537.43 469.86c-.23 0-.47 0-.7-.02-5.34-.32-9.74-4.28-10.65-9.54l-35.6-207.4-53.94 100.02c-2.36 4.38-7.3 6.74-12.15 5.87-4.9-.9-8.7-4.8-9.4-9.7L392.1 189l-41.9 94.1c-1.85 4.16-5.97 6.83-10.5 6.83H176.86c-6.36 0-11.52-5.15-11.52-11.5 0-6.37 5.16-11.52 11.52-11.52H332.2l55.1-123.73c2.1-4.7 7.03-7.42 12.1-6.72 5.1.7 9.1 4.7 9.83 9.77l23.6 165.04 53.2-98.63c2.33-4.3 7.14-6.7 12-5.9 4.84.8 8.64 4.6 9.48 9.44l33 192.07L660.7 9c1.37-4.54 5.4-7.78 10.12-8.15 4.74-.35 9.2 2.2 11.27 6.47l63.22 131.1c2.8 5.72.4 12.6-5.32 15.36-5.7 2.77-12.6.36-15.36-5.36L674.2 43.98l-125.75 417.7c-1.47 4.88-5.97 8.18-11.02 8.18"/></g></svg>