<svg xmlns="http://www.w3.org/2000/svg" viewBox="0 0 1000 533"><g fill-rule="evenodd"><path d="M498.25 347.64c-66.07 0-119.8-53.75-119.8-119.8 0-66.08 53.73-119.82 119.8-119.82s119.82 53.74 119.82 119.8c0 66.07-53.75 119.82-119.82 119.82M728.35.38H604.07c-.85 0-1.58.7-1.58 1.6v41.28c0 .9.7 1.6 1.5 1.6h49.5L598.6 99.8c-27.67-21.73-62.5-34.74-100.35-34.74-89.75 0-162.78 73-162.78 162.77 0 82.64 61.92 151.03 141.77 161.37v47.6h-49.02c-.9 0-1.6.7-1.6 1.56v44.27c0 .88.7 1.58 1.6 1.58h49.02v46.9c0 .9.7 1.6 1.58 1.6h44.24c.88 0 1.6-.7 1.6-1.6v-46.9h49.02c.87 0 1.57-.7 1.57-1.52V438.4c0-.88-.7-1.58-1.57-1.58h-49.02v-48.4c77.23-12.7 136.36-79.87 136.36-160.6 0-34.87-11.03-67.15-29.73-93.65L685.4 80v46.23c0 .88.73 1.58 1.6 1.58h41.3c.88 0 1.6-.7 1.6-1.5V2c0-.9-.72-1.6-1.6-1.6"/><path d="M571.43 178.65H426.1c-.87 0-1.57.65-1.57 1.42v35.18c0 .82.7 1.44 1.58 1.44h145.4c.9 0 1.6-.7 1.6-1.5V180c0-.77-.7-1.42-1.6-1.42m0 62.84H426.1c-.87 0-1.57.66-1.57 1.47v35.2c0 .8.7 1.4 1.58 1.4h145.4c.9 0 1.6-.66 1.6-1.4v-35.2c0-.8-.7-1.48-1.6-1.48"/></g></svg>