<svg xmlns="http://www.w3.org/2000/svg" viewBox="0 0 1000 214"><g fill-rule="evenodd"><path d="M300.77 84.4c7.5 0 11.35-3.73 13.15-9.87v8.9h9.88V39.8h-19.52v10.84h6.5v14.48c0 5.3-2.3 7.83-6.75 7.83-4.7 0-6.75-3.5-6.75-8.44V20.6c0-4.92 2.17-8.43 7.12-8.43 4.94 0 6.87 2.9 6.87 7.97v8.32h12.53v-7.24c0-12.06-4.46-20.5-19.64-20.5-14.47 0-20.6 9.28-20.6 22.06v39.56c0 12.66 5.4 22.07 17.2 22.07M365.63 72.23H346.6V47.38h13.62v-11.1H346.6V12.9h19.03V1.67h-32.78v81.78h32.78V72.23M385.78 32.07l16.14 51.38h12.06V1.67h-11.44V48.6L387.7 1.66h-13.5v81.78h11.58V32.07M436.78 72.23V12.9h5.8c5.65 0 7.8 3.37 7.8 8.2v42.8c0 4.95-2.15 8.33-7.8 8.33h-5.8zm27.35-10.74V23.62c0-12.66-5.18-21.96-19.9-21.96h-21.2v81.78h21.2c14.72 0 19.9-9.4 19.9-21.96zM505.97 72.23h-19.03V47.38h13.62v-11.1h-13.62V12.9h19.03V1.67H473.2v81.78h32.77V72.23M528.16 12.9h4.57c4.7 0 6.75 2.16 6.75 6.62v12.05c0 4.36-2.04 6.77-6.75 6.77h-4.57V12.9zm0 33.03l12.88 37.52h14.47L542.4 46.3c7.83-1.8 10.97-7 10.97-15.8V20c0-11.45-5.06-18.33-18.92-18.33H514.4v81.78h13.76V45.93zM316.33 192.1H297.3v-24.83h13.6v-11.1h-13.6v-23.4h19.03v-11.2h-32.78v81.76h32.78V192.1M338.52 140.5c0-4.94 2.17-8.44 7-8.44 4.94 0 7.1 3.5 7.1 8.44v44.63c0 4.82-2.16 8.43-7.1 8.43-4.83 0-7-3.6-7-8.43V140.5zm1.94 62.82v5.56l25.9 4.82v-10.25l-10.12-1.94c7-3.36 10.12-10.35 10.12-19.28v-39.56c0-12.78-6.26-22.07-20.85-22.07-14.45 0-20.7 9.28-20.7 22.06v39.56c0 11.1 4.7 19.18 15.66 21.1zM375.3 121.56v61.87c0 12.66 6.02 20.86 20.48 20.86 14 0 19.4-8.2 19.4-20.87v-61.87h-12.64v63.2c0 4.82-1.93 8.08-6.76 8.08-4.82 0-6.75-3.26-6.75-8.1v-63.18H375.3M444.6 144.6h.14l5.4 32.8H439.2l5.4-32.8zm-7.22 43.77h14.6l2.52 14.96h14.1l-15.55-81.77h-15.67l-15.42 81.77h13.02l2.4-14.96zM475.36 121.56v81.77h30.13v-11.2h-16.4v-70.57h-13.74M512.85 203.33h13.75v-81.77h-13.75M559.26 203.33v-70.55h11.32v-11.2h-36.5v11.2h11.32v70.55h13.86M591.08 203.33h13.75v-31.1L620 121.56h-13.12l-8.32 30.98h-.12l-8.3-30.98h-14.36l15.3 50.65v31.1M157.44 65.64c-13.38 0-23.2 4.75-28.55 13.97l-.3.02V29.35h58.28V1.7h-89.2v113.6h30.9v-4.47c0-11.9 5.37-18.44 14.88-18.44 10.4 0 14.6 7.14 14.6 18.15v48.77c0 10.7-3.9 18.13-14.3 18.13-11.6 0-15.75-7.73-15.75-19.6v-25.3H97.07v22.9c0 30.63 12.2 50.26 46.7 50.26 34.2 0 48.17-18.13 48.17-46.1v-49.35c0-31.83-16.35-44.6-34.5-44.6"/></g></svg>