<svg xmlns="http://www.w3.org/2000/svg" viewBox="0 0 1000 509"><g fill-rule="evenodd"><path d="M694.75 120.96l-101.65 96.7c-3.83 3.8-5.8 6.62-5.8 14.52v271c0 3.17 2.6 5.77 5.8 5.77h105c3.2 0 5.78-2.6 5.78-5.78V123.4c0-3.2-2.5-9.03-9.14-2.44m-292.8 125.97l-101.7 96.67c-3.8 3.83-5.8 6.64-5.8 14.52v145.05c0 3.16 2.6 5.77 5.8 5.77h105c3.2 0 5.8-2.6 5.8-5.77v-253.8c0-3.2-2.53-9.06-9.13-2.44"/><path d="M740.94 3.7c.04-.77-.23-1.6-.86-2.2-.53-.52-1.22-.76-1.88-.82l-.56.03-.83.1L659 18.3l-1.4.14c-.57.1-1.1.4-1.53.8-1.14 1.16-1.14 3.03 0 4.2l.88.87 17.75 17.8-176.34 176.37L416.9 137c-.93-.93-2.4-.93-3.32 0l-22.1 22.1c-.02 0-.02.03-.02.03L260.9 289.67c-.9.93-.9 2.42 0 3.32l22.1 22.1c.9.9 2.38.9 3.3 0l128.94-128.9 59.1 59.1c.07.1.1.2.2.3l22.1 22.03c.92.93 2.4.93 3.3 0L700.14 67.5l18.66 18.67c1.14 1.16 3 1.16 4.14 0 .55-.55.82-1.22.85-1.92V84l17.1-79.44V3.7"/><path d="M548.9 263.9l-49.17 49.6c-.93.76-2.3.73-3.17-.13L452 267.95c-8.15-8.13-9.9-1.54-9.9 1.66v233.6c0 3.2 2.55 5.8 5.75 5.8h105.02c3.18 0 5.78-2.6 5.78-5.8V265.75c0-3.2-2.52-9.05-9.74-1.83"/></g></svg>