<svg xmlns="http://www.w3.org/2000/svg" viewBox="0 0 656 174" xmlns:xlink="http://www.w3.org/1999/xlink"><defs><path id="a" d="M.06 84.035V.828h163.607v83.207H.06z"/><path id="c" d="M95.963 71.94H.258V.722h95.705V71.94z"/></defs><g fill="none" fill-rule="evenodd"><path fill="#FFF" d="M44.7 62.197c2.164-3.678 4.79-7.047 7.8-10.03l-25.573-28.04c-6.434 6.146-11.92 13.273-16.234 21.13L44.7 62.197m62.684-19.808c3.873 1.77 7.472 4.03 10.723 6.71l25.643-27.99c-6.754-5.83-14.412-10.63-22.725-14.18l-13.64 35.45m58.723 8.43l-33.986 16.94c1.623 3.79 2.777 7.81 3.404 12.01l37.806-3.57c-1.116-8.95-3.594-17.49-7.224-25.38"/><g transform="translate(0 24)"><mask id="b" fill="#fff"><use xlink:href="#a"/></mask><path fill="#FFF" d="M129.685 38.85l33.982-16.938c-4.21-7.824-9.578-14.928-15.88-21.084l-25.644 27.99c2.92 2.998 5.46 6.367 7.542 10.03m-91.74 24.154c0-.764.028-1.53.06-2.29L.19 57.33C.072 59.203 0 61.094 0 63.002c0 7.252.9 14.3 2.574 21.033l36.523-10.477c-.748-3.402-1.15-6.93-1.15-10.556" mask="url(#b)"/></g><path fill="#FFF" d="M124.925 118.082c-2.688 3.27-5.79 6.187-9.222 8.676l19.966 32.326c7.41-5.02 14-11.153 19.55-18.158l-30.3-22.844m11.13-31.08c0 3.58-.39 7.07-1.13 10.433l36.51 10.493c1.67-6.706 2.56-13.718 2.56-20.926 0-1.79-.06-3.57-.17-5.34L136 85.232c.023.592.036 1.178.036 1.77m-86.36 31.802l-30.227 22.97c5.62 6.923 12.28 12.956 19.74 17.884l19.96-32.293c-3.52-2.432-6.7-5.314-9.48-8.56M38.56 79.258c.676-4.272 1.914-8.358 3.622-12.184L8.21 50.15C4.455 58.137 1.88 66.785.71 75.863l37.85 3.395m92.464 82.752l-19.936-32.286c-3.622 2.045-7.525 3.65-11.636 4.73l7.036 37.343c8.755-2.012 17.007-5.35 24.536-9.787"/><g transform="translate(74 102)"><mask id="d" fill="#fff"><use xlink:href="#c"/></mask><path fill="#FFF" d="M59.476.722c-1.323 3.885-3.112 7.55-5.31 10.93l30.32 22.87c4.926-7.08 8.82-14.92 11.477-23.313L59.476.72m-39.4 32.823c-2.307.334-4.67.513-7.076.513-1.93 0-3.84-.12-5.71-.337L.258 71.06c4.16.612 8.414.94 12.742.94 4.802 0 9.514-.395 14.104-1.145l-7.03-37.312" mask="url(#d)"/></g><path fill="#FFF" d="M90.137 38.045c4.214.27 8.282 1.07 12.14 2.344l13.637-35.45C107.8 2.07 99.144.38 90.137.06v37.98m-14.253 96.74c-4.252-.992-8.293-2.535-12.04-4.553l-19.977 32.31c7.685 4.396 16.086 7.652 24.99 9.55l7.026-37.306m-3.625-94.57c3.938-1.24 8.094-2 12.39-2.2V.04c-9.125.24-17.896 1.902-26.12 4.752l13.73 35.424M46.36 114.44c-2.407-3.557-4.374-7.456-5.785-11.598L4.08 113.314c2.763 8.705 6.86 16.815 12.054 24.098l30.227-22.97m10.25-65.917c3.21-2.54 6.74-4.68 10.52-6.365L53.41 6.756c-8.175 3.43-15.706 8.078-22.384 13.71l25.586 28.06m262.73 16.96h14.106V96.97h-7.137v-6.433c-1.32 4.428-4.1 7.123-9.5 7.123-8.53 0-12.44-6.775-12.44-15.904V53.228c0-9.21 4.44-15.914 14.89-15.914 10.97 0 14.19 6.09 14.19 14.79v5.212h-9.05v-6.002c0-3.652-1.4-5.732-4.97-5.732-3.56 0-5.12 2.52-5.12 6.088v31.644c0 3.567 1.47 6.084 4.87 6.084 3.22 0 4.87-1.822 4.87-5.644V73.32h-4.7v-7.834m18.9-27.463h9.93v50.862H360v8.084h-21.763V38.02m45.108 45.292V51.67c0-3.567-1.57-6.092-5.15-6.092-3.48 0-5.05 2.525-5.05 6.092v31.644c0 3.567 1.57 6.092 5.05 6.092 3.58 0 5.15-2.525 5.15-6.092m-20.13-1.558V53.228c0-9.21 4.54-15.898 14.98-15.898 10.538 0 15.067 6.687 15.067 15.898v28.528c0 9.13-4.53 15.904-15.067 15.904-10.442 0-14.977-6.775-14.977-15.904m44.753-11.31v18.44h4.36c3.32 0 4.88-1.658 4.88-4.788v-8.864c0-3.127-1.48-4.787-4.96-4.787h-4.26zm0-7.565h3.49c3.24 0 4.71-1.65 4.71-4.78v-7.21c0-3.22-1.47-4.77-4.79-4.77h-3.4v16.77zm-9.92-24.85h14.36c9.94 0 13.24 4.6 13.24 12.95v6.01c0 4.95-1.83 8.09-5.92 9.4 4.96 1.13 7.4 4.43 7.4 9.83v7.83c0 8.35-3.74 12.96-13.67 12.96h-15.41V38.03zm43.61 40.24h7.93l-3.9-23.64h-.09l-3.92 23.64zm-12.44 18.7l11.15-58.94h11.33l11.23 58.95h-10.2l-1.84-10.78h-10.53l-1.74 10.78h-9.4zm36.93-58.94h9.93v50.86h11.83v8.09h-21.76V38.02m48.67 27.464h14.1V96.97h-7.13v-6.433c-1.32 4.428-4.1 7.123-9.5 7.123-8.53 0-12.45-6.775-12.45-15.904V53.228c0-9.21 4.44-15.914 14.89-15.914 10.97 0 14.2 6.09 14.2 14.79v5.212h-9.05v-6.002c0-3.652-1.4-5.732-4.98-5.732-3.56 0-5.13 2.52-5.13 6.088v31.644c0 3.567 1.48 6.084 4.89 6.084 3.22 0 4.87-1.822 4.87-5.644V73.32h-4.7v-7.834m39.01 17.828V51.67c0-3.567-1.58-6.092-5.14-6.092-3.49 0-5.06 2.525-5.06 6.092v31.644c0 3.567 1.57 6.092 5.07 6.092 3.56 0 5.14-2.525 5.14-6.092m-20.12-1.558V53.228c0-9.21 4.52-15.898 14.98-15.898 10.53 0 15.05 6.687 15.05 15.898v28.528c0 9.13-4.52 15.904-15.05 15.904-10.45 0-14.98-6.775-14.98-15.904m44.4-3.486h7.92l-3.92-23.64h-.08l-3.92 23.64zm-12.45 18.7l11.14-58.947h11.33l11.23 58.947h-10.2l-1.82-10.78H576.8l-1.744 10.78h-9.4zm36.92-58.947h9.92v50.862h11.85v8.084H602.6V38.02m24.47 46.255v-7.92h9.22v8.092c0 3.305 1.49 5.213 4.88 5.213 3.124 0 4.52-2.088 4.52-5.215v-2.263c0-3.398-1.396-5.478-4.44-8.347l-5.84-5.825c-5.66-5.566-8.27-8.957-8.27-15.736V50.27c0-7.305 4.27-12.96 13.93-12.96 9.93 0 13.85 4.88 13.85 13.397v4.79h-9.06V50.36c0-3.39-1.565-5.048-4.694-5.048-2.8 0-4.71 1.57-4.71 4.873V51.4c0 3.31 1.83 5.217 4.71 8l6.35 6.258c5.39 5.482 8.01 8.79 8.01 15.31v2.87c0 8.088-4.35 13.82-14.46 13.82-10.1 0-14.016-5.645-14.016-13.383m-423.5-46.252h26.376v8.084h-8.19V96.97h-10.01V46.106h-8.18v-8.084m49.614 32.954h-9.57V96.97h-9.92V38.022h9.92v24.95h9.57v-24.95h10.02V96.97h-10.02V70.975m14.807-32.952h23.69v8.084H277.9v16.867h9.834v8.002H277.9v17.91h13.754v8.083h-23.687V38.02m-43.687 85.886h-11.752v13.1h-2.48V109.64h15.506v2.3h-13.026v9.67h11.75v2.296m12.074-3.244c-4.82 0-5.11 3.098-5.11 7.22 0 4.126.29 7.227 5.11 7.227 4.743 0 5.107-3.1 5.107-7.23 0-4.13-.37-7.22-5.11-7.22zm0 16.71c-6.24 0-7.664-3.902-7.664-9.49 0-5.58 1.423-9.486 7.664-9.486 6.276 0 7.662 3.905 7.662 9.487 0 5.587-1.386 9.488-7.662 9.488zm22.07-16.417c-.547-.188-1.28-.293-2.19-.293-2.48 0-3.94.398-5.29 1.164v15.18h-2.554V118.76h1.423l.55 1.53c1.72-1.27 3.84-1.894 5.88-1.894.84 0 1.5.076 2.19.186v2.373m11.53-4.02c0 3.907 2.26 4.272 6.57 4.82 5.37.696 8.69 2.005 8.69 7.368 0 3.724-1.97 8.248-10.1 8.248-2.52 0-5.94-.69-7.66-1.46v-2.37c1.75.59 3.9 1.53 7.71 1.53 5.69 0 7.41-2.66 7.41-5.94 0-3.9-1.6-4.67-6.16-5.25-6.46-.8-8.94-2.3-8.94-6.97 0-3.17 1.54-7.62 9.2-7.62 3.36 0 5.62.59 7.12 1.28V113c-2.47-1.057-4.45-1.424-7.15-1.424-5.4 0-6.64 2.482-6.64 5.363m21.96 15.07c0 2.37 1.38 3.1 3.65 3.1 2.37 0 3.58-.4 4.93-1.17v-15.18h2.56V137h-1.422l-.54-1.534c-1.72 1.28-3.58 1.9-5.51 1.9-4.35 0-6.21-1.974-6.21-5.474v-13.14h2.553V132m21.96-5.472c5.18.47 6.425 2.227 6.425 5.22 0 2.81-1.79 5.618-7.34 5.618-1.75 0-4.27-.433-5.435-.91v-2.19c1.13.408 2.88.84 5.47.84 3.794 0 4.82-1.602 4.82-3.32 0-1.68-.508-2.843-4.12-3.136-5.29-.475-6.39-2.335-6.39-4.852 0-2.59 1.68-5.4 6.83-5.4 1.71 0 3.646.22 5.25.91v2.19c-1.42-.477-2.843-.838-5.29-.838-3.61 0-4.38 1.344-4.38 3.135 0 1.605.657 2.445 4.16 2.736m20.17 10.69c-.43.11-1.17.15-1.64.15-3.02 0-5.84-1.38-5.84-4.96v-11.64h-3.65v-1.13l3.65-1.05v-4.93l2.56-.73v5.84h5.657v2.01h-5.66v11.35c0 2.23 1.2 3.14 3.5 3.14.47 0 .95-.03 1.42-.07v2.05m9.96-9.44c-2.594.25-3.724 1.6-3.724 3.72 0 1.65.407 3.62 3.87 3.62 1.97 0 3.286-.55 4.85-1.46v-6.35l-4.992.48zm.65-7.12c-2.44 0-4.05.44-5.47.91v-2.19c1.6-.69 3.72-.98 5.47-.98 5.47 0 6.896 2.48 6.896 6.13v12.48h-1.42l-.546-1.46c-1.64 1.21-3.69 1.82-5.51 1.82-4.79 0-6.38-2.81-6.38-5.88 0-3.09 1.71-5.4 6.49-5.69l4.81-.29v-1.03c0-2.66-.946-3.83-4.34-3.83zm12.22 12.7V118.8h2.48v14.89c0 1.275.4 1.642 1.53 1.642v2.08c-2.63 0-4.01-1.096-4.01-4.014zm1.24-21.89c1.026 0 1.83.8 1.83 1.82 0 1.03-.808 1.83-1.83 1.83-1.02 0-1.827-.8-1.827-1.82s.81-1.82 1.83-1.82zm18.06 12.29c0-2.37-1.384-3.09-3.65-3.09-2.37 0-3.574.4-4.93 1.17V137h-2.55v-18.244h1.43l.546 1.53c1.717-1.272 3.577-1.895 5.51-1.895 4.34 0 6.2 1.97 6.2 5.48V137h-2.56v-13.24m12.877 4.02c-2.59.252-3.72 1.6-3.72 3.715 0 1.646.4 3.615 3.87 3.615 1.97 0 3.29-.545 4.85-1.457V127.3l-4.99.48zm.66-7.117c-2.44 0-4.05.435-5.47.908v-2.19c1.608-.69 3.726-.98 5.47-.98 5.477 0 6.9 2.48 6.9 6.14v12.48h-1.43l-.543-1.45c-1.638 1.21-3.684 1.83-5.51 1.83-4.784 0-6.38-2.81-6.38-5.87 0-3.1 1.71-5.4 6.49-5.69l4.82-.29v-1.03c0-2.66-.95-3.82-4.34-3.82zm14.19 1.164v12.113c1.426.77 2.74 1.17 5.11 1.17 4.38 0 4.927-3.613 4.927-7.224 0-3.614-.546-7.22-4.924-7.22-2.37 0-3.69.397-5.11 1.163zm12.59 6.057c0 5.257-1.603 9.488-7.48 9.488-1.97 0-3.79-.656-5.69-1.86l-.55 1.495h-1.42V109.64h2.55v10.255c1.57-1.025 3.43-1.498 5.11-1.498 5.87 0 7.48 4.235 7.48 9.487zm4.96 5.475v-23.72h2.48v24.01c0 1.27.408 1.64 1.53 1.64v2.08c-2.62 0-4.01-1.1-4.01-4.02m10.36-6.38h9.49c0-3.26-.185-6.32-4.375-6.32-4.24 0-5.005 3.02-5.114 6.31zm5.116-8.58c6.2 0 6.93 4.23 6.93 9.49v1.17h-12.05c.15 3.17.985 6.05 5.11 6.05 2.63 0 4.23-.26 6.02-1.02v2.19c-2.05.91-4.23 1.09-6.02 1.09-6.162 0-7.66-4.23-7.66-9.49 0-5.25 1.496-9.49 7.66-9.49zm20.35 16.31h5.11c6.563 0 8.76-4.82 8.76-11.39s-2.197-11.39-8.76-11.39h-5.11v22.77zm-2.49 2.3v-27.36h7.44c8.94 0 11.53 5.91 11.53 13.68S471.18 137 462.24 137h-7.44zm25.714-10.03H490c0-3.25-.183-6.31-4.376-6.31-4.23 0-5 3.02-5.11 6.31zm5.11-8.58c6.2 0 6.93 4.23 6.93 9.48v1.17h-12.05c.14 3.17.99 6.05 5.11 6.05 2.62 0 4.23-.26 6.02-1.02v2.19c-2.05.91-4.24 1.09-6.026 1.09-6.17 0-7.66-4.23-7.66-9.49s1.49-9.49 7.66-9.49zm12.11.36l5.212 14.96 5.22-14.96H511l-7.117 18.61h-1.82l-7.117-18.61h2.81m17.805 8.21h9.49c0-3.26-.18-6.32-4.38-6.32-4.23 0-4.99 3.03-5.1 6.31zm5.11-8.58c6.21 0 6.94 4.23 6.94 9.48v1.17h-12.04c.15 3.17.99 6.05 5.11 6.05 2.63 0 4.23-.25 6.02-1.02v2.19c-2.05.91-4.23 1.09-6.02 1.09-6.16 0-7.66-4.23-7.66-9.49 0-5.25 1.5-9.49 7.66-9.49zm11.9 14.96v-23.72h2.48v24.01c0 1.27.4 1.64 1.53 1.64v2.07c-2.62 0-4.01-1.1-4.01-4.01m15.47-12.69c-4.82 0-5.11 3.09-5.11 7.22s.29 7.22 5.11 7.22c4.75 0 5.11-3.1 5.11-7.23 0-4.12-.36-7.22-5.1-7.22zm0 16.71c-6.24 0-7.66-3.91-7.66-9.49s1.43-9.49 7.66-9.49c6.28 0 7.66 3.9 7.66 9.48s-1.38 9.49-7.66 9.49zm24.62-9.49c0-3.62-.55-7.22-4.92-7.22-2.37 0-3.68.39-5.11 1.16v12.11c1.42.77 2.74 1.17 5.11 1.17 4.38 0 4.92-3.61 4.92-7.22zm-10.03 7.99v10.25h-2.56v-27.36h1.43l.55 1.5c1.9-1.2 3.73-1.86 5.69-1.86 5.88 0 7.48 4.23 7.48 9.48s-1.6 9.49-7.48 9.49c-1.68 0-3.54-.48-5.1-1.5zm38.48-12.12c0-2.38-1.39-3.1-3.46-3.1-2.26 0-3.5.43-4.96 1.2.15.59.22 1.2.22 1.89V137h-2.55v-13.24c0-2.374-1.38-3.098-3.46-3.098-2.12 0-3.32.36-4.74 1.092v15.252h-2.55V118.76h1.4l.55 1.497c1.75-1.276 3.65-1.86 5.326-1.86 2.448 0 4.164.69 5.11 2.076 1.9-1.312 3.83-2.078 5.657-2.078 3.9 0 6.01 1.825 6.01 5.476v13.14h-2.55v-13.25m9.3 3.22h9.49c0-3.25-.18-6.31-4.38-6.31-4.23 0-5 3.03-5.11 6.31zm5.11-8.58c6.2 0 6.93 4.24 6.93 9.49v1.17h-12.06c.15 3.18.99 6.06 5.11 6.06 2.63 0 4.23-.25 6.02-1.02v2.19c-2.05.91-4.24 1.1-6.03 1.1-6.166 0-7.662-4.23-7.662-9.49 0-5.25 1.497-9.48 7.664-9.48zm22.43 5.37c0-2.38-1.39-3.1-3.65-3.1-2.37 0-3.58.4-4.93 1.16V137h-2.56v-18.24h1.427l.54 1.53c1.71-1.273 3.57-1.896 5.51-1.896 4.34 0 6.2 1.97 6.2 5.476v13.133h-2.56v-13.247m16.6 13.464c-.44.11-1.17.147-1.64.147-3.03 0-5.84-1.385-5.84-4.96V120.77h-3.65v-1.13l3.65-1.056v-4.93l2.552-.73v5.84h5.65v2.005h-5.66v11.35c0 2.22 1.2 3.13 3.5 3.13.47 0 .944-.04 1.42-.08v2.04"/></g></svg>