<svg width="911" height="129" viewBox="0 0 911 129" xmlns="http://www.w3.org/2000/svg"><title>123</title><g fill-rule="nonzero" fill="#000"><path d="M36.8 87.3c-9.4 0-17.4-6.9-17.4-19.2 0-12.3 7.9-19 17.2-19 9.1 0 13.4 5.8 15 11.5L68 55.1c-2.9-11.5-13.4-22.9-31.9-22.9-19.7 0-35.2 15-35.2 36 0 20.8 15.7 36 35.7 36 18.1 0 28.7-11.6 31.7-22.9l-16.1-5.4c-1.3 5.2-6 11.4-15.4 11.4zM108.5 32.1c-20.3 0-35.6 15-35.6 36 0 20.8 15.3 36 35.6 36s35.6-15.2 35.6-36c0-21-15.4-36-35.6-36zm0 55.3c-9 0-17.2-6.6-17.2-19.3 0-12.8 8.3-19.3 17.2-19.3 9 0 17.3 6.5 17.3 19.3-.1 12.8-8.4 19.3-17.3 19.3zM219.8 2.1h-18.1v38.8c-1.9-3.6-7.5-8.4-19.2-8.4-19.2 0-32.6 15.6-32.6 35.5 0 20.6 13.8 35.7 33.1 35.7 9.1 0 16-4.1 19-9.5 0 3.2.4 6.5.7 7.9h17.5c-.3-2.8-.6-7.7-.6-12.3V2.1h.2zm-34.5 85.2c-9.7 0-16.8-7.2-16.8-19.3 0-12.1 7.5-19 16.8-19 9.4 0 16.7 6.8 16.7 18.9 0 12.2-7.3 19.4-16.7 19.4zM264.5 32.1c-17.4 0-33.4 14.1-33.4 35.7 0 22.9 16.4 36.3 35.1 36.3 16.7 0 27.5-9.8 30.9-21.5L281.8 78c-2.2 6.1-6.9 10.4-15.5 10.4-9.1 0-16.7-6.5-17.1-15.5h48.6c0-.3.3-3 .3-5.7 0-21.7-12.6-35.1-33.6-35.1zm-14.9 28.3c.4-6.2 5.7-13.4 15.2-13.4 10.5 0 14.9 6.6 15.2 13.4h-30.4zM430.1 87.3c-9.4 0-17.4-6.9-17.4-19.2 0-12.3 7.9-19 17.2-19 9.1 0 13.4 5.8 15 11.5l16.4-5.5c-2.9-11.5-13.4-22.9-31.9-22.9-19.7 0-35.2 15-35.2 36 0 20.8 15.7 36 35.7 36 18.1 0 28.7-11.6 31.7-22.9l-16.1-5.4c-1.3 5.2-6 11.4-15.4 11.4zM501.7 32.1c-20.3 0-35.6 15-35.6 36 0 20.8 15.3 36 35.6 36s35.6-15.2 35.6-36c0-21-15.3-36-35.6-36zm0 55.3c-9 0-17.2-6.6-17.2-19.3 0-12.8 8.3-19.3 17.2-19.3 9 0 17.3 6.5 17.3 19.3-.1 12.8-8.3 19.3-17.3 19.3zM584.7 32.4c-7.3 0-15.5 3.2-19.6 10.2v-8.4h-17.8v67.9h18.4V63c0-7.9 4.7-14.1 12.7-14.1 8.8 0 12.6 5.9 12.6 13.5V102h18.4V59.2c-.1-14.8-7.8-26.8-24.7-26.8zM653.2 60.9l-9.7-2.1c-3.7-.7-6.2-2.8-6.2-6.1 0-3.9 3.9-6.8 8.7-6.8 7.7 0 10.6 5.1 11.2 9.1l15.3-3.5c-.8-7.3-7.3-19.6-26.6-19.6-14.6 0-25.4 10.1-25.4 22.2 0 9.5 5.9 17.4 19 20.3l9 2.1c5.2 1.1 7.3 3.6 7.3 6.6 0 3.6-2.9 6.8-9 6.8-8 0-12-5-12.4-10.4L618.7 83c.8 7.7 7.9 21 28.3 21 17.8 0 26.4-11.3 26.4-22.4-.1-9.8-6.8-17.9-20.2-20.7zM722.3 32.6c-10.2 0-17.8 4.6-20.8 9.8v-8.3h-17.8v94.1H702V95.4c3.3 4.6 10.2 8.3 19.6 8.3 19.2 0 32-15.2 32-35.7 0-20.2-11.4-35.4-31.3-35.4zm-3.6 54.7c-9.4 0-17-7.2-17-19.2s7.6-19 17-19 16.8 7 16.8 19c0 12.1-7.4 19.2-16.8 19.2zM763.7 34.2h18.4v67.9h-18.4zM772.8.5c-6.2 0-11.3 5.1-11.3 11.5 0 6.1 5.1 11.2 11.3 11.2 6.3 0 11.3-5.1 11.3-11.2 0-6.4-5-11.5-11.3-11.5zM816 44.2V34.1h-17.8V102h18.4V71c0-14.6 8.1-19.2 17.5-19.2 1.7 0 3.4.1 5.5.6V33.9c-1.4-.1-2.8-.3-4.3-.3-5.8 0-15.2 1.7-19.3 10.6zM910.2 67.3c0-21.8-12.6-35.2-33.5-35.2-17.4 0-33.4 14.1-33.4 35.7 0 22.9 16.4 36.3 35.1 36.3 16.7 0 27.5-9.8 30.9-21.5L894 78c-2.2 6.1-6.9 10.4-15.5 10.4-9.1 0-16.7-6.5-17.1-15.5H910c-.1-.2.2-3 .2-5.6zm-48.4-6.9c.4-6.2 5.7-13.4 15.2-13.4 10.5 0 14.9 6.6 15.2 13.4h-30.4zM365.9 67l-15-15.9 3.8-2.8c7.2-5.3 14-12.6 14-22.8C368.7 10.6 356.9.4 341 .4c-13.5 0-27.5 9.3-27.5 26 0 9 6.2 16.6 11 21.6l1.5 1.7-.7.4c-10.4 7.7-17 14.9-17 27.3 0 13.3 10.7 26.7 30.2 26.7 10.7 0 19.2-5.1 26.7-12.6l10.3 10.8h24.2l-22.5-23.6L365.9 67zm-25-51.2c5.9 0 10.1 4.2 10.1 9.6 0 2.3-.7 4.6-2.4 6.9-1.8 2.1-4.5 3.4-7.5 3.4-3.3 0-6.2-1.6-8-4-1.1-1.8-1.9-3.8-1.9-5.8 0-6.8 5.1-10.1 9.7-10.1zm-2.1 72c-7.3 0-11.9-5.8-11.9-11.5 0-5.9 3.2-9.7 8-13.2l2.1-1.5 17 18c-4.8 4.9-9.1 8.2-15.2 8.2z"/></g></svg>