<svg xmlns="http://www.w3.org/2000/svg" version="1" viewBox="0 0 1353 158"><path fill-rule="evenodd" d="M44 60c-11 0-21 8-21 23s10 24 22 24c11 0 17-8 19-14l20 6c-4 14-17 29-39 29-25 0-44-19-44-45 0-25 19-44 43-44 23 0 36 14 39 28l-20 7c-2-7-7-14-19-14zm92 47c11 0 21-8 21-24 0-15-10-23-21-23s-21 8-21 23c0 16 10 24 21 24zm0-68c25 0 44 19 44 44 0 26-19 45-44 45s-44-19-44-45c0-25 19-44 44-44zM275 2v108l1 15h-22v-10c-4 7-13 12-24 12-24 0-40-19-40-44 0-24 16-43 40-43 14 0 21 6 23 10V2h22zm-63 81c0 15 9 24 21 24 11 0 20-9 20-24s-9-23-20-23c-12 0-21 8-21 23zm98-9h37c0-8-5-17-18-17-12 0-18 9-19 17zm40 22l18 5c-4 15-17 27-38 27-22 0-43-17-43-45 0-27 20-44 41-44 26 0 42 17 42 43l-1 7h-59c0 11 9 19 21 19 10 0 16-5 19-12zm60 6c0-15 11-23 25-25l20-3c5-1 6-3 6-6 0-6-4-11-14-11s-15 7-16 14l-20-4c2-13 14-28 36-28 27 0 36 15 36 32v41l1 13h-20l-1-10c-4 7-12 12-25 12-17 0-28-12-28-25zm33 9c10 0 18-5 18-20v-3l-18 2c-6 1-11 5-11 11 0 5 4 10 11 10zm78-34v48h-22V42h22v10c5-9 15-13 24-13 20 0 30 15 30 34v52h-23V76c0-9-4-16-15-16-10 0-16 7-16 17zM671 2v108l1 15h-22l-1-10c-3 7-12 12-23 12-24 0-41-19-41-44 0-24 17-43 40-43 15 0 21 6 24 10V2h22zm-63 81c0 15 9 24 21 24 11 0 20-9 20-24s-9-23-20-23c-12 0-21 8-21 23zm142-23c-11 0-21 8-21 23s10 24 21 24c12 0 18-8 20-14l19 6c-3 14-16 29-39 29-24 0-43-19-43-45 0-25 19-44 43-44 22 0 35 14 39 28l-20 7c-2-7-8-14-19-14zm92 47c11 0 21-8 21-24 0-15-10-23-21-23s-21 8-21 23c0 16 10 24 21 24zm0-68c25 0 44 19 44 44 0 26-19 45-44 45s-44-19-44-45c0-25 19-44 44-44zm80 38v48h-23V42h22v10c5-9 15-13 24-13 21 0 31 15 31 34v52h-23V76c0-9-5-16-15-16s-16 7-16 17zm68 25l19-4c1 6 6 12 15 12 8 0 11-4 11-8s-2-7-9-8l-11-3c-16-3-23-13-23-25 0-14 13-27 31-27 24 0 32 15 33 24l-19 4c-1-4-4-11-14-11-6 0-10 4-10 9 0 4 3 6 7 7l12 3c17 3 25 13 25 25 0 14-11 28-32 28-25 0-34-17-35-26zm103 55h-22V42h21v10c4-7 13-12 26-12 24 0 38 18 38 43s-15 44-39 44c-11 0-20-5-24-10v40zm41-74c0-14-9-23-20-23-12 0-21 9-21 23 0 15 9 24 21 24 11 0 20-9 20-24zm58 42h-22V42h22v83zm-25-111c0-7 6-14 14-14a14 14 0 1 1-14 14zm95 27v23l-7-1c-11 0-21 6-21 24v38h-23V42h22v12c5-11 17-13 24-13h5zm31 33h37c0-8-6-17-19-17-11 0-18 9-18 17zm39 22l19 5c-4 15-17 27-38 27-23 0-43-17-43-45 0-27 20-44 41-44 26 0 41 17 41 43v7h-60c1 11 10 19 21 19s17-5 19-12z"/></svg>
