<svg width="16" height="16" viewBox="0 0 16 16" xmlns="http://www.w3.org/2000/svg"><title>Facebook icon</title><g fill="none" fill-rule="evenodd"><path d="M15.117 16a.883.883 0 0 0 .883-.883V.883A.883.883 0 0 0 15.117 0H.883A.883.883 0 0 0 0 .883v14.234c0 .488.395.883.883.883h14.234z" fill="#3C5A99"/><path d="M11.035 15.994v-6.17h2.08l.31-2.405h-2.39V5.883c0-.696.194-1.17 1.197-1.17l1.278-.001v-2.15a17.17 17.17 0 0 0-1.863-.096c-1.843 0-3.104 1.121-3.104 3.18v1.773H6.458v2.404h2.085v6.17h2.492z" fill="#FEFEFE"/></g></svg>