<svg xmlns="http://www.w3.org/2000/svg" width="207" height="38" viewBox="0 0 207 38"><g fill="none" fill-rule="evenodd"><path fill="#000" d="M89.6 3.8H92V.2h-2.4v3.6zm0 26.5H92V8.6h-2.4v21.7zm8.4 0V8.6h2.6V12c2.2-2.4 4-3.8 7.3-3.8 2.4 0 4.6 1.5 5.3 4 2-2.4 4-4 7.3-4 3.8 0 5.8 2 5.8 6v16h-2.6V14c0-2.4-1.3-3.6-3.8-3.6-2 0-5.2 2-6.5 4v16H111V14c0-2.4-1.4-3.6-4-3.6-1.8 0-5 2-6.4 4v16H98zM144 18c-10 2.2-11.5 4.3-11.5 7 0 2.4 1.7 3.7 4 3.7 2.4 0 5.3-1.4 7.5-3.6v-7zm.4 12.3l-.3-2.6c-2.6 2-4.6 3-8 3-3.4 0-6-2-6-5.7 0-6 5-7 14-9v-1.5c0-3-1.2-4.3-5-4.3-2.6 0-4.7 1.4-6.4 4l-1.7-1c2-3.6 4.6-5 8-5 5.2 0 7.5 2 7.5 6.8v11.3c0 1 0 2.6.4 4h-2.6zm15-9c3.4 0 5.6-1.8 5.6-5.6s-2.2-5.5-5.7-5.5c-3.6 0-5.8 2-5.8 5.5 0 3.8 2.6 5.5 5.8 5.5zm-7 11c0 2.2 2.2 3.7 6.8 3.7 5.5 0 8-1.5 8-3.7 0-1.8-1.6-3.6-8.2-3.6-5 0-6.5 1.8-6.5 3.7zm17-22.3c-1 0-2.5 0-3.4 1 1 1.2 1.5 2.5 1.5 4.6 0 5.3-3.8 7.6-8.5 7.6-1.4 0-2.5-.3-3.6-.7-1.4.5-2 1.3-2 2 0 1.3.8 2 6.8 2 6.7 0 9.4 2 9.4 5.6 0 3.3-2.4 6-10 6-7.7 0-9.7-2.5-9.7-5 0-2 .7-3.6 3.8-4.7-1.6-.5-3-1-3-3 0-1.8 1.7-3.3 3.4-3.6-2-1.4-3.2-3.5-3.2-5.7 0-4.8 3.4-7.8 8.7-7.8 2 0 3.8.6 5.2 1.5 1-1.3 2.8-2 4.5-2V10zm16.7 7.5c-.4-4.4-2.4-7.3-6.2-7.3-4.5 0-6.4 4.4-6.5 7.3h13zm-12.7 2c0 5 2 9.2 7 9.2 3 0 4.4-1 6.6-4.4l2 1c-2.4 4-4.6 5.4-8.8 5.4-5.8 0-9.4-3.6-9.4-11.2 0-6.8 3.5-11.3 9-11.3 6 0 9 4.6 9 11.3h-15.5zm19 5.5c2 3 4 3.7 7 3.7 2.7 0 4.8-1.8 4.8-4 0-6.4-13-3-13-10.6 0-4 3.4-5.8 7-5.8 3.8 0 6.2 1.4 7.7 4l-2 1.2c-1.4-2-3-3.2-5.6-3.2-2.4 0-4.3 1-4.3 3.8 0 5.3 13 2.2 13 10.6 0 4-3.7 6-7.7 6-3.4 0-6.4-1.2-8.5-4.3l2-1.2z"/><path fill="#000" d="M9 12.4c-2 0-3.5 1.5-3.5 3.5 0 1.8 1.5 3.4 3.6 3.4 2 0 3.6-1.6 3.6-3.5 0-2-1.5-3.6-3.5-3.6zM4.7 32.2c0 1.6 1.4 2.4 5.6 2.4 3.3 0 4.4-1.7 4.4-2.4 0-1-1.5-2.4-6.4-2.4-2.8 0-3.6 1.5-3.6 2.4zM19.3 12c-1 0-2.4 0-3.2.5.7 1 1.2 2 1.2 3.8 0 4-2.7 6.8-8 6.8-2 0-4 .2-4 1.4 0 3.4 14-1.2 14 7.2 0 3-3 6.3-9.8 6.3C3.7 38 0 36 0 32.7c0-2.6 2-4 3.8-4-1-.5-3-1-3-3.3 0-2 2.2-3.6 3.2-4-1.8-1.3-3-3-3-5.5C1 12.3 3.6 8.6 9 8.6c1.8 0 4 .8 5.2 2 1-1.4 2.5-2 5-2V12zM33 17c0-3-1.6-4.6-4-4.6-2.5 0-4 1.7-4 4.6h8zm-8 3.4c0 4.4 2 6 4.3 6 2.4 0 3.5-1 4.7-2.4l3.7 2.3c-2 3-4.8 4.3-9 4.3-5.4 0-8.8-4.3-8.8-11s3.3-11 9-11c5.6 0 8.7 4.7 8.7 9.7v2H25zm43.5 13.2h2c2 0 3-.3 3.5-1.5.5-1 .8-1.5.8-2.4 0-.8-.4-1.7-.7-2.5L68.6 9h5l3.6 13L81 9h5L79 30.2c-2 6-4 7.7-8 7.7-1.3 0-2-.2-2.5-.3v-4zM41.8 9V2.7h5.6V9H52v4.2h-4.6v12c0 1 .6 1.4 2 1.4.8 0 1.7-.3 2.5-.4v4c-1.6.3-3 .4-4.5.4-4 0-5.7-1.8-5.7-4.8V13.2h-3.2v-4h3.2zm14.5 0V2.7h5.5V9h4.6v4.2h-4.6v12c0 1 .7 1.4 2 1.4 1 0 1.8-.3 2.6-.4v4c-1.5.3-3 .4-4.4.4-4 0-5.7-1.8-5.7-4.8V13.2H53v-4h3.3z"/></g></svg>
