<svg xmlns="http://www.w3.org/2000/svg" viewBox="0 0 420.43 148.34"><defs><style>.cls-1{fill:#fff}</style></defs><title>goalkeepers-logo</title><g id="Layer_2" data-name="Layer 2"><g id="INDIVIDUAL_GOAL_copy_2" data-name="INDIVIDUAL GOAL copy 2"><path class="cls-1" d="M18.48 77.06h17.27v38.6H27v-7.89c-1.6 5.44-5 8.74-11.62 8.74C4.94 116.52.14 108.2.14 97V62c0-11.3 5.44-19.51 18.23-19.51 13.43 0 17.38 7.46 17.38 18.13V67H24.66v-7.31c0-4.48-1.71-7-6.08-7s-6.29 3.09-6.29 7.46v38.77c0 4.37 1.81 7.46 6 7.46 3.94 0 6-2.24 6-6.93V86.66h-5.81zM42.15 97V62c0-11.3 5.54-19.51 18.34-19.51S78.93 50.73 78.93 62v35c0 11.2-5.54 19.51-18.45 19.51S42.15 108.2 42.15 97zm24.63 1.92V60.11c0-4.37-1.92-7.46-6.29-7.46s-6.18 3.09-6.18 7.46v38.81c0 4.37 1.92 7.46 6.18 7.46s6.29-3.09 6.29-7.46zM81.91 115.66l13.65-72.29h13.86l13.75 72.29H110.7l-2.24-13.22h-12.9l-2.13 13.22zm15.25-22.92h9.7l-4.8-29H102zM127.65 43.37h12.16v62.37h14.5v9.92h-26.66zM171.47 80.48v35.19h-12.15v-72.3h12.16v31.78l13.22-31.77h11.94l-14.08 32.51L197 115.66h-12.84zM201 43.37h29v9.92h-16.84V74h12v9.81h-12v22H230v9.92h-29zM236 43.37h29v9.92h-16.87V74h12v9.81h-12v22H265v9.92h-29zM270.84 43.37h18c12.26 0 16.74 6.08 16.74 16.21v15.25c0 10.13-4.48 16.31-16.74 16.31H283v24.52h-12.16zM283 53.29v28.47h4.48c4.16 0 6-2 6-6V59.15c0-3.94-1.81-5.86-6-5.86zM311.36 43.37h29v9.92h-16.85V74h12v9.81h-12v22h16.85v9.92h-29zM358.48 82.5v33.16h-12.15V43.37H364c12.26 0 16.74 6.08 16.74 16.21v9.28c0 7.78-2.77 12.37-9.7 14l11.62 32.84h-12.77zm0-29.21v22.5h4.05c4.16 0 6-2.13 6-6V59.15c0-3.94-1.81-5.86-6-5.86zM385.56 100.1v-9.7h11.3v9.91c0 4.05 1.81 6.4 6 6.4 3.84 0 5.54-2.56 5.54-6.4v-2.77c0-4.16-1.71-6.72-5.44-10.24l-7.14-7.14c-6.93-6.82-10.13-11-10.13-19.3v-2.45c0-9 5.22-15.89 17.06-15.89 12.15 0 17 6 17 16.42v5.86h-11.16v-6.29c0-4.16-1.92-6.18-5.76-6.18-3.41 0-5.76 1.92-5.76 6v1.49c0 4.05 2.24 6.4 5.76 9.81l7.78 7.68C417.23 84 420.43 88 420.43 96v3.52c0 9.92-5.33 17-17.7 17s-17.17-6.94-17.17-16.42zM300.24 138.03h120.13v.98H300.24zM0 138.03h120.13v.98H0zM182.3 28.81a.64.64 0 0 1-.35.61 4.81 4.81 0 0 1-2 .37 6.39 6.39 0 0 1-4.59-1.88 7.16 7.16 0 0 1-1.86-4.86 5.63 5.63 0 0 1 1.73-4.45 5.61 5.61 0 0 1 3.77-1.16c2.26 0 3.68.75 4.12 1.42a2.69 2.69 0 0 1 .37 1.16c0 .16 0 .26.12.26s.16-.09.16-.37a22.53 22.53 0 0 1 .12-2.49c0-.07 0-.14-.21-.16a8.56 8.56 0 0 1-1.42-.18 15 15 0 0 0-2.68-.3 8.61 8.61 0 0 0-4.66 1.1 6.65 6.65 0 0 0-2.92 5.79 6.84 6.84 0 0 0 2.09 5 9.55 9.55 0 0 0 9.48 1.09c.21-.12.23-.16.23-.95v-2-1.82c0-.56.17-.91.65-1a2.54 2.54 0 0 1 .44-.05c.07 0 .14 0 .14-.11s-.09-.14-.28-.14c-.53 0-1.63.05-1.72.05s-1.19-.05-2-.05c-.19 0-.28 0-.28.14s.07.11.14.11a3.25 3.25 0 0 1 .59.05c.7.19.79.39.79 1.81zM187.19 28.64c-.27.75-.57 1.32-1.26 1.41h-.44c-.08 0-.14 0-.14.09s.09.12.29.12h2.87c.14 0 .23 0 .23-.12s0-.09-.15-.09h-.15c-.26 0-.57-.14-.57-.44a3.17 3.17 0 0 1 .21-1L189 26a.15.15 0 0 1 .15-.12h3.23a.13.13 0 0 1 .13.09l1.4 3.7c.09.24 0 .38-.09.4s-.11 0-.11.1.17.09.45.11h2.36c.23 0 .3 0 .3-.12s-.06-.09-.15-.09a2 2 0 0 1-.6-.09c-.31-.09-.75-.33-1.29-1.67-.92-2.28-3.28-8.49-3.5-9.06s-.24-.54-.33-.54-.15.09-.33.59zm2.1-3.32s-.07 0 0-.11l1.32-4.06q.11-.34.22 0l1.43 4.06c0 .06 0 .11-.06.11zM200.83 19.57h1.89c1.44 0 1.79.38 1.85.83v.16c0 .21 0 .26.12.26s.1-.06.1-.19v-1.65c0-.09 0-.18-.08-.18a3.86 3.86 0 0 0-.42.08 7.89 7.89 0 0 1-1.07.08h-5.63c-.18 0-.75 0-1.19-.08a2.89 2.89 0 0 1-.66-.18c-.06 0-.12.2-.15.29s-.33 1.41-.33 1.56 0 .13.08.13.11 0 .15-.15a2.68 2.68 0 0 1 .25-.47c.24-.36.6-.46 1.53-.48h2.22v6.36c0 1.44 0 2.63-.07 3.26-.06.44-.13.77-.43.83a2.33 2.33 0 0 1-.45.06c-.09 0-.12 0-.12.09s.08.12.24.12H201.98c.17 0 .24 0 .24-.12s0-.09-.12-.09a6.58 6.58 0 0 1-.68-.06c-.45-.06-.54-.39-.59-.83-.08-.63-.08-1.82-.08-3.26zM207.74 25.93c0 1.44 0 2.63-.08 3.26-.06.44-.13.77-.44.83a2.36 2.36 0 0 1-.45.06c-.09 0-.12 0-.12.09s.07.12.24.12h1.47c.44 0 1.44.09 3.71.09.59 0 .71 0 .81-.39a14.49 14.49 0 0 0 .2-1.46c0-.1 0-.22-.09-.22s-.11.06-.14.22c-.11.62-.29.92-.68 1.08a4.31 4.31 0 0 1-1.44.17c-1.47 0-1.7-.19-1.74-1.23v-3.94a.09.09 0 0 1 .1-.1c.25 0 1.74 0 2.15.08.59.06.72.32.78.53a1.57 1.57 0 0 1 .06.5c0 .07 0 .13.11.13s.1-.16.1-.28 0-.66.06-1c0-.49.12-.75.12-.84s0-.12-.08-.12-.12.08-.23.2-.34.18-.7.21-2.2 0-2.39 0-.09 0-.09-.15v-4.11c0-.11 0-.15.09-.15h2.06c.81.09 1 .27 1.07.51a1.61 1.61 0 0 1 .09.54c0 .12 0 .2.12.2s.09-.09.1-.17.06-.84.08-1c0-.42.12-.6.12-.71s0-.13-.06-.13-.14.06-.21.07a3.84 3.84 0 0 1-.65.08h-5.14c-.17 0-.24 0-.24.12s.06.09.12.09a2.91 2.91 0 0 1 .51 0c.49.11.61.35.65.86s0 .9 0 3.25zM217.86 30.5a3.94 3.94 0 0 0 2.27-.63 3.11 3.11 0 0 0 1.28-2.5c0-1.2-.42-2.13-2.19-3.53l-.42-.33c-1.42-1.16-1.8-1.67-1.8-2.51a1.71 1.71 0 0 1 1.85-1.74c1.38 0 1.79.63 1.88.8a2.68 2.68 0 0 1 .19.75c0 .12 0 .2.12.2s.1-.11.1-.35c0-1 .06-1.52.06-1.59s0-.1-.15-.1a2.48 2.48 0 0 1-.52-.08 5.8 5.8 0 0 0-1.4-.15c-1.91 0-3.11 1.1-3.11 2.7 0 1 .36 2 2 3.26l.68.56c1.29 1.07 1.73 1.67 1.73 2.7a2 2 0 0 1-2.15 2 2 2 0 0 1-2.28-1.55 2.61 2.61 0 0 1 0-.55c0-.12 0-.17-.1-.17s-.11.07-.12.24-.07.84-.07 1.59c0 .41 0 .47.23.57a4.55 4.55 0 0 0 2 .41M231.47 23.14a.33.33 0 0 0 .12-.45h-1.54a10.26 10.26 0 0 1 1.16-2.87 1.25 1.25 0 0 1 1-.67c.32 0 .71.22.75 1 0 .09.06.2.17.2s.53-.38.53-.76a.92.92 0 0 0-1-.81 2.65 2.65 0 0 0-2.07 1 7.49 7.49 0 0 0-1.37 2.93h-1.06a.31.31 0 0 0-.09.45h1c-.59 2-1 4.12-1.63 6.18-.26.84-.55 1-.78 1a.94.94 0 0 1-.74-.46c-.1-.16-.18-.26-.36-.11a.49.49 0 0 0-.23.44.74.74 0 0 0 .8.63 2.1 2.1 0 0 0 1.41-.63 5.18 5.18 0 0 0 1-2c.41-1.35.76-2.72 1.16-4.09.11-.37.21-.76.28-1zM235.86 22.52a2.4 2.4 0 0 0-1.7.8 4.61 4.61 0 0 0-1.34 2.76c-.08 1.06.44 1.64 1.23 1.64a2.35 2.35 0 0 0 1.76-.85 4.66 4.66 0 0 0 1.31-2.8c0-.9-.38-1.55-1.26-1.55m-.09.37c.43 0 .5.43.49.81a7.56 7.56 0 0 1-1.14 3c-.39.53-.7.64-1 .64s-.53-.36-.5-.79a7.13 7.13 0 0 1 1.23-3.08c.36-.48.65-.59.9-.59M241.5 22.89c.07-.21-.21-.37-.37-.37A4.14 4.14 0 0 0 239 24a.17.17 0 0 0 .21.19c.29-.31.93-.85 1.17-.85s.09.12 0 .36l-1.13 3c-.21.54-.15 1 .36 1 .66 0 2.19-1.57 3.08-2.69l-.84 2.25a.34.34 0 0 0 .31.43 3.64 3.64 0 0 0 2.16-1.56.17.17 0 0 0-.22-.17c-.32.38-1 1-1.21 1s-.11-.15 0-.31c.52-1.46 1.32-3.48 1.44-3.82a.58.58 0 0 0-.61-.22 12.81 12.81 0 0 1-2.17 3.29 3.85 3.85 0 0 1-1.32 1c-.14 0-.2-.12-.09-.42zM248.63 23c.11-.28 0-.5-.32-.5a2.62 2.62 0 0 0-1.83 1.14.15.15 0 0 0 .15.18 2.14 2.14 0 0 1 1.12-.62c.1 0 .1.12 0 .28s-1.36 3.72-1.43 3.88.22.32.36.32a.22.22 0 0 0 .22-.15 20.48 20.48 0 0 1 1.88-3.13c.68-.85 1.4-1.46 1.7-1.46s.2.15.2.29a3 3 0 0 1-.26.9c-.28.61-.74 1.82-1 2.42s-.3.7-.3.81a.37.37 0 0 0 .3.31 2.88 2.88 0 0 0 2.12-1.38c0-.1 0-.2-.2-.17a2.55 2.55 0 0 1-1.16.84c-.09 0-.07-.11 0-.23s.92-2.11 1.15-2.72a3.34 3.34 0 0 0 .2-.86.6.6 0 0 0-.69-.66c-.92 0-2.14 1.35-3 2.68zM257.83 22.9a.76.76 0 0 0-.63-.38 3.6 3.6 0 0 0-2.2 1.1 5.13 5.13 0 0 0-1.64 3.21c0 .49.26.89.74.89 1.2 0 2.12-1.2 3-2.33h.05l-.43 1.22a2.26 2.26 0 0 0-.16.7.38.38 0 0 0 .39.4A3.46 3.46 0 0 0 259 26a.16.16 0 0 0-.19-.16 3.94 3.94 0 0 1-1.34 1.16c-.11 0-.12-.12-.08-.28.11-.37.69-2.34 1.91-5.7.37-1 .55-1.49.77-2.18v-.08a4.91 4.91 0 0 0-1.45.23.16.16 0 0 0 0 .17l.28.2c.17.11.14.33-.11 1zm-.65 0c.31 0 .47.37.32.89a5.42 5.42 0 0 1-1.5 2.36 3.14 3.14 0 0 1-1.66 1.1.26.26 0 0 1-.23-.26 2.46 2.46 0 0 1 .38-1.17 10.57 10.57 0 0 1 1.76-2.4 1.63 1.63 0 0 1 .94-.53M264.68 23a.68.68 0 0 0-.25-.26.59.59 0 0 0-.3-.08A2.15 2.15 0 0 0 263 23a5.42 5.42 0 0 0-1.63 1.59 5.34 5.34 0 0 0-1.05 2.41.62.62 0 0 0 .54.69 5.14 5.14 0 0 0 2.71-1.93l-.41 1.11a1.66 1.66 0 0 0-.12.48.34.34 0 0 0 .36.33 3.22 3.22 0 0 0 2.07-1.38.16.16 0 0 0-.17-.16c-.7.61-1.06.82-1.27.82s-.16-.07-.08-.28c.39-1.12 1.46-3.84 1.65-4.3a.51.51 0 0 0-.6-.18zm-.92.14a.65.65 0 0 1 .61.44 6 6 0 0 1-1.65 2.66c-.7.64-1.07.8-1.2.8s-.18-.09-.18-.23a5.46 5.46 0 0 1 1.54-3.19c.38-.34.58-.48.88-.48M270.92 23.28a.36.36 0 0 0 .14-.46h-1.34l.36-1.21a.41.41 0 0 0-.47-.07l-.69 1.22-1 .17a.31.31 0 0 0-.13.34h1l-1.16 3.4a2.35 2.35 0 0 0-.17.7.37.37 0 0 0 .33.33 4.07 4.07 0 0 0 2.36-1.77c0-.15 0-.22-.17-.22a4.53 4.53 0 0 1-1.4 1.11c-.1 0-.16-.07-.09-.31l1.11-3.24zM272.14 27.27a.29.29 0 0 0 .05.33.27.27 0 0 0 .2.11 3.85 3.85 0 0 0 2.3-1.47.19.19 0 0 0-.18-.21 3 3 0 0 1-1.28.91c-.1 0-.09-.15 0-.27l1.46-3.5c.15-.36.15-.47.07-.54s-.11-.12-.2-.12a3.56 3.56 0 0 0-2 1.23.17.17 0 0 0 .16.21 2.81 2.81 0 0 1 1-.65c.09 0 .09.1 0 .23zm2.71-7.71c-.48 0-.66.51-.66.78a.43.43 0 0 0 .44.47.74.74 0 0 0 .65-.77.42.42 0 0 0-.43-.47M279.95 22.52a2.4 2.4 0 0 0-1.7.8 4.61 4.61 0 0 0-1.34 2.76c-.07 1.06.44 1.64 1.23 1.64a2.35 2.35 0 0 0 1.76-.85 4.71 4.71 0 0 0 1.31-2.8c0-.9-.38-1.55-1.26-1.55m-.09.37c.43 0 .5.43.49.81a7.59 7.59 0 0 1-1.14 3c-.39.53-.7.64-1 .64s-.53-.36-.5-.79a7.11 7.11 0 0 1 1.29-3.07c.36-.48.65-.59.9-.59M285.39 23c.11-.28 0-.5-.32-.5a2.61 2.61 0 0 0-1.83 1.14.15.15 0 0 0 .15.18 2.14 2.14 0 0 1 1.12-.62c.1 0 .1.12 0 .28l-1.43 3.88c-.11.28.22.32.35.32a.22.22 0 0 0 .22-.15 20.65 20.65 0 0 1 1.89-3.13c.68-.85 1.4-1.46 1.7-1.46s.2.15.2.29a2.88 2.88 0 0 1-.26.9c-.28.61-.74 1.82-1 2.42s-.3.7-.3.81a.37.37 0 0 0 .3.31 2.89 2.89 0 0 0 2.12-1.38c0-.1 0-.2-.2-.17a2.54 2.54 0 0 1-1.1.88c-.09 0-.07-.11 0-.23s.92-2.11 1.15-2.72a3.33 3.33 0 0 0 .2-.86.6.6 0 0 0-.69-.66c-.92 0-2.14 1.35-3 2.68zM135.57 8.52c0 1.68 0 3.07-.09 3.81-.07.51-.16.89-.51 1a2.64 2.64 0 0 1-.53.07c-.1 0-.14.05-.14.1s.09.14.28.14c.53 0 1.63-.05 1.72-.05s1.93.11 2.33.11c3 0 4.47-1.94 4.47-3.82a4.09 4.09 0 0 0-3-3.7A4.42 4.42 0 0 0 141.72 3c0-.88-.63-2.63-3.51-2.63-.8 0-1.49.05-1.91.05-.09 0-1.19-.05-2-.05-.19 0-.28 0-.28.14s.07.11.14.11a3.3 3.3 0 0 1 .6.05c.58.12.72.4.75 1s0 1.05 0 3.79zm1.4-7.4c0-.11.05-.16.21-.19a4 4 0 0 1 .82-.09c1.72 0 2.37 1.56 2.37 3a2.72 2.72 0 0 1-.63 1.77c-.37.42-.62.46-1.6.46A6.32 6.32 0 0 1 137.1 6c-.09 0-.12-.07-.12-.19zm0 5.56c0-.09 0-.12.1-.12h1.37a2.91 2.91 0 0 1 1.46.51 4.2 4.2 0 0 1 1.7 3.51 2.34 2.34 0 0 1-2.47 2.49 4.12 4.12 0 0 1-1.54-.26c-.54-.26-.54-.51-.6-1.37V7.65zM148.23 6.6V3.35c0-.48.15-.78.56-.86a2.13 2.13 0 0 1 .38 0c.06 0 .12 0 .12-.09s-.07-.12-.24-.12h-2.99c-.17 0-.24 0-.24.12s.06.09.12.09a1.88 1.88 0 0 1 .47.06c.33.08.48.33.51.84s0 .9 0 3.25v2.61c0 1.44 0 2.63-.08 3.26-.06.44-.13.77-.44.83a2.24 2.24 0 0 1-.45.06c-.09 0-.12 0-.12.09s.08.12.24.12H149.39c.16 0 .24 0 .24-.12s0-.09-.12-.09a6.37 6.37 0 0 1-.68-.06c-.45-.06-.54-.39-.59-.83-.07-.63-.07-1.82-.07-3.26zM154.75 6.6V3.35c0-.48.15-.78.59-.86a3.41 3.41 0 0 1 .5 0c.06 0 .12 0 .12-.09s-.08-.12-.24-.12h-3.33c-.16 0-.24 0-.24.12s.06.09.12.09a2.73 2.73 0 0 1 .51 0c.5.11.62.34.65.86s0 .9 0 3.25v2.65c0 1.44 0 2.63-.08 3.26-.06.44-.13.77-.43.83a2.28 2.28 0 0 1-.45.06c-.09 0-.12 0-.12.09s.07.12.24.12h1.48c.87 0 1.87.09 4 .09.8 0 .84-.06.95-.4a9.45 9.45 0 0 0 .23-1.5c0-.17 0-.22-.09-.22s-.12.08-.14.19a2.1 2.1 0 0 1-.39.9c-.36.44-1 .45-1.82.45-1.17 0-1.56-.11-1.8-.35s-.33-1.23-.33-3.44zM163.18 6.6V3.35c0-.48.15-.78.58-.86a3.41 3.41 0 0 1 .5 0c.06 0 .12 0 .12-.09s-.07-.12-.24-.12H160.82c-.16 0-.24 0-.24.12s.06.09.12.09a2.73 2.73 0 0 1 .51 0c.5.11.61.34.65.86s0 .9 0 3.25v2.65c0 1.44 0 2.63-.07 3.26-.06.44-.14.77-.44.83a2.25 2.25 0 0 1-.45.06c-.09 0-.12 0-.12.09s.07.12.24.12h1.47c.87 0 1.86.09 4 .09.8 0 .84-.06.95-.4a9.64 9.64 0 0 0 .23-1.5c0-.17 0-.22-.09-.22s-.12.08-.13.19a2.11 2.11 0 0 1-.39.9c-.36.44-1 .45-1.82.45-1.17 0-1.56-.11-1.8-.35s-.33-1.23-.33-3.44zM173.27 12.21a4.23 4.23 0 0 0 3-1.38 5.43 5.43 0 0 0 1.29-2.74c0-.24.05-.85.05-1.08a5.74 5.74 0 0 1 .87.9.2.2 0 0 0 .3.08 3.22 3.22 0 0 1 1-.32c.14 0 .25 0 .33-.13a.85.85 0 0 0 .24-.6c0-.33-.13-.71-.47-.71a.38.38 0 0 0-.41.32.93.93 0 0 0 .05.19 1 1 0 0 1 .05.32c0 .22-.13.39-.26.39s-.27-.06-.56-.33c-.62-.56-1-1-1.69-1a2.26 2.26 0 0 0-1.26.52 2.06 2.06 0 0 0-.8 1.43.51.51 0 0 0 .54.51.37.37 0 0 0 .42-.36 2.19 2.19 0 0 0-.09-.35 2 2 0 0 1-.1-.42 1 1 0 0 1 .93-.81 1.05 1.05 0 0 1 .66.22 5.1 5.1 0 0 1-.69 2.56 3.73 3.73 0 0 1-3.08 2.07 2.08 2.08 0 0 1-2.25-2.17v-.1a39.81 39.81 0 0 0 4.5-3.55c1.18-1.15 1.6-1.94 1.6-2.6 0-.49-.29-.67-.58-.67a.5.5 0 0 0-.51.52c0 .14 0 .18.14.28a.51.51 0 0 1 .15.38 2.23 2.23 0 0 1-.46 1.07 13.76 13.76 0 0 1-1.79 1.81.82.82 0 0 0-.8-.49 2.79 2.79 0 0 0-1.89 1 3.91 3.91 0 0 0-1.22 2.73 2.47 2.47 0 0 0 2.8 2.54m-1.93-3.48a3.48 3.48 0 0 1 .65-1.59 1.57 1.57 0 0 1 1-.68.39.39 0 0 1 .42.39v.31a25.24 25.24 0 0 1-2.07 1.55M196.83.47c0-.33-.09-.47-.21-.47s-.19.12-.26.28l-5.15 11-5.37-11c-.09-.19-.16-.26-.26-.26s-.16.12-.19.32l-1.26 11.43c-.07.67-.12 1.35-.7 1.45a2.26 2.26 0 0 1-.53.05c-.09 0-.18 0-.18.09s.12.16.3.16c.47 0 1.32-.05 1.47-.05s1 .05 1.63.05c.21 0 .31 0 .31-.16s-.07-.09-.14-.09a3.32 3.32 0 0 1-.67-.09.56.56 0 0 1-.46-.54v-.9l.7-8.14h.14c.2.47 2.16 4.68 2.32 5s1.6 3.21 2.05 4.07c.33.63.42.81.54.81s.21-.16.58-.93l4.3-9.12h.05l.84 9c0 .31 0 .61-.07.63s-.12.05-.12.12.09.14.49.17c.65.05 2.54.11 2.93.11.21 0 .37-.05.37-.16s-.05-.09-.14-.09a3.79 3.79 0 0 1-1.14-.16c-.75-.25-.88-1.23-.95-1.86zM202.71 9.14c0 1.44 0 2.63-.07 3.26-.06.43-.14.76-.44.83a2.34 2.34 0 0 1-.45.06c-.09 0-.12 0-.12.09s.08.12.24.12h1.47c.44 0 1.44.09 3.71.09.59 0 .71 0 .81-.39s.19-1.34.19-1.46 0-.22-.09-.22-.1.06-.14.22c-.1.62-.28.92-.68 1.08a4.31 4.31 0 0 1-1.44.17c-1.47 0-1.7-.2-1.74-1.23V7.81a.1.1 0 0 1 .11-.1c.25 0 1.74 0 2.15.08.59.06.72.32.78.52a1.5 1.5 0 0 1 .06.5c0 .08 0 .14.1.14s.11-.17.11-.29 0-.66.06-1c0-.5.12-.75.12-.84s0-.12-.07-.12-.12.08-.23.2-.35.18-.71.21-2.19 0-2.39 0-.05.01-.05-.11V2.87c0-.1 0-.15.09-.15h2.06c.81.09 1 .27 1.07.51a1.61 1.61 0 0 1 .09.54c0 .12 0 .2.12.2s.09-.09.1-.17.06-.84.08-1c0-.42.12-.6.12-.71s0-.14-.06-.14-.14.06-.21.07a3.94 3.94 0 0 1-.65.08h-5.14c-.17 0-.24 0-.24.12s.06.09.12.09a2.79 2.79 0 0 1 .51 0c.5.11.62.34.65.86s0 .9 0 3.24zM212.87 6.49V3.24c0-.48.15-.78.59-.86a3.6 3.6 0 0 1 .5 0c.06 0 .12 0 .12-.09s-.07-.12-.24-.12H210.52c-.16 0-.24 0-.24.12s.06.09.12.09a2.85 2.85 0 0 1 .51 0c.5.11.62.34.65.86s0 .9 0 3.25v2.65c0 1.44 0 2.63-.08 3.26-.06.43-.14.76-.43.83a2.27 2.27 0 0 1-.45.06c-.09 0-.12 0-.12.09s.08.12.24.12h1.48c.87 0 1.86.09 4 .09.79 0 .84-.06.95-.41a9.43 9.43 0 0 0 .23-1.5c0-.17 0-.22-.09-.22s-.12.08-.14.19a2.1 2.1 0 0 1-.39.9c-.36.44-1 .45-1.82.45-1.17 0-1.57-.1-1.8-.34s-.33-1.23-.33-3.44zM221.67 6.49V3.24c0-.48.15-.78.56-.86a2.24 2.24 0 0 1 .37 0c.06 0 .12 0 .12-.09s-.08-.12-.24-.12h-2.99c-.17 0-.24 0-.24.12s.06.09.12.09a2 2 0 0 1 .47.06c.33.08.48.33.51.84s0 .9 0 3.25v2.61c0 1.44 0 2.63-.08 3.26-.06.43-.13.76-.44.83a2.23 2.23 0 0 1-.45.06c-.09 0-.12 0-.12.09s.07.12.24.12H222.82c.16 0 .24 0 .24-.12s0-.09-.12-.09a6.27 6.27 0 0 1-.67-.06c-.45-.06-.54-.39-.59-.83-.08-.63-.08-1.82-.08-3.26zM227.13 4.25c.48.54 2.18 2.43 3.92 4.31 1.59 1.71 3.76 3.92 3.92 4.07.8.8 1 1 1.1 1s.14-.08.14-1.07V3.75c0-.9.06-1.23.56-1.34a1.31 1.31 0 0 1 .36 0c.1 0 .16 0 .16-.11s-.11-.11-.27-.11h-2.84c-.18 0-.3 0-.3.11s0 .11.12.11a4 4 0 0 1 .73.07c.47.12.57.45.59 1.43l.16 7.63c-.48-.5-2.12-2.33-3.61-3.92-2.31-2.48-4.55-4.9-4.78-5.16s-.41-.48-.53-.48-.17.17-.17.75v8.61c0 1.37-.07 1.8-.45 1.91a2.08 2.08 0 0 1-.62.09c-.08 0-.12 0-.12.09s.09.12.24.12H228.47c.18 0 .27 0 .27-.12s0-.09-.12-.09a3.21 3.21 0 0 1-.75-.09c-.41-.12-.55-.51-.59-1.74zM240.51 9.14c0 1.44 0 2.63-.08 3.26-.06.44-.14.76-.43.83a2.34 2.34 0 0 1-.45.06c-.09 0-.12 0-.12.09s.08.12.24.12h1.47c.07 0 2 .18 3.33.18A6 6 0 0 0 249 11.9a6.14 6.14 0 0 0 1.62-4.24 5.37 5.37 0 0 0-1.46-3.82c-1.79-1.85-4.54-1.71-6-1.71h-3.7c-.16 0-.24 0-.24.12s.06.09.12.09a2.84 2.84 0 0 1 .51 0c.49.11.62.34.65.86s0 .9 0 3.24zm1.26-2.88v-3.2a.27.27 0 0 1 .18-.3 4.06 4.06 0 0 1 1-.1c1.79 0 3.5.21 4.91 1.7a5.37 5.37 0 0 1 1.44 3.79 5.26 5.26 0 0 1-1.2 3.59 5 5 0 0 1-3.58 1.4c-1.77 0-2.36-.32-2.56-.6a3.33 3.33 0 0 1-.16-1.14V8.14zM252.44 11.84c-.27.75-.57 1.32-1.26 1.41h-.43c-.07 0-.14 0-.14.09s.09.12.29.12h2.87c.13 0 .23 0 .23-.12s0-.09-.15-.09h-.15c-.25 0-.57-.14-.57-.43a3.25 3.25 0 0 1 .21-1l.9-2.66a.16.16 0 0 1 .15-.12h3.23a.13.13 0 0 1 .13.09l1.4 3.7c.09.24 0 .38-.09.41s-.11 0-.11.11.16.09.45.11h2.36c.23 0 .3 0 .3-.12s-.06-.09-.15-.09a1.89 1.89 0 0 1-.6-.09c-.32-.09-.75-.33-1.29-1.67-.92-2.28-3.28-8.49-3.5-9.06s-.24-.54-.33-.54-.15.09-.33.59zm2.1-3.32s-.07 0 0-.1l1.32-4.06c.07-.22.15-.22.22 0l1.43 4.06c0 .06 0 .1-.06.1zM135.21 128.35h2l10.2 14.65v-14.65H149v16.73h-2l-10.18-14.65v14.65h-1.56zM162.84 143a5.36 5.36 0 0 1-4.73 2.34c-3.33 0-5.53-2.39-5.53-5.76a5.42 5.42 0 0 1 5.46-5.72 5 5 0 0 1 5.13 5.1v1H154a4.07 4.07 0 0 0 4.13 4.11 4.39 4.39 0 0 0 3.66-1.94zm-1.09-4.32a3.67 3.67 0 0 0-3.78-3.54 4 4 0 0 0-4 3.54zM164.8 134.16h1.56l2.65 9.14 3-9.14h1.35l3.24 9.14 2.58-9.14h1.42l-3.21 10.92H176l-3.26-8.93-3 8.93h-1.46zM193.22 137.87l-6.14-9.52h1.87l5.06 7.94 5.17-7.94h1.75l-6.14 9.52v7.21h-1.56zM205.63 133.88a5.74 5.74 0 1 1-5.74 5.74 5.53 5.53 0 0 1 5.74-5.74zm0 10.21a4.47 4.47 0 1 0-4.32-4.47 4.23 4.23 0 0 0 4.32 4.46zM214.54 137.23c0-.8-.12-2.5-.12-3.07h1.42c0 .8 0 1.7.09 1.91a3.88 3.88 0 0 1 3.47-2.2 3.32 3.32 0 0 1 .83.12l-.17 1.39a1.74 1.74 0 0 0-.54-.09c-2.46 0-3.57 1.7-3.57 3.83v6h-1.42zM222.4 127.22h1.42v11.91l5.39-4.94h2.08l-5.62 5 6.28 5.91h-2.15l-6-5.76v5.76h-1.4zM234.62 143h1.65l-1.82 5.39h-1.39zM244 143.42l6.28-6.64c1.11-1.16 2.39-2.53 2.39-4.32a3.06 3.06 0 0 0-3.33-3.12 3.34 3.34 0 0 0-3.35 2.74l-1.65-.17c.54-2.58 2.5-3.85 5.08-3.85s4.82 1.58 4.82 4.28-1.72 4.35-3.45 6.1l-5.22 5.36h8.79v1.28H244zM261.41 128.07c4.7 0 5.53 5 5.53 8.65s-.83 8.65-5.53 8.65-5.53-5-5.53-8.65.83-8.65 5.53-8.65zm0 16c3.54 0 4-4.77 4-7.37s-.42-7.37-4-7.37-4 4.77-4 7.37.46 7.38 4 7.38zM273.73 130.33l-3 2.48-.87-1.09 4.13-3.38h1.21v16.73h-1.42zM290.31 129.63l-6.66 15.45h-1.58l6.78-15.45h-8v-1.28h9.5z"/></g></g></svg>
