<svg viewBox="0 0 16 16">
  <g fill="black">
  <path d="M4.844 4.799a4.547 4.547 0 0 0-.716.92L1.007 4.166c.396-.721.9-1.376 1.49-1.94L4.844 4.8zm5.995-.291a4.483 4.483 0 0 0-.985-.618L11.106.636a8.016 8.016 0 0 1 2.086 1.301l-2.353 2.57zm1.293 1.71l3.12-1.556c.333.725.56 1.509.663 2.33l-3.47.328a4.46 4.46 0 0 0-.313-1.102zm2.91-2.004l-3.118 1.554a4.52 4.52 0 0 0-.692-.92l2.353-2.57a8.027 8.027 0 0 1 1.458 1.936zM3.49 7.78a4.5 4.5 0 0 0 .1 1.18l-3.353.962A7.992 7.992 0 0 1 .018 7.47l3.47.31zm7.16 3.824c.315-.228.6-.496.847-.796l2.78 2.097a8.045 8.045 0 0 1-1.794 1.667l-1.833-2.968zm1.748-2.686a4.463 4.463 0 0 0 .1-1.12l3.471-.328a7.922 7.922 0 0 1-.219 2.411l-3.352-.963zM1.801 13.023l2.775-2.109c.255.298.547.563.87.786l-1.833 2.964a8.037 8.037 0 0 1-1.812-1.641zm2.06-6.86a4.48 4.48 0 0 0-.334 1.118L.053 6.97a7.931 7.931 0 0 1 .688-2.36l3.12 1.554zm6.373 5.758l1.83 2.963a7.907 7.907 0 0 1-2.253.899l-.645-3.429a4.483 4.483 0 0 0 1.068-.433zm1.528-1.487c.201-.31.365-.647.487-1.003l3.35.963a7.945 7.945 0 0 1-1.054 2.14l-2.783-2.1zm-3.758 2.063c.22 0 .438-.016.65-.046l.645 3.425a8.022 8.022 0 0 1-2.465.02l.646-3.43c.172.02.347.031.524.031zM9.38 3.703a4.555 4.555 0 0 0-1.114-.217V0c.827.03 1.621.184 2.366.45L9.38 3.702zM5.86 11.92c.344.185.715.327 1.106.417l-.645 3.425a7.94 7.94 0 0 1-2.295-.877l1.834-2.965zm1.942-8.435a4.46 4.46 0 0 0-1.137.202L5.404.437A7.956 7.956 0 0 1 7.802 0v3.486zM3.721 9.43c.13.38.31.739.531 1.065l-2.775 2.109a7.955 7.955 0 0 1-1.106-2.212l3.35-.962zm2.454-5.597a4.512 4.512 0 0 0-.965.584L2.86 1.841A7.988 7.988 0 0 1 4.916.583l1.26 3.25z"/>
  </g>
</svg>
