<svg xmlns="http://www.w3.org/2000/svg" viewBox="0 0 1467 425" xmlns:xlink="http://www.w3.org/1999/xlink"><defs><path id="a" d="M0 .2V424h1466.6V0H0z"/></defs><g fill="none" fill-rule="evenodd"><path fill="#000" d="M450 39.6c6.7 0 12.3-5.4 12.3-12.4 0-6.5-5.6-11.5-12.2-11.5h-13.6v24H450zM421 3.4c0-1.2 1-2.2 2.2-2.2H451c14.6 0 26.6 11.8 26.6 26.2 0 14.7-12 26.6-26.5 26.6h-14.6v28c0 1-1 2-2.2 2h-10.8c-1.3 0-2.3-1-2.3-2V3.3zM549.6 39c6.3 0 11.7-5.5 11.7-12 0-6.4-5.4-11.6-11.7-11.6h-19.3V39h19.3zM514.8 3.4c0-1.2 1-2.2 2.2-2.2h34c14 0 25.8 11.3 25.8 25.4 0 11-7.3 19.8-17.6 24l16.2 30c1 1.6 0 3.5-2 3.5H561c-1 0-1.7-.4-2-1L543.3 52h-13V82c0 1-1.2 2-2.4 2h-11c-1.4 0-2.3-1-2.3-2V3.3zM643.4 70c15 0 27.2-12.3 27.2-27.2 0-15-12.3-27.4-27.2-27.4-15 0-27.2 12.4-27.2 27.4 0 15 12.2 27 27.2 27zm0-70C667 0 686 19 686 42.8c0 23.7-19 42.5-42.6 42.5-23.7 0-42.6-18.8-42.6-42.5S619.8 0 643.4 0zM711 73.7l6-6.3c1.4-1.2 2.6-1 3.6 0 1.6 1.8 4 4 8 4 4.5 0 9.3-4 9.3-12v-56c0-1.2 1-2.2 2-2.2h11c1.5 0 2.5 1 2.5 2.2v56c0 16.4-11 26-25 26-10.2 0-16-6.3-18-8.7-.5-1-.4-2.2.3-3m85.8-70.3c0-1.2 1-2.2 2.3-2.2h48c1.3 0 2.3 1 2.3 2.2V13c0 1.3-1 2.4-2.3 2.4h-35v19.4h29.3c1.2 0 2.2 1 2.2 2.3v10c0 1.3-1 2.3-2.2 2.3H812V70h35c1.4 0 2.4 1 2.4 2.2V82c0 1-1 2-2.3 2h-48c-1.3 0-2.3-1-2.3-2V3.3M926.4 0c12 0 20.6 3.8 28.7 11 1 1 1 2.4.3 3.3l-7.2 7.5c-1 1-2 1-3 0-5-4.4-11.5-7-18.2-7-15 0-26.4 12.7-26.4 27.6 0 14.8 11.4 27.4 26.6 27.4 7 0 13-2.7 18-6.8 1-.8 2.3-.7 3 0l7.3 7.6c1 .8.7 2.4 0 3.2-8.2 7.8-18.4 11.5-29 11.5-23.6 0-42.7-18.8-42.7-42.5S902.6 0 926.4 0"/><g transform="translate(0 1)"><mask id="b" fill="#fff"><use xlink:href="#a"/></mask><path fill="#000" d="M1005.6 14.4h-18.2c-1.3 0-2.2-1-2.2-2.3V2.6c0-1.2 1-2.2 2.2-2.2h51.8c1.3 0 2.3 1 2.3 2.2V12c0 1.3-1 2.4-2.3 2.4h-18V81c0 1-1.2 2-2.4 2h-11c-1.2 0-2.2-1-2.2-2V14.3M599.6 268l1.2 1.3 26.2-24c1-1 1.6-2.8 2-4.2.7-3.3-.8-4.5-4-3-2.2.8-4.4 2-6 3.6-7 7.5-12 16.6-18.5 24.7l-1 2zm-184.3-36.5c-7 .5-14 .4-20.6 1.7-8.6 1.7-17.2 4-25.4 7.2-10.2 3.7-19 10-27.4 16.8-13.6 11.2-24 25-34 39-7 10-12.5 20.7-18 31.4-5 10-10.3 20.3-14.6 30.8-3 7.4-5.2 15.3-7.4 23-2.2 8.4-8.4 12.7-15.8 15.4-4 1.5-8.3 1.4-11.7-2.5-1.8-2-5-3.3-6.4-5.6-1-2 0-5 0-7.7-.2-18.6-.5-37-3-55.5-1-9.5-3.6-19-5.7-28.3-.4-2-1.3-4-2-6.2-5 3.8-10 4.5-15.2 1.8-4.4-2.2-9.2-3.8-13.7-6-9.8-4.8-19.7-9.6-29.3-14.8-8-4.5-17-5.4-25.7-6.7-5.8-.8-11.6-2.8-17.7-1.4-6.8 1.3-13.8 2.2-20.6 3.6-1 .3-2.3 1.5-3 2.5l-6 10c-4.4 7-8.8 14.4-13.4 21.5-2 3-4 6.2-4.4 10.4 5 1 9.6.6 14.3.5 7 0 14.3 0 21.4.5 7.3.6 12.5 5 16.3 11.2 1.3 2 1 4-.7 5.8-3.7 4.4-8.4 5.8-14 5.6-7.2-.2-14.5-.5-21.8-.4-7.4 0-14.7.6-22 1-2.2 0-4.5.7-5.6 3.2-4.7 11-12.7 19.7-19.6 29.2l-3 4.3c1.4 0 2.4.6 3.4.4 16.3-3 32.7-2 49-2 5.5 0 11 .6 16.3.4 6.7-.3 15.8 7 17.7 15 1 4.5-.5 7.2-4.7 9.2-3.7 1.8-7.2 2-11.2 1.5-9.2-1.5-18.6-3.2-28-3.6-8.6-.3-17.3.6-26 1.6-7 .8-14 2.5-21 3.8-1 .2-2.3.4-3.2 1-5.3 3-11 2.6-16.8 3.2l-7 .5c-5 .6-8-2-8-7.5 0-8 1.7-15.4 6.3-22.3 6.4-9.4 12-19.3 18-29 2-3.6 4.6-7 6.7-10.7.7-1.4 1.3-3.3 1-4.7-1.7-6.8.2-11.4 6.7-13.3 3.3-1 5-3 6.3-5.4 5-8.7 9.7-18 14.5-27 .3-.2.2-1 .5-2l-11 4.3c-3 1.2-6 2.4-9 3.8-6 3-8.3.5-9.6-6-1.2-5.4-.3-11 5.3-15.2 9-7 19-12.6 29-17.8 8.5-4.5 17.8-7.3 27-10.2 12.8-4 26-5.6 39-6.5 11-.7 22 1.5 32.4 5.2 11.8 4.2 23 9.2 34 14.7 5.3 2.7 9.5 7.3 14 11 1.5 1 3 2 5 3.8l-2.3-8.6c-1-4.8.7-8.2 5.6-8.7 10.2-1 19.4 1 23.8 12.4 4 10.6 5.6 21.3 7.6 32 .7 3.4 1.6 6.7 2.2 10l3 17.7c3.6-6.2 6.7-11.7 10-17 3.7-5.7 7.5-11.2 11.4-16.7 4.5-6.2 9.5-11.8 13.3-18.3 5.4-9 13-16.4 20.2-23.6 9.3-9 20.4-16.2 32.3-22 8.5-4 17.4-7.2 26.7-9 5-1 10-1.5 15-1.4 10.5 0 21.2-.4 31.7 2l2.8.3c3.6 0 7 .2 9.2 4 3.5-2 6.4-4.6 9.8-5.6 7-2.2 14.4-4 21.7-5 5-.8 10.2-.3 15.3 0 5 .5 9.6 1.4 14.3 2.3 7.8 1.5 15.2 4.2 22.2 8 2.3 1 5 1.7 7.5 2.8 6.5 3 13 5.6 19.3 9 4 2.2 7.6 5.2 11 8.4 6.6 6.3 13 13 19.4 19.6.2.2.7.2 1.6.6l6-7.3.8-1.6c5.7-8 10.8-16.2 17-23.7 5-6.3 11-12 18.7-16 9-4.4 24-4.4 31.8 2.2 3.7 3 7.3 6 10 10 6 8.6 5.5 23.4-.7 30-5.4 5.4-9.6 12.2-15.2 17.7-5 5-11 9-16.7 13.3l-8.6 7c10.3 8.5 20.3 16.5 30 24.8 8 6.6 15.8 13 22.7 20.5 7.5 8 13.8 16.8 20.5 25.3 3.8 4.6 7.4 9.4 10.8 14.2 2 2.7 3.4 5.7 4.7 8.7 1 2.5 1.2 5.4-1 7.5-2.6 2-5.3 1.8-8.2.5-8.3-3.8-14.6-10.2-20.2-17-9.4-11.4-18.2-23.5-29.7-33C632.4 337 622 328 610 322c-6-3-12-6.6-18.4-9.5-4-2-8.6-3-13.3-4.5l-15 27c-3.8 6.8-8 13.5-11.7 20.4-3.7 6.8-7.6 13.5-11 20.4-2.5 5.5-7.2 9-11 13.3-.7 1-3.3 1-4.6.7-3.3-1.5-6.3-3.6-9.4-5.6-2-1-3.7-2.6-5.6-4-1-4 .3-7 3-10.5 4.7-6.4 8.8-13.3 13-20.2 7-12.2 13.7-24.5 20.6-36.7l11.2-20.2c-.8-.5-2-1.4-3-1.8-4-1.3-5.5-4.5-6.4-7.7-2.7-9.8-8.5-17.4-15.8-24-4.2-4-9-7.2-13.6-10.6-6.7-4.8-14.5-6.7-22.5-8.6-10-2.2-19.8-3.8-29.8-2.7-7.2 1-14.3 2-21.4 4.5-10.6 3.6-20.3 8.7-29 15.8-2.3 2-4.3 2-6.3-.5-.7-1-1.5-1.7-2.2-2.6-3-4-3-7.2 0-11 1-1.5 2.6-2.8 4-4.2l4.8-5.3-.7-1.7zm868 81c-3.7-.8-7-1.6-10.4-2-10.7-1-21.3-1.7-31.8-3-2.4 0-5-1-7-2-3.6-2-3.8-4.3-2-8 2-4.5 6-7 10.7-8 7-1 14-1.6 21.2-1.7 8.2 0 16.5.8 25.6 1.2l6-27.5 6.8-28-7.7-5.3c4.2-7 9.7-11.6 17.2-14 7.3-2.4 14.2-6 21.5-8.4 8.2-2.6 16.5-5 25.3-5.6 9.3-.7 18.4-2.4 27.5-4 8.7-1.4 17.3-1 26 .2 8 1.3 16.4 2 24.5 3.6 6.4 1.3 12.6 3.5 18.8 5.4 3.8 1.2 6.5 4.2 9 7 3.8 4.4 1.2 11.3-4.6 11.8-4.4.4-8.8 0-13.2-.2-.4 0-.8-.2-1 0-7.4 1-14.2-1.3-21.2-2.8-3-.7-6.2-2.3-9.4-2.6-7.4-.6-15-.8-22.4-1-6.5-.2-13-.4-19.5.2-9 .7-18 1-26.5 4.6-3.2 1.3-7 1-10.5 1.3l-19.3 71.2c4.2 2.6 9.3 2.7 14 3.7 13.5 2.8 26.8 6.2 39.4 11.7 6.3 2.8 13 5 19.3 7.7 2.4 1 5 2.8 7 4.8 2 1.5 3.3 3.6 4.2 6 3.3 8.3-.4 12.6-9.4 11-16.4-3-32.3-7.5-48.2-12-10.8-3.3-22-5.7-33-8.5l-17.7 64 6.5-2c25.3-9.6 51.2-14.3 78.3-11.3 4 .5 8 1.3 12 1.6 7 .4 12.2 4.2 17.5 8 3.8 3 2.6 8-2 9.3-6.3 2-12.6 2-19 1.5-10.6-.7-21 .4-31.5 3-12.4 3-24.2 7.6-36 12.2-11.5 4.4-23.2 8.2-34.5 13-5.4 2.4-10.8 4-16.5 5-4 .6-7.2 0-10-3-3.2-3.7-3.3-4-.6-8.4.6-1 1-2 1.4-3 3.4-13.3 6.8-26.6 10-39.8 2.6-9.5 4.8-19 7.4-28.6 1-3.5 2.6-6.8 4-10 0-.5.4-.8.4-1l2.8-17.7" mask="url(#b)"/></g><path fill="#000" d="M970.8 260.8c-5-3-11-2.2-17.3-2.2-7 0-13.2 2.3-18.7 6.2-9 6.6-17.6 13.6-26.4 20.4l-1.7 1.6c-8.5 10.4-17.7 20.3-24.3 32.2-2.7 5-5 10.4-7 15.8-1 3.8-1 8-1.7 12-1.2 6.8 3 16.2 8.7 20 7.6 5.2 15.4 3.3 22.3-.6 6.5-3.6 12.7-8 18.6-12.7 8.2-7 15.4-14.5 21.6-23.2 5.5-8 11-16 16.4-24.3 2.3-3.5 4.4-7.2 6-11 2.5-6 4.6-12 6.6-18 1.5-4 2-8.2-1.8-11.7-1-.8-1-2.6-1.4-4.5zm29.4 14.3c-.2 13-4.8 24-11.2 35-11.2 18.6-25 35.6-40.4 51-11 10.6-23 20.4-37.7 26-5.8 2-11.3 4.3-16.8 6.6-7.6 3-15.2 2-22-1.5-8.3-4.2-15.7-10.3-20.6-18.7-1-1.6-1.7-3.5-2-5.3-2-12-3.2-23.6 1.6-35.3 5.2-12.8 11.8-24.7 18-36.8l1.4-2 18.6-18c.6-.7 1.3-1 1.7-1.7 10.5-13.2 25.6-20 40.3-27.2 6-3 12.2-5.6 18.6-7.5 4.4-1.3 9.5-2 14-1.3 9 1.2 17.5 4 25 9.6 8.4 6 11.8 13.7 11 23.6v3.5zm165.3 72.4c1-2.7 2-4.8 2.6-7 2.7-9.2 5-18.6 7.6-28 3.3-11 6-22 12-32.3 3-5.3 5.2-11.3 8.4-17 3.2-5.6 7.2-11 11-16.7l4.5-6.6c2.3-3.5 4.6-7 8.6-9 2-1 3-2.7 4.5-4 4.5-3.8 9-7.8 13.7-11.3 4-3 9-4 13.8-3.8 2.3 0 5 1.3 6.5 3 2 2 .6 4.7-1 6.8-3.4 4.8-7 9.4-11.7 13.3-6.7 5.4-12.8 11.6-17 19.4-5.8 10.5-12.3 20.6-18 31-2.3 4-3.5 8.5-5.2 12.8-1 2.7-2 5.4-3.2 8-5 12-7 24.8-10.3 37.2-4 16.4-6 33.3-8.7 50-.6 3.4-1.3 6.6-3.8 9.5-3 3.5-6 6-10.8 3.2-1.2-.7-3-.6-4.8-1l.6-3.4c-4.4-8-9.8-15-12.4-22.8-2.6-8.2-5-16.6-9.2-24-4-7.4-4.5-15.8-8.2-23-.4-1-.6-2-1-2.8-4-7.8-8-15.7-12.2-23.4-6-11.2-13.4-21.5-22.5-30.5-5.6-5.6-10-12.2-15-18.3-1.4-1.5-3-3-5-4-4.6-2.6-9.4-5-14-7.5-10.5-5.8-7.5-14.7-.5-20.7 2-1.6 6-1.3 8.8-1 5.3.8 9.6 4 13.7 7 6.2 5 13.2 9.3 17.5 16.4.4.7 1 1.2 1.7 1.6 6.7 5 10.8 12 15.5 18.4 7.8 10.8 13.4 22.8 19.2 34.8 7.2 15 15.2 29.7 23 44.6 0 .5.4.7 1.4 1.5m-370-61c-9 3-18 7-27.6 7-5.7 0-11.5-1.2-17-2.5-8-1.8-15.7-4-23.4-6.5-2.8-1-5.6-2.6-8-4.4-4.3-3-8.5-6.4-12.4-10-3.8-3.7-7.4-7.4-10.5-11.5-3.8-5-3-11.4 1.5-15.7 4-3.8 12.8-3.2 16 1.2.8.8 1 2.2 2 2.7 9 5.2 15.4 14 25.7 17.3 2.2.7 4.4 1.5 6.6 1.8 17.2 2.5 33-1.7 47.6-10.6l7.6-5c6-3.5 9-9.2 11.3-15.5 1-3 2-6.2 3.5-9 2.7-5.4 6.4-6 12-3.2 5.3 2.7 9.6 6.3 11 12.4.5 2.3 1 5.3 0 7.5-3.5 8.4-7.6 16.4-11 24.7-2.8 6.4-4.5 13.2-7.4 19.4-4 8.5-4 18-7.6 26.5-3 7-5 14.6-7.4 22-1 3.2-2 6.5-2.8 10-2.2 9-4.4 18-6.2 27-2.3 11.6-5.2 23-9.4 34.3-1.2 3-3 4.8-6.4 4.8-3.4 0-4.3-2-6-4.5-3.5-5.4-2-11.2-1.5-17 .8-9.4 2-19 3.7-28.5 2-11.8 4.7-23.6 7.2-35.5l8.7-39M429.5 259c6-2.6 11.7-3 17.5-3.3 12-.5 14 6.6 13 15-.6 6-3.2 11.7-5 17.5-2.5 7.5-5 15-7.7 22.4-1.6 4.5-3.5 9-5.5 14 2 .2 3.4.5 5 .5 10.5.7 21 1 31.6 1.8 2.5 0 5 1 7.2 2 3 1 6 3 9 4 4 1 5.6 3.6 6 7.4 0 2.5-.7 4-2.3 6-4.2 5.5-9 6-15.3 5-5.4-.6-11 .3-16.7.3-7.8 0-15.7-.3-23.5-.4H434c-4.4 9-4.6 18-3 27.4.3 2.8 2.6 3.6 5 3.8 3 .3 6 .8 8.6.2 7.6-1.6 15-3.7 22.4-5.6 2.6-.6 5.2-1.5 7.8-1.4 3.7 0 7.4 3.3 8 6.5.6 3.4-1 6.2-3.8 8.5-5.4 4.5-12 5.7-18.6 7.4-8.6 2-17.2 3.7-26.3 3.2-11.5-.7-21.4-5-29.6-13.2-1.5-1.5-2.2-4-2.7-6.2-2-8.6.4-16.8 3-25l2-7-13.2-1.2c-5.3-.7-10.7-1.2-16-2.3-4-.8-5.6-2.8-5-7 .4-4.3 1.8-8.6 2.8-13 6-1.3 11.4-1.8 17-1.4l18.5.6c2.7 0 4-1.2 4.8-4 4-13.5 8.7-27 12.5-40.8 1.5-5 1-10.3 1.5-15.5.2-2 0-3.8 0-6"/><path fill="#000" d="M1064 253.8c5.2-2 9 .4 12.7 4 2.4 2.4 3.2 4.4 2.7 7.6-2 13.4-6 26.3-11 38.8-2.5 5.7-4.4 11.5-7.4 17-4.4 8.2-9.6 16-14.4 24l-5 8.5c-2.7 4-7.3 5.6-11.6 3.8-.8-.3-1.7-1-2-1.8-.6-2.6-1.4-5.2-1.5-7.8-.2-2.7 0-5.3.7-7.7 3-12 6.2-23.8 9.6-35.7 3-10 6.4-20.2 9.5-30.3.5-1.6.5-3.4.5-5.2 0-3 1.3-6 3-8.5 3.2-5.4 7.2-9 14.3-6.8"/></g></svg>
