<svg width="239" height="60" viewBox="0 0 239 60" xmlns="http://www.w3.org/2000/svg" xmlns:xlink="http://www.w3.org/1999/xlink"><title>The New Division logo</title><defs><path id="a" d="M0 30.084V59.94h238.733V.229H0v29.855z"/></defs><g fill="none" fill-rule="evenodd"><path fill="#1A1919" d="M12.047 15.291h12.987v3.985h-4.03v25.075h-4.929V19.276h-4.028v-3.985m24.215 16.244h-4.714v12.816h-4.887v-29.06h4.887v12.301h4.714V15.291h4.93v29.06h-4.93V31.535m7.071-16.244h11.659v3.985h-6.773v8.316h4.844v3.943h-4.844v8.829h6.773v3.987H43.333v-29.06m25.459 10.801v18.259h-4.115v-29.06h4.8l5.272 16.673V15.291h4.072v29.06h-4.286l-5.743-18.259m12.171-10.801h11.658v3.985h-6.772v8.316h4.843v3.943h-4.843v8.829h6.772v3.987H80.963v-29.06m24.173 11.101l-2.743 17.959h-4.586l-3.901-29.06h4.715l2.272 18.43h.043l2.443-18.43h3.986l2.7 18.43h.043l2.229-18.43h4.114l-3.771 29.06h-4.63l-2.871-17.959h-.043m25.243 13.972c2.015 0 2.786-1.199 2.786-2.957V22.191c0-1.714-.771-2.915-2.786-2.915h-2.057v21.088h2.057zm7.673-17.273V36.55c0 4.458-1.843 7.801-7.072 7.801h-7.544v-29.06h7.544c5.229 0 7.072 3.3 7.072 7.8zm2.141 21.26h4.886v-29.06h-4.886zm22.717-29.06l-5.53 29.06h-5.314l-5.53-29.06h4.972l3.344 20.274h.043l3.428-20.274h4.587m1.369 29.06h4.887v-29.06h-4.887zm6.815-6.258v-3.901h4.544v3.987c0 1.629.728 2.572 2.4 2.572 1.543 0 2.229-1.029 2.229-2.572v-1.114c0-1.672-.686-2.701-2.187-4.116l-2.871-2.871c-2.786-2.744-4.072-4.415-4.072-7.758v-.986c0-3.601 2.1-6.386 6.858-6.386 4.886 0 6.815 2.4 6.815 6.6v2.358h-4.457v-2.529c0-1.672-.772-2.486-2.315-2.486-1.372 0-2.315.771-2.315 2.4v.6c0 1.629.9 2.572 2.315 3.943l3.129 3.086c2.657 2.701 3.943 4.33 3.943 7.544v1.415c0 3.986-2.143 6.814-7.115 6.814s-6.901-2.785-6.901-6.6m15.943 6.258h4.887v-29.06h-4.887zm16.974-6.73V22.02c0-1.758-.772-3-2.529-3-1.715 0-2.487 1.242-2.487 3v15.601c0 1.758.772 3.001 2.487 3.001 1.757 0 2.529-1.243 2.529-3.001zm-9.902-.771V22.792c0-4.544 2.229-7.844 7.373-7.844 5.186 0 7.415 3.3 7.415 7.844V36.85c0 4.501-2.229 7.843-7.415 7.843-5.144 0-7.373-3.342-7.373-7.843z"/><mask id="b" fill="#fff"><use xlink:href="#a"/></mask><path fill="#1A1919" mask="url(#b)" d="M215.152 26.092v18.259h-4.114v-29.06h4.801l5.272 16.673V15.291h4.072v29.06h-4.286l-5.745-18.259"/><path d="M2.311 57.688h234.111V2.539H2.311v55.149zM0 60.001h238.734V.229H0v59.772z" fill="#1A1919" mask="url(#b)"/></g></svg>