<svg xmlns="http://www.w3.org/2000/svg" width="239" height="60" viewBox="0 0 239 60" xmlns:xlink="http://www.w3.org/1999/xlink"><defs><path id="a" d="M0 30v30h238.7V0H0v30z"/></defs><g fill="none" fill-rule="evenodd"><path fill="#000" d="M12 15.3h13v4h-4v25h-5v-25h-4v-4m24.3 16.2h-4.8v13h-4.8V15.2h4.8v12.3h4.8V15.3h5v29h-5V31.6m7-16.2H55v4h-6.8v8.3h5v4h-5v8.8H55v4H43.3v-29M68.8 26v18.4h-4v-29h4.7L74.7 32V15.3h4v29h-4.2l-5.7-18.2M81 15.4h11.6v4h-6.8v8.3h5v4h-5v8.8h6.8v4H81v-29m24 11l-2.6 18h-4.6l-4-29h4.8l2.3 18.3 2.4-18.4h4l2.7 18.4 2.3-18.4h4.2l-3.8 29H108l-2.8-18m25.2 14c2 0 2.8-1 2.8-3v-15c0-1.8-.8-3-2.8-3h-2v21h2zm7.7-17.2v13.5c0 4.5-1.8 8-7 8h-7.6V15.2h7.6c5.2 0 7 3.3 7 7.8zm2.2 21.4h5v-29h-5zm22.7-29l-5.6 29H152l-5.5-29h5l3.4 20.2 3.3-20.3h4.6m1.3 29h5v-29h-5zm6.8-6.2v-3.8h4.6v4c0 1.6.8 2.6 2.4 2.6 1.6 0 2.3-1 2.3-2.6v-1c0-1.8-.7-2.8-2.2-4.3l-2.8-3c-2.8-2.7-4-4.3-4-7.7v-1c0-3.6 2-6.4 6.8-6.4 5 0 6.8 2.3 6.8 6.5V24h-4.4v-2.6c0-1.7-.8-2.5-2.4-2.5-1.3 0-2.3.7-2.3 2.3v.6c0 1.5 1 2.5 2.3 3.8l3.2 3c2.6 2.8 4 4.5 4 7.7V38c0 4-2.2 6.7-7.2 6.7s-7-2.8-7-6.6m16 6.4h5v-29h-5zm17-6.8V22c0-1.7-.8-3-2.5-3s-2.5 1.3-2.5 3v15.6c0 1.8.8 3 2.5 3s2.5-1.2 2.5-3zm-10-.7V22.7c0-4.6 2.3-8 7.5-8s7.4 3.4 7.4 8v14c0 4.6-2.3 8-7.5 8s-7.4-3.4-7.4-8z"/><mask id="b" fill="#fff"><use xlink:href="#a"/></mask><path fill="#000" d="M215.2 26v18.4H211v-29h4.8L221 32V15.3h4.2v29H221L215 26.2" mask="url(#b)"/><path fill="#000" d="M2.3 57.7h234V2.5H2.4v55.2zM0 60h238.7V.2H0V60z" mask="url(#b)"/></g></svg>
