<svg data-name="Layer 1" xmlns="http://www.w3.org/2000/svg" viewBox="0 0 352 27"><title>Trollbäck+CO logo</title><path d="M6.15 10.16h-6V5.82h17.21v4.34h-6.07v16.31H6.17V10.16zM20 5.82h9.4a10.18 10.18 0 0 1 3.3.48 6.49 6.49 0 0 1 2.37 1.4 6.67 6.67 0 0 1 1.53 2.15 6.77 6.77 0 0 1 .55 2.79 6.14 6.14 0 0 1-1 3.57 6.28 6.28 0 0 1-2.82 2.24l4.8 8h-5.76l-4.19-7.32h-2.95v7.34H20V5.82zm9.11 9.34a3.06 3.06 0 0 0 2.13-.67 2.4 2.4 0 0 0 .76-1.88 2.31 2.31 0 0 0-.74-1.85 3.16 3.16 0 0 0-2.13-.64h-3.9v5h3.9zM49.47 27a10.68 10.68 0 0 1-4.24-.81A9.1 9.1 0 0 1 42 23.92a10.22 10.22 0 0 1-2-3.43 13.11 13.11 0 0 1 0-8.59 10.23 10.23 0 0 1 2-3.43 9.1 9.1 0 0 1 3.21-2.26 11.48 11.48 0 0 1 8.47 0 9.26 9.26 0 0 1 3.23 2.26 10.14 10.14 0 0 1 2 3.43 13.13 13.13 0 0 1 0 8.59 10.12 10.12 0 0 1-2 3.43 9.26 9.26 0 0 1-3.23 2.26 10.68 10.68 0 0 1-4.21.82zm0-4.16a4.54 4.54 0 0 0 2.18-.51 4.62 4.62 0 0 0 1.58-1.39 6.06 6.06 0 0 0 .94-2.1 11.56 11.56 0 0 0 0-5.26 6.21 6.21 0 0 0-.94-2.11 4.59 4.59 0 0 0-7.52 0 6.41 6.41 0 0 0-1 2.11 11 11 0 0 0 0 5.26 6.25 6.25 0 0 0 1 2.1 4.61 4.61 0 0 0 1.58 1.39 4.54 4.54 0 0 0 2.21.5zM62.4 5.82h5.12v16.34h9.28v4.31H62.4V5.82zm16.88 0h5.12v16.34h9.28v4.31h-14.4V5.82zm16.72 0h10a9.34 9.34 0 0 1 2.81.38 6.28 6.28 0 0 1 2 1 4.87 4.87 0 0 1 1.79 4 4.07 4.07 0 0 1-.75 2.54 4.67 4.67 0 0 1-2.14 1.5v.09a5.13 5.13 0 0 1 2.7 1.87 5.22 5.22 0 0 1 1 3.2 6.18 6.18 0 0 1-.55 2.7 5.32 5.32 0 0 1-1.51 1.9 8 8 0 0 1-5.09 1.47H96V5.82zm9.28 8.18a2.86 2.86 0 0 0 1.79-.53 2.07 2.07 0 0 0 .15-2.92l-.15-.15a2.78 2.78 0 0 0-1.79-.54h-4.19V14h4.19zm.4 8.39a2.84 2.84 0 0 0 2-.67 2.28 2.28 0 0 0 .72-1.72 2.22 2.22 0 0 0-.8-1.87 3.12 3.12 0 0 0-2-.62h-4.51v4.92h4.59zm16.19-16.57h5.26l7.47 20.65h-5.38L128 22.74h-7.23l-1.19 3.73h-5.18zm5 13.27l-1.56-5q-.15-.4-.29-.9t-.26-1q-.15-.52-.26-1.07l-.29 1.07q-.14.46-.27 1a7.15 7.15 0 0 1-.27.9l-1.59 5h4.84zM144.91 27a10.42 10.42 0 0 1-4.16-.81 9.57 9.57 0 0 1-3.23-2.24 10.06 10.06 0 0 1-2.12-3.44 12.1 12.1 0 0 1-.74-4.28 12.43 12.43 0 0 1 .72-4.29 10.12 10.12 0 0 1 2-3.43 9.46 9.46 0 0 1 3.21-2.27 10.33 10.33 0 0 1 4.19-.83 10.52 10.52 0 0 1 3.31.49 8.73 8.73 0 0 1 2.59 1.33 7.21 7.21 0 0 1 2.13 2.49 9.23 9.23 0 0 1 1 3.21h-5.12a3.75 3.75 0 0 0-3.9-3.27 4.63 4.63 0 0 0-2.2.49 4.28 4.28 0 0 0-1.53 1.37 6.41 6.41 0 0 0-.91 2.08 10.66 10.66 0 0 0-.3 2.62 9.39 9.39 0 0 0 .35 2.62 6.35 6.35 0 0 0 1 2.07 4.78 4.78 0 0 0 1.56 1.36 4.28 4.28 0 0 0 2.07.49 4 4 0 0 0 2.79-1 3.84 3.84 0 0 0 1.23-2.47H154a8.1 8.1 0 0 1-5.31 7 11 11 0 0 1-3.78.71zm11.73-21.18h5.12v7.49l7.11-7.49h6.07l-7.94 8.3 8.38 12.35h-6l-6-8.94-1.73 1.82v7.12h-5.12V5.82h.09zM215.08 27a10.43 10.43 0 0 1-4.16-.81A9.54 9.54 0 0 1 207.7 24a10 10 0 0 1-2.08-3.4 12.08 12.08 0 0 1-.74-4.28 12.43 12.43 0 0 1 .72-4.32 10.12 10.12 0 0 1 2-3.43 9.46 9.46 0 0 1 3.21-2.27 10.33 10.33 0 0 1 4.19-.84 10.52 10.52 0 0 1 3.31.49 8.76 8.76 0 0 1 2.59 1.33 7.22 7.22 0 0 1 2.13 2.49 9.23 9.23 0 0 1 1 3.21H219a3.75 3.75 0 0 0-3.9-3.27 4.62 4.62 0 0 0-2.2.49 4.28 4.28 0 0 0-1.53 1.37 6.41 6.41 0 0 0-.91 2.08 10.64 10.64 0 0 0-.3 2.62 9.38 9.38 0 0 0 .35 2.62 6.34 6.34 0 0 0 1 2.07 4.77 4.77 0 0 0 1.49 1.36 4.28 4.28 0 0 0 2.07.49 4 4 0 0 0 2.79-1 3.84 3.84 0 0 0 1.23-2.47h5.12a8.09 8.09 0 0 1-.77 2.92 8 8 0 0 1-1.72 2.37 8.12 8.12 0 0 1-2.82 1.75 11 11 0 0 1-3.82.62zm21.32 0a10.68 10.68 0 0 1-4.24-.81 9.11 9.11 0 0 1-3.16-2.27 10.23 10.23 0 0 1-2-3.43 13.11 13.11 0 0 1 0-8.59 10.24 10.24 0 0 1 2-3.43 9.11 9.11 0 0 1 3.21-2.26 11.48 11.48 0 0 1 8.47 0 9.26 9.26 0 0 1 3.22 2.26 10.14 10.14 0 0 1 2 3.43 13.11 13.11 0 0 1 0 8.59 10.12 10.12 0 0 1-2 3.43 9.27 9.27 0 0 1-3.22 2.26 10.69 10.69 0 0 1-4.28.82zm0-4.17a4.54 4.54 0 0 0 2.18-.51 4.62 4.62 0 0 0 1.58-1.39 6.06 6.06 0 0 0 .94-2.1 11.54 11.54 0 0 0 0-5.26 6.21 6.21 0 0 0-.94-2.11 4.59 4.59 0 0 0-7.52 0 6.42 6.42 0 0 0-1 2.11 11 11 0 0 0 0 5.26 6.26 6.26 0 0 0 1 2.1 4.62 4.62 0 0 0 1.58 1.39 4.54 4.54 0 0 0 2.18.5zm13-17.01h6.88l2.52 9q.14.49.33 1.29t.39 1.55q.23.9.46 1.88h.02q.2-1 .43-1.88t.38-1.55q.2-.79.35-1.29l2.55-9h6.94v20.65H266V13.72q0-.69.06-1.76H266q-.23.9-.41 1.65t-.3 1.29q-.16.62-.25.91l-3 10.7h-4.22l-3-10.67q-.09-.29-.26-.92t-.32-1.3l-.33-1.62v14.5h-4.5V5.82zm25.4 0h9.31a9.89 9.89 0 0 1 3.3.49 6.36 6.36 0 0 1 2.34 1.42A6.14 6.14 0 0 1 291.3 10a7.47 7.47 0 0 1 .53 2.86 7.33 7.33 0 0 1-.49 2.72 6.12 6.12 0 0 1-1.4 2.14 6.43 6.43 0 0 1-2.21 1.4 7.9 7.9 0 0 1-2.89.51H280v6.88h-5.2V5.82zm9 9.72a2.89 2.89 0 0 0 2.14-.75 2.7 2.7 0 0 0 .75-2 2.55 2.55 0 0 0-.75-2 3 3 0 0 0-2.14-.71H280v5.41h3.79zm14.15-9.72h5.26l7.47 20.65h-5.38l-1.21-3.73h-7.23l-1.2 3.73h-5.15zm5 13.27l-1.56-5q-.14-.4-.29-.9t-.26-1q-.14-.52-.26-1.07h-.06l-.29 1.07a10.24 10.24 0 0 0-.27 1 7.64 7.64 0 0 1-.27.9l-1.59 5h4.85zm9.89-13.27H318l6.13 10.38c.08.16.2.38.36.67l.51.87q.29.52.58 1.1h.06v-13h5v20.63h-5.2l-6.07-10.24a7 7 0 0 1-.39-.65q-.25-.45-.48-.94t-.61-1.17h-.06v13h-5V5.82zm26.92 13.04l-7-13h5.58l2.66 5.35q.26.55.49 1.1l.43 1 .43 1h.05q.2-.52.43-1t.46-1l.52-1.1 2.63-5.35h5.41l-7 13v7.61h-5.12v-7.63zM121.24 4.32a2.16 2.16 0 1 0-2.15-2.18 2.16 2.16 0 0 0 2.15 2.18m6.41 0a2.16 2.16 0 1 0-2.16-2.18 2.16 2.16 0 0 0 2.16 2.18"/><path class="cls-1" d="M199.26 13.98h-8.12V5.84h-4.45v8.14h-8.12v4.18h8.12v8.37h4.45v-8.37h8.12v-4.18z"/></svg>