<svg xmlns="http://www.w3.org/2000/svg" viewBox="0 0 352 27"><path d="M6.15 10.16h-6V5.82h17.2v4.34H11.3v16.3H6.16v-16.3zM20 5.82h9.4a10.18 10.18 0 0 1 3.3.48 6.5 6.5 0 0 1 2.37 1.4 6.67 6.67 0 0 1 1.53 2.15 6.77 6.77 0 0 1 .55 2.8 6.14 6.14 0 0 1-1 3.56 6.28 6.28 0 0 1-2.82 2.3l4.8 8h-5.76l-4.2-7.3h-2.94v7.4H20V5.8zm9.1 9.34a3.06 3.06 0 0 0 2.14-.67 2.4 2.4 0 0 0 .76-1.9 2.3 2.3 0 0 0-.74-1.9 3.16 3.16 0 0 0-2.13-.7h-3.9v5h3.9zM49.48 27a10.68 10.68 0 0 1-4.24-.8A9.1 9.1 0 0 1 42 23.9a10.22 10.22 0 0 1-2-3.43 13.1 13.1 0 0 1 0-8.6 10.23 10.23 0 0 1 2-3.43 9.1 9.1 0 0 1 3.2-2.26 11.48 11.48 0 0 1 8.48 0 9.26 9.26 0 0 1 3.23 2.27 10.14 10.14 0 0 1 2 3.43 13.13 13.13 0 0 1 0 8.6 10.12 10.12 0 0 1-2 3.42 9.26 9.26 0 0 1-3.2 2.26 10.68 10.68 0 0 1-4.2.82zm0-4.16a4.54 4.54 0 0 0 2.18-.5 4.62 4.62 0 0 0 1.58-1.4 6.06 6.06 0 0 0 .94-2.1 11.56 11.56 0 0 0 0-5.26 6.2 6.2 0 0 0-.94-2.1 4.6 4.6 0 0 0-7.52 0 6.4 6.4 0 0 0-1 2.1 11 11 0 0 0 0 5.26 6.25 6.25 0 0 0 1 2.1 4.6 4.6 0 0 0 1.6 1.4 4.54 4.54 0 0 0 2.2.5zM62.4 5.82h5.12v16.34h9.28v4.3H62.4V5.83zm16.88 0h5.12v16.34h9.28v4.3h-14.4V5.83zm16.72 0h10a9.34 9.34 0 0 1 2.8.38 6.28 6.28 0 0 1 2 1 4.87 4.87 0 0 1 1.8 4 4.07 4.07 0 0 1-.75 2.54 4.67 4.67 0 0 1-2.14 1.5v.1a5.13 5.13 0 0 1 2.7 1.86 5.22 5.22 0 0 1 1 3.2 6.18 6.18 0 0 1-.5 2.7 5.32 5.32 0 0 1-1.5 1.9 8 8 0 0 1-5.1 1.47H96V5.82zm9.28 8.18a2.86 2.86 0 0 0 1.8-.53 2.07 2.07 0 0 0 .14-2.92l-.15-.15a2.78 2.78 0 0 0-1.8-.54h-4.18V14h4.1zm.4 8.4a2.84 2.84 0 0 0 2-.68 2.28 2.28 0 0 0 .72-1.72 2.22 2.22 0 0 0-.8-1.87 3.12 3.12 0 0 0-2-.62h-4.5v5h4.58zm16.2-16.58h5.25l7.47 20.65h-5.38L128 22.74h-7.23l-1.2 3.73h-5.17zm5 13.27l-1.57-5-.2-.9-.2-1-.2-1.1-.3 1-.25 1a7.15 7.15 0 0 1-.27.9l-1.6 5h4.8zM144.9 27a10.42 10.42 0 0 1-4.15-.8 9.57 9.57 0 0 1-3.23-2.25 10.06 10.06 0 0 1-2.12-3.44 12.1 12.1 0 0 1-.74-4.2 12.43 12.43 0 0 1 .72-4.3 10.12 10.12 0 0 1 2-3.4 9.46 9.46 0 0 1 3.2-2.2 10.33 10.33 0 0 1 4.2-.8 10.52 10.52 0 0 1 3.3.5 8.73 8.73 0 0 1 2.6 1.35 7.2 7.2 0 0 1 2.13 2.5 9.23 9.23 0 0 1 1 3.2h-5.1a3.75 3.75 0 0 0-3.9-3.3 4.63 4.63 0 0 0-2.2.5 4.28 4.28 0 0 0-1.5 1.37 6.4 6.4 0 0 0-.9 2.06 10.66 10.66 0 0 0-.3 2.6 9.4 9.4 0 0 0 .4 2.6 6.35 6.35 0 0 0 1 2.08 4.78 4.78 0 0 0 1.6 1.38 4.28 4.28 0 0 0 2.1.5 4 4 0 0 0 2.8-1 3.84 3.84 0 0 0 1.2-2.42h5.1a8.1 8.1 0 0 1-5.3 7 11 11 0 0 1-3.8.7zm11.74-21.18h5.12v7.5l7.1-7.5h6.08l-7.94 8.3 8.38 12.35h-6l-6-8.94-1.73 1.82v7.12h-5.12V5.82h.1zM215.08 27a10.43 10.43 0 0 1-4.16-.8 9.54 9.54 0 0 1-3.22-2.2 10 10 0 0 1-2.08-3.4 12.08 12.08 0 0 1-.74-4.28 12.43 12.43 0 0 1 .72-4.32 10.12 10.12 0 0 1 2-3.43 9.46 9.46 0 0 1 3.2-2.27 10.33 10.33 0 0 1 4.2-.84 10.52 10.52 0 0 1 3.3.5 8.76 8.76 0 0 1 2.6 1.32 7.22 7.22 0 0 1 2.13 2.5 9.23 9.23 0 0 1 1 3.2H219a3.75 3.75 0 0 0-3.9-3.27 4.62 4.62 0 0 0-2.2.5 4.28 4.28 0 0 0-1.53 1.4 6.4 6.4 0 0 0-.9 2.1 10.64 10.64 0 0 0-.3 2.6 9.38 9.38 0 0 0 .34 2.6 6.34 6.34 0 0 0 1 2.1 4.77 4.77 0 0 0 1.5 1.4 4.28 4.28 0 0 0 2.1.5 4 4 0 0 0 2.8-1 3.84 3.84 0 0 0 1.2-2.5h5.1a8.1 8.1 0 0 1-.7 2.9 8 8 0 0 1-1.7 2.4 8.12 8.12 0 0 1-2.8 1.8 11 11 0 0 1-3.8.6zm21.32 0a10.68 10.68 0 0 1-4.24-.8 9.1 9.1 0 0 1-3.16-2.3 10.23 10.23 0 0 1-2-3.43 13.1 13.1 0 0 1 0-8.6 10.24 10.24 0 0 1 2-3.43 9.1 9.1 0 0 1 3.2-2.26 11.48 11.48 0 0 1 8.48 0 9.26 9.26 0 0 1 3.22 2.27 10.14 10.14 0 0 1 2 3.43 13.1 13.1 0 0 1 0 8.6 10.12 10.12 0 0 1-2 3.42 9.27 9.27 0 0 1-3.22 2.26 10.7 10.7 0 0 1-4.28.82zm0-4.17a4.54 4.54 0 0 0 2.18-.5 4.62 4.62 0 0 0 1.58-1.4 6.06 6.06 0 0 0 .94-2.1 11.54 11.54 0 0 0 0-5.26 6.2 6.2 0 0 0-.94-2.1 4.6 4.6 0 0 0-7.52 0 6.42 6.42 0 0 0-1 2.1 11 11 0 0 0 0 5.26 6.26 6.26 0 0 0 1 2.1 4.62 4.62 0 0 0 1.58 1.4 4.54 4.54 0 0 0 2.18.5zm13-17h6.88l2.52 9q.14.48.33 1.28t.4 1.6l.45 1.9h.02q.2-1 .43-1.9t.38-1.5q.2-.8.4-1.3l2.6-9h7v20.6H266V13.7q0-.7.06-1.76H266q-.23.9-.4 1.65t-.3 1.3l-.26.9-3 10.7h-4.22l-3-10.7q-.1-.3-.26-.9t-.32-1.3l-.34-1.6v14.5h-4.5V5.8zm25.4 0h9.3a9.9 9.9 0 0 1 3.3.48 6.36 6.36 0 0 1 2.35 1.5 6.14 6.14 0 0 1 1.55 2.2 7.47 7.47 0 0 1 .53 2.9 7.33 7.33 0 0 1-.5 2.7 6.12 6.12 0 0 1-1.4 2.2 6.43 6.43 0 0 1-2.2 1.4 7.9 7.9 0 0 1-2.9.5H280v6.9h-5.2V5.8zm9 9.7a2.9 2.9 0 0 0 2.14-.74 2.7 2.7 0 0 0 .75-2 2.55 2.55 0 0 0-.8-2 3 3 0 0 0-2.2-.8H280v5.4h3.8zm14.15-9.7h5.26l7.5 20.64h-5.4l-1.2-3.73h-7.2l-1.2 3.73h-5.1zm5 13.26l-1.56-5q-.2-.4-.3-.9t-.3-1l-.3-1.1h-.1l-.3 1a10.24 10.24 0 0 0-.3 1 7.64 7.64 0 0 1-.3.9l-1.6 5h4.84zm9.9-13.3H318l6.13 10.4.36.6.5.8q.3.5.5 1.1v-13h5v20.7h-5.2l-6.1-10.3a7 7 0 0 1-.4-.65l-.5-.94-.6-1.15h-.08v13h-5V5.85zm26.9 13l-7-13h5.6l2.65 5.4.5 1.1.42 1 .43 1h.05q.2-.5.43-1t.46-1l.5-1.1 2.6-5.4h5.4l-7 13v7.6h-5.1v-7.6zM121.25 4.3a2.16 2.16 0 1 0-2.15-2.2 2.16 2.16 0 0 0 2.14 2.2m6.4 0a2.16 2.16 0 1 0-2.15-2.2 2.16 2.16 0 0 0 2.1 2.2"/><path d="M199.26 13.98h-8.12V5.84h-4.45v8.14h-8.2v4.18h8.1v8.37h4.4v-8.37h8.1v-4.18z" class="cls-1"/></svg>
