<svg width="18" height="15" viewBox="0 0 18 15" xmlns="http://www.w3.org/2000/svg"><title>Twitter icon</title><path d="M5.66 15c6.794 0 10.508-5.77 10.508-10.774 0-.164-.003-.327-.01-.49A7.622 7.622 0 0 0 18 1.776a7.23 7.23 0 0 1-2.12.596A3.785 3.785 0 0 0 17.502.277a7.291 7.291 0 0 1-2.345.92A3.647 3.647 0 0 0 12.462 0C10.422 0 8.77 1.696 8.77 3.786c0 .298.032.587.096.864-3.07-.158-5.791-1.665-7.612-3.956-.318.559-.5 1.21-.5 1.903a3.81 3.81 0 0 0 1.643 3.152 3.597 3.597 0 0 1-1.673-.474v.048c0 1.834 1.273 3.365 2.962 3.713a3.618 3.618 0 0 1-1.667.065c.47 1.504 1.833 2.599 3.45 2.63A7.295 7.295 0 0 1 0 13.299 10.268 10.268 0 0 0 5.66 15" fill="#1DA1F2" fill-rule="evenodd"/></svg>