<svg xmlns="http://www.w3.org/2000/svg" viewBox="0 0 600 509"><g fill="#000" fill-rule="evenodd"><g fill-rule="nonzero"><path d="M502.7 413.7c-18.3 5-37.8 6.5-55.6 12.5 30.2-25.8 28.5-65.7 48.5-96 6.4-8.7 11.7-17.7 19.2-26-12.2 24.6-7 56.4-21 80.2-5.4 9.4-13 18.6-21.6 26 3 0 5.3-2.5 7.7-4 22.8-23 52.6-29.2 77.2-47.7 9.8-8 19-18.2 23.2-29.3-4.7 37.7-42.2 73-77.5 84.3zM549.8 307.7c1.2-12.7 2.7-28.4-2.3-40.5-8.6-26-16.2-52.5-18.6-81l.2-11c6.5 29.2 35.2 49.2 33.3 82 .7 8-1.7 14.6-3.2 21.6l.5.5 1.2-1.4c4.3-16.2 6.4-33 13-48 9.4-21.6 21.2-43.3 16.4-69.4 14.3 30.7 10 71.7-5.7 100.4-11 15.8-24.6 30.6-35 46.7z"/><path d="M567 95.6c19 25.5 23 66 9.4 95.3-5 12.3-8.7 25.5-10.7 39.2-1-2.4-1.2-5.5-2-8.2-7.5-28.6-34.6-49-45.7-76-3.5-8.7-6.6-17.8-8.2-27.4 12 22 41.2 33.3 49 57.6 3.4 6 3.2 13.7 5.3 20.3.5 0 1-.3 1-.7-3.6-25-2.5-51 1-75.7-.3-13.3-1.6-26.2-9-36.6 4.7 2.8 6.8 8 10 12.2z"/><path d="M554 90.8c4.8 22.3-2.4 44 2.2 66.6h-.2c-12.2-23.7-38-35-55.7-54C490 91.8 485.6 78 483 63.3c10.2 24.6 37.6 30 53.3 50.6 5.3 4.8 7 11.4 10.4 16.8l.6-.5c-9-19.4-12-41-18.4-61.7-3.3-9-9.6-17.8-18-23.4 20.7 4.2 38.6 25.8 43 45.6z"/><path d="M498.6 39.6c15.6 14 22.6 32 27.2 50.6l2.6 6c-22.6-16.3-43.2-38-57.6-61.2l-17.6-17.8c15.5 6.5 32.2 10.5 45.4 22.4zM141.8 20c-15.6 13.8-26.5 31-38 47.3C93.4 80 80 88.6 68.3 99.7c6.4-13.2 6.6-29 15.6-41 12.7-22.4 36.5-30.3 57.8-38.6z"/><path d="M56.4 67.8c7.6-9.4 17.2-16 28-18.8-21 14.5-19.6 40.4-26.3 62-2 8-5.7 15.2-7.6 23.4l.6.4c3.5-9.2 9.6-18 17.3-25.5 15-13.8 37-22.4 44.4-42.8-.3 28.4-24 50.7-46.6 66.6-9.3 8.3-18.3 17.7-23.4 28.2-.5-7.2 1-14.4.5-22-2.3-24.8-4-53 13.4-71.4z"/><path d="M13.8 152.5c-.6-25 9.8-45.6 24.5-64.3.4-.2.7-.6 1.2-.5-16 24.5-2.7 55.4-3.5 83.3l-2 28.6c.2.2.2 1 1 .7 1-3 1-6.5 1.8-9.8 3.8-23 23.8-39.4 41.3-55.3 3.8-4.2 7-8.4 9-13.3-1.4 11.3-5 23-9.8 33.5C63.6 182 38.5 203.8 34 234.2c-2.3-29-22.2-51-20.2-81.7z"/><path d="M1.6 188c1.8-7.7 3.2-15.8 6.6-23-6.5 33 15.8 57 23.2 85.8 3 10.7 3.8 22.3 8 32.4.6.2 1-.2 1.2-.6-11-30.5 4.8-59 20.6-82.8 3.8-6.5 6-13.7 8-21 1.6 13.7-2 29.6-4 44C61.6 241 56 258.3 51 276c-3.3 11-2.5 23.6-.8 35.2l-1.5-1.3C37 288.5 14 272 7 248.5 1.6 230-2 208.4 1.7 188z"/><path d="M.5 253c2.6 35 40.4 53.6 58 82.7 4 6 7.7 12.6 13.2 17.6-1-3.8-4.4-7-5.6-10.8-6-12.2-8.3-26.7-6.8-41.5 1.7-18 9.2-34.6 6.3-53.5C81 280.7 76.2 322.2 85 358c2 8 6.7 15 9.6 22.6C63 359 20 338.6 5.8 299c-6-13.6-6.5-30.5-5.3-46z"/><path d="M19.4 333.6c17.7 40 62 43.2 91.5 67.5 5.3 5 11 9 17.2 12l.3-.4c-6.8-6-14.7-13-19.4-21-17.3-24.2-11.2-58-24-84 11.7 14.2 22.4 29 29.5 45 10.6 26 14.7 55.6 39.2 75.4-26.6-8.8-57.6-6.3-81-22.7C47 389.6 24 363 19.3 333.6z"/><path d="M64.8 408c28.3 32.2 74.5 21.5 112 30 5.5.7 10.3 2.8 16 2-4.5-3-10.7-2.6-15.6-5.2-29.6-10.4-34-42.3-50-64 20.5 13.7 37.8 32 56.6 49.8 13.6 12 30 17.4 47.2 21-4 1.4-9.6 1-14 2.2-31 7.6-65.3 20-98 9C97.4 446 75.4 429 64.7 408z"/><path d="M448.6 483c-31.8 12-65-.5-90-19.4-10-6.4-19-15.6-32-14.8-4.7 0-9.3.2-13.3 1.3 24.2 11.4 46.7 27 67.2 46.7-3.5 4-8 7.7-12.2 11-19.8-21.2-41.7-41.8-66.2-53.8-4.7.6-9.3 3.5-13.6 5.8-20 12.6-39.8 29-54.6 48.8L221 498c20.4-20.6 43-36.6 67.6-48-24.3-7.8-40 12.5-58.5 23-21.3 14.8-52 21.8-78 11.5-14-5.3-27.4-13-37.5-25.7 20.4 14 50.7 15.5 74 6.4 31-13.5 63.3-30.6 100.8-22.4 6 0 11.5 6 17 1 28-7.3 59.5-2.3 83.5 10.4l24.7 10c23 8.5 52.7 6 72.4-8-10.2 12.7-24 21.7-38.4 27z"/><path d="M482.8 450c-35.8 13.6-71.8-3-106-8.5l-6.7-.8v-.2c16.5-3.8 32.4-8.6 45.5-20.4 19.2-18.4 36.3-37.4 57.6-52-15.7 20.3-17.4 49.2-43.5 62.3-6.5 4.2-14.6 5-21.3 8 9.5.4 18.2-3 27.6-4 35-5.5 75.2 0 99.8-29.7-9 20.8-32 38.2-52.8 45.5zM547.8 349.4c-14 9.3-28.5 18-42 28.4v-1.3c20.8-34.6 10.6-82 23.4-120l4.8-12.8c-2.7 23.7 7.6 43.7 7 67.5-.8 14.4-5.5 27-13 38.6h1.2c10.2-13.4 18.2-27.6 30-40.4 18.6-17.8 37.3-36 39.8-60.8 6.3 41.3-17 77.5-51.2 100.8z"/></g><path d="M296.8 259.5h6.4v161h-6.4M262 243.6l4.5 4.6-114 113.7-4.4-4.6M251 210v6.5l-161-.2V210M266.4 179l-4.6 4.6L148 69.8l4.6-4.6M303 165.8h-6.3l.2-161h6.3M335.3 181.2l-4.5-4.5L444.8 63l4.5 4.5M347.8 217v-6.4l161-.2v6.4M329.2 249.8l4.5-4.5 114 113.7-4.6 4.5"/><path d="M360 52.2c88.7 33.2 133.7 132 100.6 220.7-33 88.5-132 133.6-220.6 100.4-88.7-33-133.7-132-100.6-220.6C172.4 64 271.4 19 360 52.2zm-2.6 7c85 31.7 128 126.3 96.3 211-31.7 85-126.3 128-211 96.3-85-31.7-128-126.3-96.4-211 31.8-85 126.3-128 211-96.3z"/><path d="M346.3 89c68.3 25.6 103 101.8 77.5 170-25.5 68.5-101.7 103.2-170 77.6-68.4-25.5-103-101.7-77.6-170 25.5-68.4 101.7-103 170-77.6zm-2.6 7c64.4 24 97.2 96 73 160.5-24 64.5-96 97.3-160.4 73.2-64.4-24-97.2-96-73-160.5 24-64.5 96-97.3 160.4-73.2z"/><path d="M333 124.7c48.6 18.2 73.3 72.4 55 121-18 48.7-72.3 73.4-121 55.3-48.6-18.2-73.3-72.5-55-121 18-48.7 72.3-73.5 121-55.3zm-2.5 6.4c45.2 17 68 67.3 51.2 112.4-16.8 45-67 68-112.2 51.2-45.2-17-68-67.2-51.2-112.3 16.8-45 67-68 112.2-51.2z"/><path d="M318 165c26.4 9.8 40 39.3 30 65.8-10 26.4-39.4 40-66 30-26.4-10-40-39.4-30-66 10-26.4 39.5-39.8 66-30zm-2.7 6.8c22.7 8.5 34.2 33.7 25.7 56.4-8.4 22.6-33.7 34.2-56.3 25.7-22.7-8.6-34.2-33.8-25.7-56.5 8.4-22.7 33.7-34.2 56.3-25.7z"/><path d="M400 26.8c103.7 57 143 186.7 88 289.4C432.6 419 303.6 456 200 399 96.3 341.7 57 212 112 109.4 167.5 6.8 296.4-30.3 400 26.8zm-3.6 6.8c100 55 137.8 180 84.6 279C427.8 411.3 303.6 447 203.6 392c-100-55-137.8-179.8-84.6-278.8 53.2-99 177.4-134.6 277.4-79.6z"/><path fill-rule="nonzero" d="M425.4 316.8c.6.8 2.5.6 3.4.3 2.4-.8 4.7-4 5.8-6.2.7-1.2 1.3-2.6 1-4l-1.6-5c-.4-1.8-1-5-2.8-5.6.2-.5.8-1.2.7-2-.5-1.8-3.8-1.3-5 0-.6.8-.4 2.4-.5 3.3 0 1.8-.6 5.4-1.3 7-.7 1.6-2.7 3.8-2.7 5.6 0 1.4 1.5 2.2 2.7 2.3 0 1-.3 3.8.2 4.5zm-70.8-48l.2 2.3-.2 2c2.4-.5 4-1.3 6-2.2.6-.2 2-.8 2.4-.4.7.4.3 1 .2 1.5-.4 1-1.8 2.6-2.3 3.3-2 2-4.6 2.2-6.8 4-1.2 1.4-1.5 2.5-2.8 3.7-1.2 1.3-2 1.6-2.6 2-.6.8 0 1.2-1.4 2l.7-1.7c-.5 0-1.4 0-2-.7-.2-.6-.3-1.3-.2-2 .3-1.3.6-5 1.4-6l2.6-1-.3 1.4c.6 0 1.7-.2 2-.5 1.2-.3 2.3-2.6 3-3.5l-3 1c.4-1.3 2-4 3-5zm-59.2 6.8c-.4 2 .8 1.2 1.6 2 .5.5.6 1 .6 1.8l-1.7.4-1 1-1 1.4 3 .8c-1.4.6-2.3.4-3.2 2l3.7-.5c2.5 0 4.3.5 6.6-.8l-.4-.4.7-2-1.7-1-.6-1.3-2.8-3.3-1-.4c1-1 2.5-2.7.2-3l-1-.2 1-1c-1.5-.2-2.6-.4-3.6.6-1.2 1.5-1.2 3.2.6 4zM273.7 225l.8.5c1.6-1.5 2-2.4 3-4 1-1 1.8-1 2.4-1.6.3-.6.2-1 .4-1.7.3-1 1-1.2.8-2.8 0-1.3-.8-3.3-2.3-3l-.5-1c-.6 0-1.7.4-2.3 1-.6.4-.3 1.3-1 2-1 1.2-2.8 1.8-3.2 2-.7.3-.4 1-1.4 1.8-1.5 1-2.4.4-3.3.7-1 .3-2.7 2-3.5 2.8-1.2 1.4-1.5 2.3-2 4-.2.4-.5 1-.3 1.5.3.4 1 .4 1.4 0 .7-.2 2.6-1.2 3.3-1 .7 0 1 .3 1.4.5.7 0 1 0 1.6.3.5.2 1 1 1.5 1.3 1 .5 2.3-1 2.7-1.8 0-.5.3-1 .2-1.6zm-6-18.5c1.5 1.4 1.6 1.6 3.5 1.4-.3 1.3-2 3.5-3.5 2.5-1-.6-1-1.5-1.5-1.7-.7-.4-.7 1.2-1 1.7-1 1.6-2.6 1.6-2.8 4.2l.8-.5c1 1.7 2.5-.2 3.5-.7-.2.2-.6.7-.7 1.2-.2.6.5 1.2 1.2 1 .6-.3 1.4-1.5 2-2 .6-.5.8-.5 1.5-.8l2-2c1.8-1.4 2-.5 2.6-2.8v-1c-.8-2-4-.4-4.2-.6l-1.3-.3c-.4-.2-1.3 0-2 .2zM402 154.7l-3-1c0 1.5.6 4 2 5l2.3 2c2 1.5 4 3.4 5.7 5.2 1.5 1.8 1.6 2.4 2 3.3.6.4 1 .8 1.7.5.5-.2.6-1.4.7-1.8l.8-1.4c.3-1.2-.6-3-1-4l-1.6-3.2c-.6-1.5-1-2.8-2-4-1.7-1.7-3-1.5-5-2l-2.4-1-.2 2.3zm-86.4 7.8c0 2.8-15.5 5.6-16 6-.2 2 .3 3.2 1.4 4-2.2.5-2 2.2-1.7 4.2 0 1 .5 5 .8 6 .5 1 2 2 3 2.3.8.4 2 .5 2.6.5v-2.7h.8l.7 2h1l3.2 1c.3.7-.3 1.8-.2 2.5.4 1.5 2 1.8 3.3 1.7v2.5c0 1-.5 1 .8 3.5.4.4 1 1.5 1.6 1.4.7 0 2-1.8 3.5-2.6.5 1 .5 1.4 1.5 2l-.4 1 2.6-1.5c-.7 3.4-2 2.7-3.7 4.8-.6 1.3-.3 2.4-.6 3.5l1-.3.7-.3c2-.5.6 2 .6 2.3 0 .7.5 1 1 1l-1 .8.6 1.6-4 .4c-5 2.7-8 4.6-8.3 5.6 1 .4 2.6-.2 3.7-.3 1-.3.8 0 2-.4l.7 1 5 1.7c1 .4 2-.2 2.6.2 1 .5.6 1.7 2.2 2 1.8.5 3.3-.6 4.8-1l-1.8 2 .8 1.5 2.2-.6c-1.6 1.6-1.5.2-4.6.5l3.3 1.5c1 .3 1.6-.2 3.2.4 1.4.3 3 1.3 3.5-.8.3.4.5.8.8 1 .7.4 1 .4 1.8.6 1 0 3 1.5 3 2.6l-.6.7-1-2c-1.4-1.3-3.3-.7-5-1l-3-1H331c-1.2-.2-2-1-3.3-1-.5.2-1 .4-1 1 0 .3.5.7.7 1 2.2 1.8 10.4 2.8 10.8 3l-3.8 1.6-3-.3c.7 1.3 1 1.5 0 2.7l-.6-.8c-.6.7-2 4.5-3.3 4.3-1.3-.3-1.5-1-2-1.3-1-.6-1.3-.5-2.4-.2 1 1.3 1.3 1 2.5 1.6 1 .7 3.4 2.7 4 3.5 0 0-.3 0-.5.5-.4.5 0 2.4.6 3 .5.5 1 .7 1.6.6l-2.7 2.5c1.2.4 1.6 0 2.6 1h-2l-3-2-3-1.3c1 0 3 0 4-.4 1.8-1 1-3.2-.6-4.4-1-.7-1.6-.6-2.7-.8-1 0-2.3-.6-3.2-.6l-2.4.5.3-.6-4-.8-.2 1.2c-.5-1-.5-1-1.4-1.5l.7 3-.3.6c-1.3 1-1.2 3-1 4.4.2 2.7-.4 3.4-.6 5.4 0 1.6.4 2.2 0 4.5 0 1-4 8-4.4 8.6-.4 1 0 1.3.4 1.7.4 1.3-.6 1 1 2.8v1c-.4 1.5.6 2.5 2 2.2 1.2-.4 2.4-1.8 2.7-3l3.5 5c.5.5.6 1.6 1.5 1.7 1 .2 1.3-.7 1.6-1.5.4-.5 1-.8 1.2-1.3.6-1-.5-2.8-.4-4 0-1 .8-1.4 1-2.5-.3-1.5-1.5-2-2.2-2.7-.8-.8-.4-10.2-.5-11 0-.8 0-1.4.7-1.5 1.5-.4 1.7 1.4 1.8 2.5.2 4.3.4 6.7.6 7 .5.7.6 1.4 1 1.8.5.2.7.4 1.2.3.5.2 1 .4 1.4.4 1-.4 2.2-2.5 3.2-3.2.6-.5 1.5-.4 2.2-.5-.4.8-1.4 2-1.8 2.4-.8.6-2.3 1-2.4 2.3-.5 1.8 2 1.6 2 3-.2 1.3-2 0-2.4 1.2-.8 1.4.2 2.2.5 3.3 0 .7-.3 1.4-.4 2-1 1.7-1.7.7-3 1.5-1 .5-2.2 2.2-3.3 2.5-.8.3-1.6-.3-2.2-.3-1 0-1.7 1.5-3 .3-1.6-1.4 0-2.2-.3-3.5l-1-2.2c-1 .8-2.4 1.8-2 3.5.7 1.5 2 2.8 1.4 4-.7.4-2 .6-3 1.3-1.4.8-2.6 3.8-5 4.5l-2.2 2.3c-.2.2-7 .8-7.4 1.8-.3.8 1.5 1.3 2 1.4 2.8 1.4 0 5.8-1 5.7-2-.2-5.2-1-7.2-1-2.7.2-1.8 2-2.3 3.3-.3 1-1 1.4-1.2 2-.2.3 16.4 2 17.2 1.2 1-1 3-1.3 4-2 .8-1 .2-2 1.7-2.7 1-.3 2.3.4 3.8 0 1.3-.5 2.7-2 4-2.3 1.3 0 2.2 1.4 4 2 3.7 1.8 5.3 2.8 4.7 3 .2 0 6.3-4 5-4-.7 0-1-.6-1.6-.7-.7 0-1.3.5-2.2.2-.7-.2-1.5-.8-2-1-1-.3-2.7-.6-2.6-1.7.2-.5.4-.7.8-.8.2-.2.5-.2.7-.3l.3 1c2.4-1 1.6.2 3.6.5 2 .5 4-.2 6 .6.4 4 21.7-3.8 22.3-4.3l2.6-1c1-1 2-1.8 2.7-2.8.4-.5.8-1 1.5-.8 1 .4 1 2.6 1.2 3.5.3.5.6 1.4.7 2 0 3-3.6 3-5 5-1.3 1.8-9.7 6.2-12 6.8l-4.5 1c-1 .4-2.2 1.4-2.6 2.3-.4 1 0 2-1 2.7-1 .5-15.4 1-18 .7 1.6-.7 1.4-2.8 1.3-3.2 0-.2-31.2 1.6-31.4 1.7-1.2.2-1.5 1-2.8 1.7-1.3.5-3.7.7-5 1.8-1.6 1-.8 1.8-2.5 2.6-1 .4-3.8.5-5 .6-2.3 0-10.6 3.4-11 4-.4.8.2 1.6.2 2.3l-.3 2c-1.2 1.6-4 3-3.6 5.4.4 1.5 1.4 1.6 3 3-1 11.2 61.3 13 62.5 13.6 3 1.6-2 4.4.2 6.3 1.3 1 5.3 1.3 7 1.8 1 .2 4.6 2 5.3 3 .5.3.6.8 1 1.4.6.6 1.8 1 1.8 1.6 0 .7-1.3 2-1.7 2.4-1 1.3-3.5 4.4-2.2 6.3.6.6 2 1 2.7 1.5l6.4 2c2.7 1 7.8 5 9.4 5l6.6 1.7c2.3.6 1.3 2 3 2.3 4 .3 9.8-3 13-5.2l6.3-3c2.5-1.5 4.8-3 7-4.6 4.4-3.2 8-7.6 10-12.5.8-1.5 3-4.8 3-5.7.3-1.3 4-11.5 3.2-12-1-.4-1.6 0-3.4-.4 1.5-3.8 4-7.4 6-10.7 1-1.4 2.8-4 2.8-5.8 0-2-1.8-2-2.5-3-.8-.5-.6-1-1-1.2-1-.3-2.5.5-3.4.3-.7 0-1.2-.3-1.7-.5-.7-.3-1.5 0-2.2 0-1-3 1.2-8.5 2.2-11.5 2-6.4 4.6-13 3.7-19.7.8-4.2 0-6.3-2.8-6.5-1.3.4-2.5 4.3-3 5.4l-3 5.4c-.8 1.3-1.3 3-2.3 4l-3.2 1.7c-.3-1-1-.8-1.8-.5l-4 2.2c-1 .5-2.5 1.8-3.6 2-1 0-10.6-.7-11.2-.5-2.2 0-5.6-1-8-1.4.5-.2 1-.3 1-.7.2-1.2-1.5-3 .6-3.7h1l14.2-1.4c2.2-.3 3 2 5.4.3 2-1.3 3.6-5.7 4.3-7.7l2-5 .7-3.3c.8-2.5 1.6-3.7 1.3-6.6l-.5-4.2c-.2-1.8-.5-3-2.4-1.3-1.4 1.4-2 3-4 2.8-.7 2.7-.3 6.3-3 7.8-1 .8-2.2.5-3.3.8-.6.3-1.5.8-2 .6-.6 0-1-.3-1.2-1 .2-1 1.7-1.5 2.3-1.8 2-.8 3.2-1.2 4.8-3 1-1.5 1-2.6 1.8-3.8.8-1 1.5-.8 2.3-1.8.6-.7 1.6-3 2.2-4l2.7-8c1.3-2.4 3.5-2.8 4-5.7l.4 1.2c2.3-1.2 2.3-3.4 2-5.6 1.2 0 4 0 5-.2l5-3c1.2-1 3.3-2.4 3.6-3.8.3-1-1-4-1.6-4.5-.3-.4-.5-.6-1-.7-1.2-.4-2.7 0-3.5-1.5-1-1.3-2.2-5.6-3-7.3-1.8-4.5-2-3.6-2.8-5.3-.6-1-.5-2.2-.6-3.3-.4-1-1-1.6-1-2 0-1 .6-1.5 1-2.2 1-1.6 1-3 2-4 .8-.7 1.5-.3 1.8-1 1.4-2-2-3.4-.8-5.5.6-1 2.2-2.6 3.3-2.7.8-.3 1.6 0 2.4-.3.8-.5 1-2 1.2-3 .8-2.3 2.2-2.2 2.5-5.3 0-1 0-2.7-.4-3.6-1-1.2-2.4-.2-2.7.7-.8 1.3-.6 3-.5 4.2 0 1.3-.3 3-1 4.3-1 1.7-3 .5-3.4-.3-.3-.5 0-1-.2-1.4 0-1.7-.5-2.4 0-4.4 0-1 1-3.5.7-4-.2-.5-2.2-2.8-2.7-3.4-1-1-2.8-3.3-4.5-2.3-1.5.8-1.2 3.7-1.4 5.3-.2.6-.5 2-1 2-.6.3-1.3-.3-1.8-.7-1.2-1.2-2-2-2.2-4 .7 0 2.5.6 2.6-.3 0-.8-1-2.3-2-2.2-1-.2-1 .7-2.2 0-1-1-3.2-4.5-4.2-5.7-1.3-1.6-3.2-3-5-4-5.6-2.6-9.5 4-10 4.3-.7.3-1.2 0-1.7-.5-1.3-.8-1.3-1-3-1.5l1.2 2.6c1.3 1.5 2.2 1.4 2 3.7-2-.7-4-1.7-5.2-3l1.7-.7c-.8-.8-3.2-2.6-3.3-3.5 0-.7.8-.7.7-1.4.3-.6-.4-1 0-2 .5-.6 1.8-1.2 1.7-2 0-.5-.5-1-1-1-1-.7-2.6-2-3.6-1-.8 1 0 2.4-.6 4.4-.7 0-2-.7-2.5-1-1 0-2 .5-3.3 0-1.6-.6-8.3-3-10.7-2.4-1 0-3 .2-4 .8-.7.5-1 1.2-1.5 2-1 1-3 1.7-2.7 3.5.4 1.5 1.7 1.6 2.2 2l-7.4 4c-2.6 0-3.5-1.4-5-2.2-1-.2-1.7-.2-2.4-.6-.7-.6-.8-1.2-1-1.4-.6-.7-9.7-1-8.7-1.5l3.4-2c.7-.6 2-1.2 2.6-1.7 1.8-1.5 2.2-6.2 1.8-8.6-3.5 1.4-2.6 1.6-5 3-.7.4-1 .5-1.8.7-.6.4-.7 1-1 1.8-2.4-.2-.7 2.5-1 3.7zm-73-6.6l5.6 1.6c1.6.3 3.2.4 4.3 1.8-3 .3-2.3-.2-4.6-.7-1.4 0-5.5 0-12.3.7-1.5 0-2-1.2-2.8-1.5-1-.7-2-.4-2.7 0-1.5.7-10.2 6.6-12.2 9.2-1.2 2-1 3-2.3 5-1.3 1.6-4.5 3.2-6.6 6-1.5 2.2-1.3 3.5-2 4.3-.3.5-3 2-3.7 2.3l-1.7.6c-.6.5-1 1.2-1.4 2l-2 2.3c-.7 1-3 4.5-3 5.4-.2 1.7 2.3 2.4 1 4.5-.2.2-1.5 1-3.5 0-1.4-.2-3.5 1.5-4.7.5-.7-.8-.4-2-.5-2.8-.3-1-.8-1.5-1-2.4-.7-1-.3-3-1.8-5.2-.8-1.3-1.8-1.6-2.5 0l-.5 1.4c-1-2-.4-3.5-2-3.8-1.3-.2-5.5 3.7-12.5 11.8l-2 1.3c-1 1-1.5 3-2 4.4l-2.2 9c-.6 2-1.4 4.7-3.2 5.3-.6.3-2.7.2-3.3 0-.8-.3-1.3-1-2-1-.6 0-2.4 0-4-.6-1-.8-2.3-2.5-3.2-2.8-1-.4-11.5-3.3-12.5-8.7-1-1-2.2.5-3.3.2-1-.2-3-2.2-4-2.8-.4-.2-2.2-1-2.2 1 0 1.7.4 2 1.4 3.3.3.2 1 1 .4 1.5-1 .8-2.4-2.6-3.5-1-.8 1.3-1.4.4-2-2.7V204l-1.5-3.5-2 1.7c-.3-3.7-1.4-5-3-4-1.6 1.3-2.7 3.2-3.8 4-1.2.8-2.2.2-3 .5-1 .5-1.8 2-2.2 3l-1.6 9c-1.5 7.2-2.5 8.8-1.6 16.3l1 4.2.7 5.7.7 2.8c.4-3 .7-6.7 1-11 1-3 2-3.6 2.2-7.2l.5 3c1-1.4 1-2.2 2.7-3l5 10.2c.5 1.5 1 4 3 4.4.6-1.6.4-3.6.4-5.4.3-.4.3-1.8.8-2 1-.4 1.5 1.6 1.5 2.3.7 1.8 1 4 2.2 5.5 1 2 2 1.6 3.4 4.6 0 1 .6 2 1.7 2.6 0-1-.3-4.7 0-5.4.3-.4 1-.5 1.4-.5l1 7.4c.2 1 .5 2 1 2.7 1.3 1.3 2.7.2 3.3 1.3l1 4c.6 2.8 13.4 22 15 24.2 1 1.5 3.4 3.3 5 4.5 2 2 3.8 4 6.3 5.7l3 2 2.2 1.5c2.2 1 2.4-1 3.7-1 .7 0 3 2 4 2.5 3.6 3.4 14 16 16 16l2 .4c2.4.4 5 1.2 7.3.6 1 0 1.5-.6 2-1 .5-.8.8-1.7 1.7-1.8 1 0 3 1 4 1.4 2.3 1.2 5.6 3 8 3.5 2.6.5 4.4-1.5 4-3.2-.4-1.2-5.5-8.7-15.3-22.5-.2-.3-1.3-3.2-3.2-9-1-2-2.4-6-3.5-7.3 0-.3.5-.4 1.5-.2 1.2-2.6 1.8-4.7 1.8-6.2-.2-3.7-3.6-9.2-4-14-.3-2 1.3-15.8 1-17.2l-1-3.5-.4-6.3c-.3-2.6 1.2-3.8 1.4-5.7 0-1-1-3.2-1.6-3.6-.5-.4-.4-3.7.3-10.2-.3-1.5-1.3-2.3-1.4-3 .3-.6 1-.7 1.7-1.7.8-.8 1-2 1.2-3v-4c.2-1.7 1.7-4 3.7-4.7 2-.4 4 1.7 5 1.6 1-.2 1.7-1.4 2-2l8-2.4c.3.2.7 0 1-.3 1-1 2-4.6 1.3-5.7-.3-.8-1-15.7 9.2-9.5 1.2 1 3.5 3 3.8 4.4 0 .5.2 4-.3 5.4-.7 1.4-2 2.4-2.5 4-.6 2 .5 2 .2 3.6-.5 1.6-2.7 6.2-3.7 7-.8.5-2.2.4-3 .5-1.4.2-2.4 1-3.4 1.5 0 .5.5 3 3 2.2 1.6-.3 4-1.7 5.6-.3 1.4 1.5 2 5.7 3 7 1.4 1 2.2 1 3.6 1.4 1 .3 1.6.7 2.4 1.3 1.7 1.5 3.3 4 4 5l3.3 5.2 2.2-2c.8.8 1.7.7 1.8-.4-.4-2.2 2 5.8 3 6.4.8.6 3.5-3.4 4.7-5 1-1 3-1.5 4.7-3.6-.5-.2-1.8-.8-1.7-1.4.3-1 1.7-1 2.5-1.6 1.2-1 2.2-2.6 2.4-4.2l-2.7-.2-1.6-.3h-2.2c-1-2.2-1.4-3.5-1-3.6.7-.3.7-1.2 1.3-1.7 1-1.5 3-1.8 3-3.7 2 .3 2.3-.2 3.2 0 2 .7 2.5 4 3.3 5.7-2.3-.7-1.8 1.3-2 3 1-.7 2-2 2.8-2.2h3c.6 0 .8-.3 1.5-.6 1.5-.4 2.5.6 3.3 2 .6-.5.8-1.7.7-3.8-1.3 1.5-2.6.5-3.7.4l.8-.8c-2-1.4.2-2 .5-3.2.3-.6 0-1-.2-1.5 3.3-1 5-2 5.4-3 2.3.4 1.5-2.4 3.2-3 .5-.3 1 0 1.6-.2.6-.2 5.7-3 6.3-3.6.4-.5 1.2-1.3 1.3-1.7.2-.7 0-1.3-.2-2.5 3.2 0 .8-2.3.6-2.2l3-2.8.7-2.7-.6-1-2.3.2 2-2.4c1-.7 2-.6 2.6-2-2.2.4-4.8 2.5-6.2 4.2l-2 2.8-2.8 1.6c-3 .3-5.4 0-6.8-1.4-2-2-1.2-1.2-2-.7-4-3-6.2-5-6.7-5.6-1.7-1.6-1.6-3-1.8-5-.3-1.7-1.5-4.2-2-4.8-.5-.7-4.6-4-5.8-4-1.6-.3-2.8.7-4.2.4-1-.4-2.6-1.8-4-2.3-1-.2-2 0-3 0 0-.4 0-1.3-.5-1.5-.7-.4-2 .2-3 .3-.7 0-5.8-1-5.7-.6.8 1 1.4 1.5 1.7 1.5zm189.8-41.3l-4-3.2c-1.4-1.6-3-4.4-5.3-6.4s-4-2.4-6.3-4l-3.7-3.2-6.6-5.5c-1.7-1.4-3.7-3.7-5-5.3-1.3-2-1-2.6-1.7-3.4-.5-.7-2.4-1.4-3.3-1.5l1.6-2.6C381 64.8 369.8 60 364.5 65c-2 .3-6.2.2-7.6 2-1.4 1.8 2 4.8 3.3 6l3.4 3.5c1 1 1.3 1.7 2.4 3 1 .7 3 2 3.7 3 .8 1-.5 1.3.6 2.8.8 1.3 2.7 3 3.3 4.2.3.8.5 2.2 1.2 2.8.7.3 1.5-.2 2.2-.2 1-.3 4.2-2 5.2-1.3 1 .6 4.2 4 5 4.7.4.4 1.4 1.4 1.3 2 0 1.2-3.4 0-2.5 1.4.2.5 2.4 1.6 3 2.2l2.8 2.5 3 2.3c1 .6 1.7 2 2.4 2.3 1.4.6 2-1 3.3-.2 2.3 1 4 4.3 6.5 6.3 1.6 1 2 .8 3.4 1.4 1.2.5 2 1.4 3.2 2.2 2 1 2 .2 4.2 2 3 2.4 5.4 5 8 7.6 1 1 3.4 3.2 4.6 3.6h.6l2.7-1.7c.2-.6 0-1.4.2-2 0-.8.5-1 .6-2 .2-.7 0-2 .7-2.3.6-.2 1.8.8 2.3 1-.6-3.3-2.7-6.5-5.2-9z"/></g></svg>
