<svg xmlns="http://www.w3.org/2000/svg" version="1" width="600" height="508.563"><path d="M502.663 413.685c-18.29 4.898-37.807 6.473-55.57 12.53 30.085-25.796 28.368-65.71 48.44-96.091 6.394-8.603 11.68-17.62 19.132-25.782-12.209 24.492-6.914 56.268-20.94 80.035-5.4 9.441-13.122 18.6-21.66 26.016 2.79-.105 5.231-2.52 7.685-4.133 22.782-22.735 52.546-29.092 77.19-47.563 9.872-7.866 18.914-18.174 23.254-29.323-4.664 37.72-42.189 73.073-77.53 84.31zm82.077-152.719c-11.148 15.862-24.632 30.628-34.93 46.748 1.149-12.763 2.66-28.457-2.31-40.547-8.616-26.036-16.186-52.47-18.628-81.044l.337-10.926c6.484 29.18 35.148 49.239 33.34 81.97.656 7.932-1.798 14.676-3.283 21.652l.492.516 1.292-1.448c4.25-16.055 6.395-32.938 13.005-47.917 9.393-21.556 21.121-43.311 16.342-69.338 14.287 30.685 9.958 71.683-5.658 100.334z"/><path d="M567.145 95.646c18.796 25.472 22.916 66.065 9.226 95.283-5.103 12.382-8.707 25.576-10.711 39.28-.957-2.363-1.175-5.541-2.03-8.175-7.476-28.6-34.524-48.982-45.647-75.947-3.528-8.817-6.535-17.928-8.203-27.5 11.886 21.983 41.179 33.338 49.163 57.565 3.27 6.127 3.086 13.782 5.116 20.37.426 0 .852-.316.852-.749-3.515-24.956-2.442-51.075.945-75.72-.196-13.35-1.499-26.3-8.916-36.634 4.756 2.77 6.898 8.093 10.205 12.227z"/><path d="M553.893 90.756c4.937 22.321-2.274 44.06 2.261 66.595l-.169.194c-12.143-23.878-37.923-35.148-55.66-54.26-10.28-11.34-14.75-25.162-17.321-39.797 10.163 24.504 37.59 29.903 53.335 50.551 5.268 4.76 6.988 11.355 10.384 16.754l.556-.536c-9.055-19.33-12.089-41.083-18.407-61.698-3.163-8.933-9.44-17.71-17.864-23.343 20.67 4.224 38.583 25.803 42.885 45.54z"/><path d="M498.633 39.565c15.567 13.932 22.607 31.971 27.153 50.661l2.57 5.936C505.764 79.912 485.239 58.07 470.812 35l-17.62-17.826c15.49 6.568 32.19 10.488 45.442 22.391zM141.797 20.132c-15.618 13.691-26.45 31.007-38.036 47.153-10.385 12.86-23.67 21.34-35.444 32.397 6.356-13.176 6.588-28.914 15.603-41.018 12.827-22.38 36.615-30.253 57.877-38.532z"/><path d="M56.387 67.81c7.596-9.443 17.226-16.006 28.063-18.777-21.042 14.455-19.673 40.36-26.343 61.894-2.127 7.963-5.82 15.3-7.661 23.462l.535.426c3.502-9.228 9.655-17.947 17.336-25.476 14.944-13.796 37.052-22.394 44.376-42.802-.334 28.36-23.992 50.655-46.63 66.593-9.334 8.19-18.336 17.523-23.476 28.05-.504-7.154 1.057-14.338.548-22.003-2.462-24.756-4.25-53.013 13.252-71.368z"/><path d="M13.813 152.462c-.634-25.087 9.779-45.565 24.452-64.257.426-.213.73-.64 1.278-.536-16.152 24.544-2.79 55.46-3.526 83.367l-2.13 28.573c.316.207.316 1.066 1.066.736.954-3.184 1.162-6.588 1.8-9.863 3.804-23.048 23.82-39.402 41.303-55.33 3.733-4.166 7.034-8.396 8.952-13.285-1.427 11.476-5.025 23.05-9.786 33.664-13.607 26.536-38.743 48.309-43.335 78.69-2.228-29.115-22.05-50.881-20.074-81.759z"/><path d="M1.593 188.137c1.809-7.846 3.191-15.965 6.606-23.165-6.47 33.165 15.837 57.062 23.155 85.81 3.061 10.751 3.81 22.3 8.189 32.389.408.22.762-.206 1.014-.53-10.894-30.537 4.833-58.915 20.636-82.825 3.843-6.478 6.058-13.693 7.97-21.14 1.679 13.821-1.816 29.738-3.824 44.087-3.842 18.259-9.578 35.574-14.571 53.29-3.286 11.071-2.422 23.561-.735 35.16l-1.583-1.265c-11.586-21.365-34.528-38.029-41.341-61.37-5.607-18.608-9.334-40.164-5.516-60.44z"/><path d="M.547 252.913c2.552 35.153 40.354 53.728 57.876 82.83 4.146 5.955 7.744 12.543 13.284 17.528-.865-3.745-4.36-6.896-5.643-10.732-6.13-12.207-8.365-26.752-6.892-41.504 1.698-17.956 9.23-34.618 6.355-53.503 15.397 33.198 10.72 74.636 19.33 110.61 2.254 7.867 6.808 14.893 9.792 22.412-31.635-21.546-74.772-42.045-88.807-81.533-5.915-13.616-6.575-30.472-5.295-46.108z"/><path d="M19.444 333.638c17.639 39.902 61.815 43.208 91.434 67.506 5.45 4.83 11.162 8.939 17.316 11.805l.316-.322c-6.8-6.148-14.666-13.15-19.427-21.12-17.335-24.104-11.238-57.869-24.227-83.793 11.802 14.117 22.534 28.792 29.66 44.808 10.597 26.144 14.647 55.674 39.17 75.437-26.538-8.746-57.63-6.303-81.054-22.644-25.576-15.72-48.402-42.381-53.188-71.677z"/><path d="M64.777 408.078c28.282 32.165 74.494 21.433 112.167 29.85 5.321.727 10.191 2.859 15.831 1.994-4.49-2.842-10.722-2.534-15.624-5.116-29.53-10.375-33.862-42.344-49.892-63.901 20.48 13.6 37.697 31.943 56.59 49.717 13.581 11.896 29.928 17.386 47.153 20.888-4.14 1.512-9.566 1.097-14.008 2.26-30.944 7.61-65.323 20.047-98.139 8.913-21.333-6.717-43.344-23.587-54.078-44.605z"/><path d="M448.632 483.053c-31.87 11.893-65.13-.543-90.02-19.419-10.078-6.405-18.962-15.63-31.997-14.814-4.728-.09-9.287.143-13.305 1.303 24.182 11.253 46.644 26.767 67.182 46.607-3.461 3.952-7.944 7.649-12.166 11.057-19.792-21.325-41.711-41.852-66.253-53.84-4.805.623-9.378 3.514-13.711 5.841-19.98 12.632-39.735 28.882-54.589 48.775l-12.763-10.54c20.37-20.606 42.903-36.647 67.553-48.105-24.222-7.672-40.032 12.619-58.418 22.94-21.425 14.96-52.238 21.985-78.131 11.664-13.925-5.282-27.416-13.06-37.499-25.702 20.378 14.038 50.726 15.51 73.9 6.392 31.097-13.487 63.41-30.585 100.897-22.41 5.85.104 11.535 5.929 17.062.969 27.862-7.235 59.406-2.261 83.394 10.474l24.724 9.91c22.98 8.497 52.69 6.147 72.388-7.855-10.128 12.606-23.962 21.637-38.248 26.753z"/><path d="M482.783 450.123c-35.781 13.511-71.778-3.073-106.062-8.613l-6.601-.84v-.208c16.393-3.72 32.306-8.6 45.355-20.38 19.218-18.474 36.32-37.489 57.662-52.045-15.827 20.292-17.505 49.176-43.65 62.223-6.47 4.234-14.636 4.983-21.313 8.19 9.522.205 18.24-3.207 27.67-4.162 35.058-5.503 75.164.143 99.759-29.722-9.131 20.81-31.998 38.237-52.82 45.557zm65.013-100.675c-14.13 9.249-28.454 17.826-42.033 28.341v-1.291c20.799-34.566 10.631-82.051 23.446-120.092l4.78-12.743c-2.675 23.697 7.618 43.771 6.896 67.55-.723 14.365-5.411 27.102-12.954 38.572h1.278c10.19-13.384 18.148-27.617 30.057-40.365 18.486-17.826 37.28-36.105 39.707-60.842 6.278 41.297-16.895 77.49-51.177 100.87z"/><path fill-rule="evenodd" d="M296.794 259.45h6.412v160.966h-6.412V259.45zm-34.804-15.809l4.53 4.535L152.61 361.91l-4.528-4.538 113.908-113.73zm-10.888-33.532l-.01 6.41-160.966-.192.007-6.411 160.97.193zm15.282-31.045l-4.535 4.531L148.044 69.758l4.535-4.531 113.805 113.837zm36.751-13.221l-6.411-.005.147-160.97 6.412.008-.148 160.967zm32.215 15.355l-4.528-4.539L444.796 62.991l4.529 4.538L335.35 181.2zm12.431 35.825l-.006-6.41 160.964-.203.011 6.411-160.969.202zm-18.585 32.763l4.53-4.54 113.916 113.726-4.53 4.538-113.916-113.724z"/><path d="M360.03 52.232c88.658 33.14 133.714 131.985 100.574 220.637-33.14 88.653-131.986 133.71-220.635 100.57-88.655-33.138-133.706-131.982-100.572-220.636C172.538 64.149 271.382 19.095 360.03 52.233zm-2.594 6.951c84.815 31.705 127.92 126.272 96.219 211.088-31.704 84.818-126.277 127.921-211.09 96.216-84.815-31.701-127.919-126.27-96.217-211.086C178.053 70.585 272.622 27.48 357.436 59.183z" fill-rule="evenodd"/><path d="M346.278 89.031c68.345 25.546 103.071 101.743 77.53 170.085-25.548 68.34-101.749 103.071-170.085 77.527-68.337-25.545-103.072-101.745-77.527-170.086C201.74 98.217 277.94 63.486 346.278 89.031zm-2.608 6.991c64.477 24.102 97.251 96 73.15 160.483-24.103 64.483-96.006 97.254-160.483 73.149-64.483-24.103-97.258-96.002-73.152-160.483 24.106-64.483 96.001-97.255 160.485-73.149z" fill-rule="evenodd"/><path d="M332.935 124.722c48.643 18.182 73.362 72.413 55.183 121.052-18.187 48.638-72.418 73.36-121.053 55.177-48.642-18.182-73.36-72.413-55.177-121.051 18.182-48.638 72.412-73.359 121.047-55.178zm-2.39 6.397c45.11 16.862 68.037 67.157 51.174 112.265-16.864 45.108-67.156 68.032-112.265 51.17-45.107-16.86-68.031-67.156-51.172-112.264 16.862-45.106 67.155-68.032 112.264-51.17z" fill-rule="evenodd"/><path d="M317.93 164.87c26.478 9.898 39.936 39.418 30.037 65.898-9.898 26.475-39.417 39.934-65.896 30.034-26.479-9.896-39.934-39.416-30.038-65.896 9.9-26.477 39.423-39.934 65.896-30.036zm-2.59 6.92c22.664 8.47 34.175 33.733 25.71 56.392-8.475 22.657-33.733 34.171-56.39 25.702-22.66-8.47-34.175-33.732-25.708-56.39 8.472-22.66 33.738-34.174 56.389-25.704z" fill-rule="evenodd"/><path d="M400.008 26.809c103.695 57.064 143.053 186.719 87.846 289.403-55.2 102.687-184.167 139.715-287.86 82.652C96.3 341.8 56.94 212.144 112.146 109.459 167.35 6.772 296.312-30.255 400.006 26.809zm-3.63 6.756C496.31 88.556 534.236 213.5 481.034 312.46c-53.196 98.956-177.48 134.641-277.407 79.65-99.933-54.996-137.859-179.94-84.657-278.898 53.196-98.958 177.479-134.64 277.41-79.647z" fill-rule="evenodd"/><path d="M425.17 312.325c.122 1.101-.256 3.813.258 4.435.532.845 2.518.665 3.378.367 2.351-.884 4.69-3.99 5.776-6.318.764-1.182 1.278-2.566 1.11-4.115l-1.644-4.981c-.41-1.748-.963-4.819-2.826-5.544.174-.462.764-1.185.694-1.847-.43-1.969-3.72-1.452-4.895-.006-.592.723-.424 2.267-.552 3.17-.033 1.789-.534 5.402-1.247 7.028-.713 1.622-2.71 3.81-2.737 5.598.141 1.323 1.562 2.088 2.686 2.213zm-109.457-13.82l.584 1.284c.026.221.29.642.514.623 1.49 1.43 3.578-1.882 1.086-2.326-.225.02-.687-.164-.886.077-.437.042-.88.08-1.298.341zm1.65-3.27c-1.008.979-1.374 1.683.264 2.427l-.263-2.428zm-26.581-19.471c-1.62 1.48-1.497.58-2.325 1.101-.617.498-.103 1.12-.669 2.065-.174.463-.815.743-.764 1.185-.148.682.559 1.064 1.246 1.225.906.14 3.553-.094 4.38-.614.817-.742.496-1.606.869-2.31.198-.24.59-.722.79-.963.096-1.124-2.275-2.473-3.527-1.69zm63.828-6.842l.237 2.207-.257 1.808c2.402-.44 3.88-1.24 6.013-2.101.636-.28 1.908-.841 2.402-.44.707.386.334 1.086.16 1.548-.346.922-1.72 2.609-2.312 3.331-1.792 1.943-4.438 2.181-6.674 4.166-1.202 1.224-1.522 2.367-2.73 3.591-1.2 1.22-2.063 1.523-2.68 2.023-.59.723-.096 1.124-1.347 1.905l.712-1.622c-.68-.164-1.568-.084-2.082-.71a3.116 3.116 0 0 1-.212-1.985c.303-1.365.579-4.959 1.37-5.923.198-.24 1.914-.841 2.55-1.12l-.296 1.365c.661-.058 1.76-.158 2.177-.418 1.08-.32 2.165-2.65 2.73-3.59l-2.992 1.159c.52-1.384 1.997-4.192 3.23-5.194zm-59.171 6.645c-.45 2.05.803 1.266 1.56 2.092.489.4.56 1.063.63 1.728l-1.74.379-.765 1.182-.983 1.204 2.987.848c-1.496.578-2.402.437-3.36 1.863l3.746-.337c2.447.003 4.285.507 6.591-.817l-.488-.4.668-2.069-1.664-.964-.585-1.285-2.8-3.318-.932-.363c.79-.963 2.384-2.669.11-3.131l-1.125-.122.983-1.204c-1.35-.1-2.473-.223-3.482.76-1.182 1.443-1.214 3.229.649 3.954zm-1.304-28.65l-.051 1.564-.514-.622.064 2.669c.392 1.528 2.107.928 2.499.445.418-.259.54-1.165.495-1.605a1.716 1.716 0 0 0-.559-1.064c-.47-.183-.688-.163-1.13-.125l-.142-1.323-.662.06zM112.44 260.989c-.087 3.353.796 3.272 1.544 6.105.389 1.526-.225 2.027.99 5.04.584 1.288.944 2.592 2.338 3.135-.401-3.755-.861-5.942-2.12-9.398-.9-2.15-1.587-2.31-2.313-4.924l-.44.042zm304.598-36.696c-1.053.54-1.426 1.242-1.305 2.344-.103 1.127.874 1.93 1.953 1.61 1.497-.58 1.754-4.395-.648-3.954zm-208.42-.483c-.543 1.166-.646 2.29.552 3.074-.119-1.101.202-2.248-.552-3.074zm65.118 1.074l.736.603c1.618-1.484 1.966-2.409 3.148-3.851.982-1.204 1.644-1.262 2.258-1.763.39-.482.343-.925.49-1.606.348-.925.987-1.205.823-2.75.077-1.345-.8-3.273-2.319-2.914l-.34-1.084c-.662.058-1.741.378-2.355.878-.613.503-.299 1.366-1.108 2.108-.983 1.202-2.698 1.802-3.116 2.062-.639.283-.346.925-1.38 1.687-1.446 1.021-2.4.437-3.258.739-1.08.318-2.678 2.023-3.488 2.765-1.182 1.442-1.525 2.367-2.02 3.973-.173.46-.543 1.163-.276 1.587.266.421.928.36 1.349.1.858-.299 2.746-1.36 3.434-1.198.658-.062.927.362 1.393.543.685.16 1.125.121 1.59.301.462.184.976.806 1.465 1.208 1.172.562 2.354-.88 2.7-1.802.174-.463.345-.925.274-1.586zm1.282-17.066l.026.222-.248-.2.222-.022zm1.953 1.61c.584 1.286 2.736 2.653 3.957 3.66.417-.26.613-.502.786-.963.543-1.164.305-3.374-.87-3.938-.706-.382-1.567-.08-2.203.198-.026-.22-.315-.862-.559-1.065-1.735-1.628-3.905 3.027-1.111 2.107zm-9.222-2.963c1.487 1.427 1.513 1.647 3.498 1.469-.302 1.365-2.069 3.532-3.514 2.547-.95-.585-1.047-1.468-1.51-1.65-.71-.382-.764 1.184-1.156 1.665-.938 1.645-2.505 1.564-2.659 4.254l.835-.524c.848 1.709 2.422-.215 3.479-.756-.197.241-.591.724-.762 1.183-.154.684.582 1.289 1.22 1.006.636-.28 1.4-1.465 2.012-1.966.616-.5.834-.52 1.473-.802.614-.499 1.424-1.24 2.04-1.742 1.844-1.503 1.937-.62 2.582-2.909-.051-.44.148-.682.1-1.124-.877-1.928-4.037-.306-4.285-.505l-1.372-.325c-.462-.182-1.323.12-1.98.179zm10.188-.468l-1.101.098.292.643c1.3-.34 2.181-.42 2.236-1.986-1.103.1-1.324.119-1.427 1.245zm-69.445 4.222l-1.022 5 .457 2.187.919 4.378c.565-.941 1.58-3.932 1.682-5.056l.251-1.808c.077-1.344.25-1.805-.334-3.091l-1.426 1.242-.087-2.89-.44.038zm71.729-5.767c-.141-1.325.103-1.123 1.226-1.002l-.015-2.229c-.64.28-1.52.361-2.136.86-.983 1.203-.86 2.31.925 2.371zm-6.553-2.979l.756.824c1.519-.36 2.007.042 3.378.366l-.536-.845.565-.942c1.324-.117 1.427-1.244.868-2.308-.245-.201-.71-.382-.954-.584-2.374-1.346-2.599.68-3.164 1.623l-.913 1.866zm5.708-.736c.44-.04.884-.078 1.3-.338.81-.743.355-2.932-.36-3.314-.683-.161-1.052.54-1.004.982l-.15.684.118 1.104.096.882zm-70.871 5.468c.787-.963 1.06-2.55 1.163-3.674-1.471.803-1.33 2.127-1.163 3.674zm7.811-14.305c.213 1.988-.038 3.794-.732 5.64-.886 2.088-3.026 4.956-3.475 7.002l-.51-.623c-.961 1.424-1.07 4.558-.46 6.063 1.201-1.223 1.477-2.81 2.216-4.213 1.455-3.03 3.398-5.656 4.143-9.07.129-.903.309-3.373-.231-4.216-.267-.422-.488-.402-.95-.583zm200.76 5.85c1.157-1.667 1.465-5.037 1.908-7.087 1.048-4.776 3.258-6.98 2.614-12.945-.14-1.325-.648-3.956-2.234-4.26-2.474-.224-1.46 3.03-1.607 3.712.072.664-.102 1.124-.277 1.587-1.084 2.327-.576 4.958-.538 7.407l-.47 8.07.604 3.515zm-35.703-38.056c.044.441.288.644.558 1.065.244.202.49.402.733.604 1.42.764 2.158-.64 1.618-1.485-.262-.422-1.169-.563-1.611-.523-.438.04-.88.08-1.298.34zm32.98-3.851c.211 1.988 1.009 5.263 1.863 6.97l1.946 3.616 2.3 6.93c1.181-1.444.553-3.172.167-4.698-.995-3.033-2.429-6.027-3.623-8.817-.829-1.487-1.432-2.996-2.654-4.001zm-12.187-3.59l-.179 2.469-3.014-1.069c-.05 1.569.65 3.958 1.897 5.183l2.42 1.79a64.836 64.836 0 0 1 5.686 5.29c1.542 1.87 1.612 2.532 2.145 3.375.49.401.977.805 1.613.524.418-.26.52-1.384.693-1.847l.74-1.404c.321-1.143-.528-2.85-1.086-3.916l-1.46-3.214c-.61-1.507-.975-2.812-1.997-4.058-1.734-1.629-3.057-1.51-4.888-2.016l-2.57-1.107zm-61.336 3.05c-.129.904-.205 2.25-1.284 2.57-.22.02-1.124-.122-1.37-.325l-.84 2.53c-.373.701-1.067 2.548-.99 3.212-.103 1.122 1.439.984 2.223.022.816-.741.919-1.866 1.484-2.809.912-1.865 2.6-2.688 2.806-4.935l-2.029-.265zm68.332-8.362c.656 1.95 1.117 2.131 2.191 3.819.56 1.065.412 1.747 1.708 1.408-.776-1.045-2.941-4.642-3.9-5.227zm-92.447 11.863c-2.474-.223-.842 2.53-1.163 3.673-.54 1.164-3.019 2.948-4.22 2.163a3.052 3.052 0 0 1-1.985.178c-.681-.162-1.17-.563-1.831-.503l-3.514 2.545c-.616.5-1.445 1.021-2.331 1.1-.656.06-1.542.138-1.934.622-.617.499-.033 1.785.263 2.427l1.047 1.468c-2.158.64-1.992 2.184-1.78 4.175.122 1.103.547 5.079.862 5.943.34 1.086 1.785 2.07 2.93 2.412.712.384 1.836.505 2.497.447l.155-2.692.662-.058.68 2.17.88-.08 2.743.647.489.401c.289.643-.25 1.807-.18 2.47.385 1.526 1.978 1.83 3.302 1.71-.032 1.787.14 1.326.038 2.45.122 1.105-.54 1.164.822 3.494.27.421.83 1.487 1.49 1.428.662-.06 2.037-1.744 3.509-2.545.34 1.083.365 1.305 1.316 1.89l-.321 1.143 2.505-1.563c-.745 3.412-2.164 2.647-3.713 4.793-.546 1.165-.205 2.25-.527 3.393l.245.201.834-.52.637-.28c1.959-.4.437 1.967.482 2.409.07.664.54.843 1.002 1.026l-1.035.76.61 1.508-3.97.356c-1.959.399-3.584 1.883-5.229 3.145l.052.442.681.161-3.803 1.904c1.15.34 2.647-.238 3.752-.338 1.079-.32.88-.077 2.184-.42l.706.385-.128.903 4.844 1.57c1.15.344 1.985-.177 2.698.206.95.585.629 1.728 2.222 2.03 1.83.504 3.283-.517 4.799-.877l-1.793 1.947.829 1.487 2.158-.64c-1.6 1.703-1.522.36-4.606.636.707.382 2.808 1.307 3.277 1.49 1.15.345 1.76-.16 3.378.367 1.369.32 3.032 1.288 3.476-.762.27.425.54.846.783 1.048.708.382 1.15.343 1.839.504.905.142 3.05 1.51 2.954 2.634-.2.24-.398.482-.59.723-.297-.646-.586-1.285-1.1-1.908-1.264-1.45-3.206-.83-4.798-1.134l-3.206-.826-2.473-.224c-1.342-.103-2.1-.925-3.424-.807-.443.04-1.079.318-1.027.761.044.44.533.846.777 1.044 1.42.765.905.141 3.058 1.51 1.194.784 1.612.524 2.762.867l1.175.565c.906.142 1.08-.32 1.985-.18.437-.038 1.343.103 1.811.286l-3.828 1.68-2.935-.404c.584 1.285.828 1.487-.155 2.688l-.54-.841c-.59.72-.539 1.163-1.13 1.885l-.983 1.201c-.173.463-.764 1.186-1.208 1.224-.661.061-1.413-.764-1.908-1.166-.95-.585-1.393-.546-2.472-.225.809 1.266 1.227 1.005 2.395 1.567.958.585 3.399 2.596 4.157 3.421-.225.02-.443.04-.617.502-.392.481.039 2.45.553 3.07.488.404.957.584 1.612.527l-2.627 2.467c1.15.34 1.567.08 2.544.886l-2.204.196-2.91-2.19-3.032-1.292c1.13.122 2.916.187 3.97-.356 1.889-1.06.99-3.209-.475-4.416-.95-.586-1.613-.524-2.737-.646-.906-.142-2.3-.687-3.186-.608l-2.402.44.154-.683c-.688-.161-.932-.364-1.549.138-.732-.604-.751-.822-1.657-.964l.116 1.102-1.002-1.025-.097 1.124c-.54-.845-.565-1.063-1.49-1.426l.745 2.83-.366.703c-1.227 1.002-1.214 3.232-1.067 4.558.283 2.65-.308 3.373-.533 5.4-.058 1.564.456 2.187.032 4.457-.121.903-.964 3.43-1.336 4.135l-.983 1.2-.738 1.404c-.373.704-.983 1.204-1.355 1.908-.348.922.14 1.326.41 1.747.366 1.304-.565.941.97 2.814l-.784.96.88-.08c-.494 1.606.508 2.634 2.024 2.274 1.08-.321 2.261-1.764 2.583-2.91l.443-.039 2.968 4.863c.513.624.635 1.728 1.541 1.87.906.141 1.247-.78 1.62-1.484.391-.482.809-.742 1.2-1.224.546-1.163-.526-2.852-.423-3.977.121-.902.738-1.403.84-2.527-.166-1.545-1.316-1.89-2.074-2.715-.758-.822-.848-1.705-.97-2.81-.263-2.431.99-3.211 1.22-5.238.078-1.346-.68-2.168-.777-3.055-.07-.662.077-1.342.74-1.404 1.521-.36 1.708 1.41 1.83 2.513l-.206 2.248c-.122.906-.494 1.606-.372 2.71.315.865.829 1.488 1.117 2.13.514.623.585 1.288 1.074 1.69.462.18.706.378 1.15.34.462.183.924.362 1.368.324 1.079-.321 2.19-2.428 3.217-3.186.617-.504 1.523-.36 2.185-.421-.373.704-1.356 1.908-1.748 2.387-.834.52-2.357.88-2.434 2.226-.47 1.827 1.953 1.609 1.901 3.173-.102 1.125-1.81-.283-2.331 1.101-.739 1.404.238 2.211.577 3.296.072.662-.295 1.362-.449 2.046-.932 1.645-1.715.6-2.968 1.381-1.054.543-2.21 2.207-3.29 2.528-.853.299-1.592-.305-2.254-.247-.88.08-1.618 1.487-3.083.279-1.49-1.429.205-2.248-.16-3.555l-.9-2.15c-1.253.781-2.48 1.787-2.068 3.534.61 1.503 2.074 2.71 1.31 3.893-.617.501-1.94.62-2.968 1.381-1.253.784-2.556 3.129-2.974 3.392-.617.5-1.278.559-1.888 1.06l-2.217 2.206c-.193.241-.193.241-.392.482l-2.762-.868.167 1.546c-1.105.099-1.105.099-2.01-.042-.681-.164-2.03-.264-2.377.658-.373.704 1.464 1.208 1.933 1.388 2.807 1.31 3.36 4.381 2.159 5.608-.81.739-2.204.196-3.11.055-2.036-.264-5.241-1.093-7.245-1.134-2.648.234-1.8 1.943-2.313 3.328-.13.905-.964 1.425-1.111 2.107-.2.24-.174.462-.149.684-.025-.222.726 2.61.7 2.39.316.863 1.864.725 2.77.866 1.143.34 1.439.987 2.389 1.571.931.36 1.35.1 2.21-.199 1.979-.18 3.867.768 6.81-.835.635-.28 1.252-.78 1.425-1.243.591-.72.296-1.365 1.105-2.107 1.009-.983 2.968-1.382 4.002-2.143.81-.741.225-2.026 1.722-2.607 1.079-.319 2.274.466 3.771-.116 1.297-.341 2.698-1.802 4.002-2.142 1.323-.12 2.145 1.367 3.983 1.872l7.29 1.574c.225-.02.688.164.932.366 1.953 1.606-.861 2.306-1.94 2.627-.86.299-1.08.318-1.966.398.25.2.27.421.514.624.932.363 3.18.607 3.996-.136.392-.481.347-.925.276-1.586.854-.298 1.272-.559 1.62-1.484-.072-.661-.367-1.304.25-1.805.392-.482 1.271-.562 1.94-.623-1.029-1.243-1.863-.723-3.213-.826-.68-.16-.95-.584-1.638-.744-.661.06-1.271.562-2.203.199-.687-.164-1.42-.768-2.1-.929-.714-.382-2.525-.664-2.422-1.79.173-.462.372-.702.809-.741.2-.24.418-.26.642-.283l.315.868c2.352-.88 1.587.302 3.623.565 1.831.504 3.99-.135 5.852.591 1.15.34.778 1.044 1.78 2.069 1.22 1.008 2.961.626 4.502.488-.192.24-.416.263-.391.481-.373.704.116 1.105.585 1.285 1.656.967 4.118-1.037 2.011-1.962l3.385-1.641c-1.638-.745-2.448-.003-4.6-1.372 1.106-.1 1.323-.118 2.133-.861l.128-.905 3.584-1.883c-1.135 1.886.143 1.327.572 3.296 1.106-.1 2.474.221 3.58.125.86-.302 3.21-1.182 3.827-1.683.61-.5.764-1.182 1.374-1.683l2.552-1.121c1.034-.761 1.818-1.724 2.607-2.688.392-.482.784-.964 1.472-.8.925.363 1.162 2.573 1.259 3.456.295.642.61 1.503.681 2.168-.136 2.91-3.193 3.408-5.036 4.91-1.227 1.003-2.165 2.647-3.443 3.21-1.645 1.262-6.355 3.022-8.513 3.661l-4.58.857c-1.053.543-2.28 1.545-2.626 2.467-.349.925.21 1.989-.843 2.528-1.054.543-5.44 1.157-6.565 1.038-1.811-.286-1.201-.787-3.848-.55-2.422.22-5.043.679-7.541.232.391-.482 1.182-1.446 1.33-2.126.173-.463-.07-.665-.122-1.105-.02-.219-.072-.662-.315-.864-.514-.623-2.275-.466-2.936-.405-1.523.36-1.253.78-3.675.999l-8.138.954c-3.964.354-7.131 1.978-8.673 2.117-1.105.099-3.578-.126-4.728-.47-.93-.363-1.907-1.168-2.962-.625-1.079.32-1.425 1.242-2.697 1.8-1.279.564-3.7.782-5.152 1.803-1.446 1.022-.69 1.847-2.383 2.666-.858.302-3.746.337-4.85.436-2.448-.002-3.675 1-5.81 1.86l-2.355.88c-.857.299-2.599.679-2.968 1.381-.37.7.167 1.546.238 2.21.07.662-.078 1.343-.229 2.027-1.153 1.664-4.123 3.045-3.638 5.457.385 1.526 1.291 1.667 3 3.074 2.245 2.252 3.924 5.447 6.343 7.237 3.126 2.174 7.648 4.891 11.515 5.659l6.713.289c3.597.344 6.36 1.214 10.137 1.096l8.3-1.414c1.766-.157 4.387-.616 6.224-.112 1.837.504 2.197 1.81 5.505 1.512l4.606-.635c1.08-.319 1.94-.62 3.11-.055 2.838 1.53-1.973 4.413.224 6.225 1.221 1.005 5.26 1.31 6.88 1.833 1.125.123 4.67 2.034 5.429 2.86.487.4.532.844 1.046 1.467.507.623 1.664.964 1.734 1.629.071.661-1.354 1.905-1.747 2.386-1.207 1.224-3.545 4.333-2.228 6.222.514.622 1.908 1.165 2.62 1.547l6.431 1.876c2.787 1.09 3.026 3.299 4.715 4.484 1.195.787 3.18.607 4.748.69l6.629 1.635c2.306.688 1.343 2.11 3.153 2.393 3.823.329 9.69-3.099 12.805-5.161l6.327-3.244c2.532-1.342 4.811-2.887 7.092-4.43 4.324-3.285 7.863-7.618 10.008-12.494.74-1.403 2.833-4.715 2.963-5.617.295-1.365-1.126-2.13-.579-3.292.713-1.63 3.59-3.894 4.279-5.737.572-.944.404-2.49-.554-3.074-.925-.363-1.542.138-3.378-.366 1.387-3.69 3.899-7.263 5.987-10.574.964-1.422 2.684-4.03 2.718-5.816.006-2.008-1.788-2.072-2.539-2.895-.732-.603-.565-1.066-1.027-1.249-.925-.36-2.402.44-3.308.299-.663.058-1.15-.344-1.613-.523-.712-.383-1.568-.084-2.23-.026-.994-3.032 1.08-8.57 2.096-11.56 1.978-6.421 4.625-12.905 3.667-19.731l-1.014-5.261c-.289-.646-.823-1.487-1.683-1.189-1.298.34-2.442 4.234-2.98 5.396l-2.981 5.4c-.765 1.181-1.26 2.788-2.268 3.77-.81.743-2.089 1.301-3.142 1.841-.341-1.082-.976-.803-1.837-.501l-3.996 2.142c-.834.52-2.479 1.783-3.584 1.883-.88.08-1.395-.543-2.691-.206-.88.08-2.377.661-3.065.497-.905-.14-1.882-.944-2.789-1.085-.68-.164-1.984.177-2.62.456-2.205.2-5.655-.832-7.935-1.294.418-.26.86-.299.816-.742.322-1.143-1.439-2.993.72-3.633l.88-.08 3.77-.116 2.186-.418c1.124.123 1.42.765 2.96.627l5.417-1.378c2.21-.2 3.101 1.953 5.39.408 1.863-1.281 3.616-5.679 4.285-7.744l1.926-4.857.746-3.41c.84-2.532 1.605-3.714 1.296-6.585l-.449-4.198c-.192-1.767-.552-3.074-2.37-1.349-1.406 1.465-1.902 3.07-4.15 2.827-.597 2.73-.219 6.263-2.943 7.847-1.034.76-2.183.417-3.255.738-.644.28-1.48.803-1.942.62-.661.057-1.148-.344-1.22-1.005.123-.903 1.62-1.484 2.261-1.764 2.134-.86 3.213-1.182 4.786-3.106.957-1.426 1.06-2.55 1.824-3.732.784-.964 1.472-.803 2.256-1.763.59-.723 1.676-3.052 2.241-3.993l2.698-8.049c1.304-2.348 3.49-2.766 4.061-5.717l.34 1.086c2.333-1.102 2.313-3.33 1.857-5.518 1.323-.12 4.015.083 5.094-.235l5.003-3.125c1.253-.784 3.316-2.307 3.61-3.672.347-.921-1.085-3.915-1.599-4.538-.264-.421-.507-.623-.976-.803-1.15-.343-2.666.017-3.495-1.471-1.028-1.246-2.165-5.604-3.012-7.314-1.825-4.519-1.946-3.616-2.802-5.323-.558-1.065-.456-2.19-.578-3.294-.314-.863-.828-1.486-.872-1.93-.098-.882.519-1.384 1.11-2.105.932-1.646.79-2.97 1.8-3.953.808-.742 1.52-.359 1.887-1.061 1.356-1.905-1.92-3.395-.815-5.503.565-.943 2.165-2.646 3.269-2.746.855-.299 1.568.082 2.422-.217.835-.522.893-2.088 1.24-3.011.86-2.308 2.21-2.205 2.538-5.356.103-1.124.154-2.692-.38-3.535-1.028-1.247-2.473-.224-2.82.699-.764 1.182-.596 2.73-.456 4.055-.077 1.344-.328 3.15-1.092 4.334-.932 1.646-2.84.48-3.379-.364-.263-.422-.09-.883-.14-1.327.031-1.787-.483-2.408-.034-4.456.123-.904.964-3.432.702-3.854-.078-.663-2.102-2.933-2.61-3.558-1.001-1.024-2.806-3.316-4.476-2.273-1.472.8-1.163 3.672-1.439 5.257-.149.682-.45 2.048-1.112 2.107-.411.26-1.149-.344-1.631-.745-1.247-1.227-2.004-2.05-2.217-4.039.682.16 2.519.666 2.646-.238-.096-.883-1.142-2.35-2.029-2.27-.905-.142-1.028.76-2.23-.023-.976-.804-3.141-4.402-4.169-5.648-1.29-1.669-3.218-3.057-5.106-4.002-1.144-.342-4.864-1.794-5.897-1.031-.417.26-.348.921-.52 1.382-.244-.199-.49-.401-.925-.362-1.593-.303-2.062 1.523-2.165 2.648.045.441.14 1.326-.496 1.606-.641.28-1.13-.122-1.62-.525-1.195-.784-1.22-1.005-2.833-1.53.315.864.63 1.729 1.164 2.572 1.297 1.669 2.177 1.588 1.971 3.839-1.856-.727-3.957-1.652-5.228-3.1l1.715-.6-.046-.44c-.706-.384-3.128-2.174-3.224-3.057-.072-.663.809-.743.739-1.406.154-.682-.559-1.064-.212-1.987.59-.723 1.868-1.283 1.772-2.167-.051-.442-.539-.843-1.001-1.024-.952-.585-2.641-1.77-3.649-.789-.809.742-.199 2.248-.648 4.296-.688-.16-1.864-.726-2.545-.887-.905-.141-1.96.398-3.135-.164-1.618-.524-2.196-1.81-3.59-2.355-2.57-1.107-4.728-.466-7.13-.028-1.1.098-2.867.257-3.92.797-.835.522-1.208 1.223-1.574 1.925-.982 1.205-2.923 1.823-2.729 3.59.385 1.527 1.734 1.63 2.221 2.03l1.408 2.774c-1.517.359-2.23-.022-3.546.096l-5.223 1.136c-2.672.018-3.501-1.469-5.139-2.214-.925-.363-1.586-.304-2.3-.686-.732-.602-.803-1.265-1.047-1.468-.514-.62-2.762-.867-3.423-.807.044.443.07.663-.322 1.143-.372.703-2.261 1.765-3.141 1.844-.417.26-1.105.1-1.568-.082l.123-.904c.103-1.123-.56-1.064-1.413-.765-1.305.34-2.088 1.302-3.123 2.064.373-.702.72-1.625 1.31-2.346.81-.742 1.89-1.064 2.943-1.603l3.334-2.083c.835-.52 2.114-1.083 2.724-1.584 1.843-1.503 2.229-6.22 1.747-8.63-3.41 1.42-2.506 1.56-4.812 2.884-.834.52-1.278.561-1.914.84-.61.503-.765 1.186-.912 1.866zm23.396-8.12l2.172 1.59 1.656 2.973c1.273-.56 1.445-1.022 2.307-1.322.416-.26 3.16.386 2.523-1.34a233.46 233.46 0 0 0-.73-.604l-.148.682c-.733-.604-1.71-1.408-2.641-1.771-.932-.362-4.042-.305-5.14-.208zm7.465 1.115c3.083-.276 2.55-1.121 4.317-1.279.853-.301 2.221.023 3.128.164l-.123.903c1.857.726 1.74-.379 3.11-.056 1.394.544 2.248 2.253 4.547 2.937.925.365 1.395.545 2.23.024.532.845.758.826 1.638.745.103-1.124.738-1.405.443-2.047-.289-.644-2.615-1.55-2.814.7-.784-1.047-.366-1.307-.654-1.948-.785-1.047-2.351-1.13-3.432-.81-.456-2.188-.166-1.546-3.218-3.055-.956-.584-3.057-1.51-4.187-1.632-1.343-.103-1.69.82-2.744 1.361-.59.723-1.278.56-1.888 1.062-.592.721-.45 2.048-.353 2.931zm46.586-9.757l2.789 3.097c1.047 1.466 2.093 2.934 3.34 4.16.977.804 2.37 1.349 3.669 1.01.86-.301 3.461-2.987 1.336-4.135-.708-.382-1.767.159-2.422.218.051-1.566-.045-2.45-.431-3.977-.045-.441-.141-1.324-1.003-1.024-1.053.541.187 3.774-1.477 2.808l-.706-.382-.733-.603c-.79.961.14 1.324.9 2.148.977.807 1.727 1.63 1.875 2.955-2.395-1.57-2.536-2.894-4.078-4.763-.996-1.026-1.73-1.63-3.059-1.512zm9.566-2.194c.603 1.506 2.967 4.863 4.587 5.386-1.1-1.908-2.512-4.682-4.587-5.386zm-163.22 16.205l1.985-.178 5.75 1.714c1.593.303 3.16.386 4.208 1.853-2.866.258-2.255-.244-4.53-.708-2.03-.264-2.646.238-4.213.154-.906-.142-1.369-.323-2.056-.483l-5.903.974c-1.568-.082-1.908-1.166-2.84-1.529-.95-.584-1.811-.284-2.647.238-1.49.58-2.941 1.601-4.39 2.624-2.702 1.802-5.817 3.867-7.76 6.495-1.352 1.904-1.015 2.99-2.368 4.895-1.374 1.684-4.541 3.306-6.68 6.176-1.551 2.146-1.41 3.47-1.998 4.193-.395.48-3.12 2.064-3.758 2.343-.636.28-1.297.34-1.715.601-.613.501-.983 1.203-1.355 1.906l-2.184 2.425c-.566.943-2.86 4.494-2.984 5.398-.055 1.566 2.47 2.232 1.137 4.358-.197.24-.392.481-.589.723-1.448 1.021-1.837-.506-2.96-.627-1.372-.324-3.411 1.42-4.632.415-.758-.824-.434-1.967-.527-2.851-.34-1.085-.829-1.487-1.143-2.35-.562-1.067-.116-3.114-1.677-5.204-.803-1.265-1.731-1.628-2.447 0l-.52 1.382c-.874-1.927-.38-3.534-1.973-3.839-2.03-.262-2.65 2.247-3.832 3.69-2.949 3.61-3.44 3.209-5.698 4.971l-2.997 3.169-1.869 1.283c-1.005.982-1.673 3.05-2.19 4.434l-2.162 8.892c-.473 1.824-1.266 4.798-3.202 5.415-.637.28-2.647.238-3.331.077-.71-.382-1.22-1.004-1.905-1.169-.662.062-2.428.218-4.066-.527-.976-.802-2.268-2.472-3.2-2.832-.928-.366-1.81-.286-2.69-.206-1.106.097-2.647.237-3.553.097-2.3-.686-3.784-4.122-4.658-6.05-.314-.864-.9-2.15-1.609-2.533-.976-.805-2.155.64-3.304.297-.906-.143-2.91-2.192-4.083-2.757-.244-.201-.98-.803-1.394-.543-.44.038-.568.944-.74 1.404-.03 1.787.46 2.189 1.482 3.436.244.2 1.002 1.025.385 1.526-1.027.761-2.511-2.674-3.667-1.009-.174.463-.149.683-.348.922l-.44.04-1.066-3.694-.164-1.547-1.484-3.435-1.817 1.724-.435-1.969-.606-1.506c-.341-1.084-1.22-1.005-2.056-.485-1.645 1.264-2.782 3.15-3.81 3.91-1.252.783-2.206.198-3.063.498-1.054.542-1.793 1.945-2.117 3.09l-1.696 9.073c-1.468 7.046-2.405 8.69-1.596 16.2l.892 4.157.84 5.723.748 2.833.442-.042c-.308-2.871-.218-8.232.598-10.98.796-2.969 2.069-3.531 2.133-7.106l.527 2.856c1.204-1.228 1.11-2.11 2.8-2.93.562 1.063.806 1.266 1.17 2.573.34 1.082.433 1.965.995 3.032.56 1.063 1.022 1.246 1.558 2.09.514.62.851 1.706 1.165 2.57.611 1.507 1.093 3.92 2.926 4.423.717-1.625.505-3.613.53-5.402.174-.462.255-1.805.669-2.065 1.08-.322 1.516 1.648 1.586 2.309.63 1.728 1.09 3.919 2.136 5.383 1.095 1.911 1.957 1.61 3.389 4.603l.324-1.144c.608 1.507-.157 2.692 1.507 3.656-.096-.884-.276-4.658.09-5.361.174-.463.835-.52 1.278-.559l1.028 7.49c.093.883.43 1.97.944 2.593 1.246 1.226 2.695.202 3.254 1.268l.87 3.934c.749 2.834 1.793 6.309 2.955 8.879.877 1.93 2.043 4.502 3.534 5.929.513.623 1.269 1.448 2.126 1.146.86-.298.52-1.384.668-2.065.128-.902.543-1.163.693-1.847.103-1.124-.263-2.432.302-3.372-.295 1.365.168 1.545.312 2.87.19 1.767.623 3.737 1.256 5.462.945 2.595 1.647 4.981 3.231 7.294 1.05 1.468 3.47 3.256 4.934 4.464 2.004 2.05 3.98 3.88 6.398 5.669l2.885 1.973 2.395 1.57c2.127 1.147 2.352-.883 3.675-1 .687.162 3.102 1.95 3.835 2.555 3.713 3.458 2.492 2.454 5.055 5.569l5.782 6.17c1.49 1.427 3.34 4.163 5.373 4.423l2.033.267c2.275.466 4.819 1.352 7.195.69.884-.08 1.497-.578 1.892-1.06.588-.723.935-1.644 1.818-1.725.905.142 3.01 1.067 3.937 1.433 2.349 1.124 5.673 3.057 8.17 3.5 2.497.448 4.29-1.499 3.88-3.246-.63-1.728-3.27-3.498-4.68-6.27-1.366-2.329-2.31-4.92-3.872-7.012l-3.584-4.362-2.146-3.376-1.047-1.467c-.269-.42-.654-1.947-.726-2.612l-2.453-6.247c-1.118-2.13-3.328-1.93-4.76-4.923 1.024 1.245 2.98 2.855 4.371 3.398-.63-1.728-2.04-4.5-3.09-5.968l-2.245-2.251c1.22 1.004 2.197 1.81 3.79 2.113l.47-1.828c.693-1.847 1.329-2.126 1.313-4.355-.183-3.774-3.669-9.26-4.166-13.898-.216-1.988.231-4.034.46-6.06l.06-3.576c-.07-.662.321-1.147.45-2.046l-.042-2.45c.299-1.366.472-1.828.331-3.155l-1.067-3.694-.064-2.672-.382-3.533c-.286-2.65 1.14-3.893 1.391-5.698.129-.905-1.015-3.257-1.507-3.658-.71-.382-2.225-.022-1.686-1.185.543-1.163 2.544.886 3.058 1.509.642-2.287.154-2.691-.28-4.66l-.838-5.723c-.385-1.526-1.362-2.33-1.436-2.993.151-.683.813-.742 1.597-1.704.79-.963 1.111-2.107 1.214-3.23l.038-3.796c.248-1.806 1.773-4.174 3.714-4.794 1.96-.398 3.96 1.651 5.062 1.554 1.104-.1 1.644-1.263 2.016-1.966l2.544-7.365.444-.04c1.095 1.91 2.245 2.252 3.732 3.68l1.272 1.448c.244.2.662-.06 1.079-.32.784-.963 1.728-4.616 1.17-5.68-.316-.864-1.292-1.67-1.633-2.753-.07-.664.3-1.366.668-2.067.52-1.386.794-2.971 1.799-3.954 1.992-2.185 5.961-2.543 8.38-.751 1.224 1.005 1.07 1.687 1.584 2.31.758.824 1.86.727 2.222 2.032.048.442-.051 1.566-.202 2.248.144 1.325.408 1.747-.11 3.132-.738 1.404-1.965 2.406-2.463 4.011-.69 1.847.437 1.97.16 3.555-.494 1.606-1.698 2.83-2.193 4.435-.569.943-.472 1.826-1.5 2.588-.835.52-2.184.418-3.064.497-1.3.34-2.332 1.102-3.385 1.642.045.443.093.883.36 1.306.365 1.305 1.468 1.206 2.543.886 1.741-.378 4.047-1.701 5.76-.294 1.487 1.43 1.94 5.626 3.208 7.072 1.22 1.006 2.104.927 3.475 1.25.928.363 1.638.745 2.37 1.349 1.71 1.406 1.17 2.571 1.947 3.615.732.602 1.371.326 2.127 1.148l3.24 5.284 2.233-1.985c.757.825 1.64.745 1.74-.38-.07-.66-.43-1.965-.726-2.61 1.49 1.429 1.61 2.534 1.603 4.541.048.44-.125.903.144 1.327.094.88 1.167 2.57 1.899 3.173.954.581 1.59.302 2.425-.219.764-1.182 1.211-3.23 2.39-4.673.986-1.204 2.945-1.602 4.715-3.77-.462-.18-1.857-.723-1.709-1.407.346-.922 1.67-1.041 2.505-1.563 1.227-1.002 2.165-2.648 2.438-4.232l-2.695-.205-1.59-.304-2.206.2-2.171-1.59-3.135-.166c.54-1.162.912-1.866 2.235-1.985.662-.06 1.59.305 2.008.045.857-.302.76-1.185 1.378-1.686 1.178-1.444 2.916-1.823 3.17-3.63 1.811.283 2.207-.197 3.11-.056 1.858.724 2.437 4.018 3.288 5.727-2.3-.686-1.866 1.282-1.921 2.848.835-.52 1.818-1.723 2.676-2.024l2.89-.037c.662-.06.858-.299 1.498-.58 1.518-.358 2.52.666 3.323 1.932.836-.52.788-.963.25-1.807l1.103-.1-.63-1.725c-1.101.098-1.35-.103-1.67 1.04-.95-.582-.95-.582-2.078-.705l.812-.74-.051-.444c-1.882-.946.277-1.585.598-2.73.15-.682-.116-1.103-.386-1.525l2.772-1.142c1.179-1.442 2.18-.417 2.676-2.024 2.274.466 1.526-2.366 3.244-2.967.414-.26 1.098-.098 1.542-.139l1.913-.84c.88-.078 1.324-.116 2.178-.419.835-.52 1.6-1.703 2.19-2.424.393-.484 1.202-1.224 1.376-1.687.147-.682-.142-1.323-.257-2.43.905.141 1.567.083 2.152-.638.616-.502.52-1.386-.412-1.748-.218.021-.88.08-1.098.1l3.045-2.727.597-2.73-.86.3.302-1.366-2.429.219c.392-.482 1.574-1.925 1.966-2.407 1.035-.762 2.159-.64 2.68-2.026-2.18.42-4.857 2.444-6.232 4.128l-2.146 2.868.129-.903c-2.159.641-2.018 1.966-2.853 2.487l-.417.26c.661-.06-3.77.115-3.084.278-1.127-.123-2.348-1.127-3.324-1.934-.735-.602-1.244-1.225-2.078-.704l-4.13-3.197c.39-.481.59-.722.102-1.125-.488-.402-1.638-.745-2.592-1.329-1.712-1.407-1.632-2.753-1.847-4.74-.186-1.767-.411-1.748-1.015-3.255-.292-.644-.34-1.085-.854-1.708-.511-.623-1.709-1.406-2.441-2.01-.977-.804-2.197-1.81-3.324-1.933-1.59-.302-2.818.7-4.192.376-1.15-.342-2.637-1.77-4.03-2.314-.907-.142-2.008-.042-2.892.037-.048-.442-.144-1.325-.607-1.506-.707-.383-1.985.178-2.865.257-.883.078-1.175-.564-1.86-.727-.684-.16-3.796-.104-4.191.377-.418.26-.123.903-.077 1.345zm157.58-23.06c1.805 2.292 5.03 5.348 7.747 5.774-.803-1.268-1.49-1.428-2.467-2.232-1.439-.987-3.886-2.998-5.28-3.541zm-17.654-8.897l-.558-1.065c.931.362 1.863.725 2.397 1.57.288.642.34 1.083.411 1.747.14 1.325 2.46 4.24 3.803 4.34.467.182.443-.038.885-.078l-1.137-4.359c-.514-.623-1.149-.342-1.907-1.166l-4.587-5.388c-.27-.422-1.291-1.668-1.143-2.35.39-.481 1.497-.58 1.94-.619l-4.202-3.86c-.489-.403-1.246-1.227-2.107-.927-.855.3-1.177 1.444-1.55 2.145-.366.704-.956 1.425-.887 2.088.315.864 1.318 1.889 1.827 2.511l3.913 3.217c1 1.026 1.508 1.65 2.902 2.194zm57.167-.446c-.579-3.294-2.699-6.448-5.184-8.901l-3.912-3.218c-1.51-1.648-3.142-4.4-5.365-6.432-2.44-2.01-4.277-2.515-6.449-4.105l-3.693-3.237-6.591-5.43c-1.71-1.407-3.739-3.68-5.03-5.346-1.318-1.89-.945-2.592-1.703-3.416-.513-.624-2.37-1.35-3.275-1.49l.346-.924-1.638-.745c.912-1.866-.366-1.306-1.657-2.973-.514-.623-.604-1.508-1.413-2.773-1.266-1.447-2.956-2.634-4.613-3.599l-8.042-4.409c-2.596-1.328-6.144-3.24-9.053-3.425-2.23-.023-3.656 1.22-5.84 1.638-1.958.4-6.192.334-7.548 2.239-1.375 1.684 2.068 4.721 3.315 5.948l3.488 3.477c1.003 1.026 1.291 1.669 2.313 2.915.983.804 2.884 1.972 3.668 3.016.778 1.045-.52 1.386.526 2.852.804 1.266 2.763 2.875 3.348 4.161.315.864.456 2.19 1.189 2.793.706.382 1.542-.14 2.203-.2 1.08-.319 4.247-1.94 5.197-1.356.952.582 4.201 3.859 4.96 4.685.488.4 1.484 1.425 1.337 2.11.12 1.103-3.354-.147-2.525 1.34.268.423 2.395 1.57 3.128 2.174l2.71 2.432 3.148 2.393c.733.605 1.536 1.87 2.248 2.252 1.395.544 2.107-1.08 3.31-.297 2.343 1.127 4.026 4.323 6.468 6.333 1.658.966 2.074.706 3.468 1.25 1.175.564 1.935 1.388 3.128 2.173 1.883.945 2.038.263 4.234 2.074 2.93 2.412 5.423 4.865 7.934 7.54 1.001 1.024 3.468 3.256 4.619 3.598l.661-.059 2.525-1.34s.225-.022.199-.242c.147-.682.051-1.566.199-2.249.154-.682.572-.942.694-1.847.148-.68.007-2.007.642-2.286.643-.281 1.863.724 2.326.906zm-53.813-57.394c-.096-.884-.34-1.084-.655-1.948-1.318-1.889-2.782-3.095-4.864-3.802-.68-.16-2.735-.646-3.108.056-.565.943 1.83 2.514 2.536 2.896.733.602 1.665.965 2.398 1.57 1.419.764 2.1.925 3.693 1.228zm-86.37-18.565c2.916.183 4.015.085 6.802 1.172 2.544.887 4.034 2.314 6.951 2.499l-3.27-3.498 1.864-1.282c-.977-.804-1.414-.765-2.371-1.348-.488-.402-.533-.845-1.021-1.247l-1.985.178c-1.304.34-2.378.661-3.874 1.24-1.304.34-3.038.718-3.096 2.286zm13.368-6.106c-.322 1.143-1.401 1.463-2.435 2.224.244.2.27.423.514.623.713.382 4.336.95 5.242 1.092 2.229.023 2.306-1.321 4.927-1.78l3.282-.518c3.084-.277 7.298-.432 10.047-1.793-1.047-1.467-1.708-1.41-3.321-1.933-2.524-.666-5.216-.87-7.792.03-2.377.66-2.28 1.543-5.37 1.82l-5.094.235zm-46.83 377.98c-51.494-10.995 10.474 2.18 0 0z"/></svg>