<svg width="1023" height="819" viewBox="0 0 1023 719" xmlns="http://www.w3.org/2000/svg"><title>YouTube-icon-full_color</title><defs><linearGradient x1="50%" y1="-.001%" x2="50%" y2="99.989%" id="a"><stop stop-color="#E52D27" offset="0%"/><stop stop-color="#BF171D" offset="100%"/></linearGradient></defs><g fill="none" fill-rule="evenodd"><path fill="#FFF" fill-rule="nonzero" d="M406 492l276-143-276-144z"/><path fill="#420000" opacity=".12" d="M406 205l242 161.6 34-17.6z"/><path d="M1012 155.3s-10-70.4-40.6-101.4C932.6 13.2 889 13 869.1 10.6 726.1.3 511.7.3 511.7.3h-.4S296.9.3 153.9 10.6C134 13 90.4 13.2 51.6 53.9 21 84.9 11 155.3 11 155.3S.8 237.9.8 320.6v77.5C.8 480.8 11 563.4 11 563.4s10 70.4 40.6 101.4c38.9 40.7 89.9 39.4 112.6 43.7 81.7 7.8 347.3 10.3 347.3 10.3s214.6-.3 357.6-10.7c20-2.4 63.5-2.6 102.3-43.3 30.6-31 40.6-101.4 40.6-101.4s10.2-82.7 10.2-165.3v-77.5c0-82.7-10.2-165.3-10.2-165.3zM406 492V205l276 144-276 143z" fill-rule="nonzero" fill="url(#a)"/></g></svg>
