<svg xmlns="http://www.w3.org/2000/svg" width="1023" height="819" viewBox="0 0 1023 719"><defs><linearGradient id="a" x1="50%" x2="50%" y1="0%" y2="100%"><stop stop-color="#E52D27" offset="0%"/><stop stop-color="#BF171D" offset="100%"/></linearGradient></defs><g fill="none" fill-rule="evenodd"><path fill="#FFF" fill-rule="nonzero" d="M406 492l276-143-276-144z"/><path fill="#420000" d="M406 205l242 161.6 34-17.6z" opacity=".1"/><path fill="url(#a)" fill-rule="nonzero" d="M1012 155.3S1002 85 971.4 54C932.6 13 889 13 869 10.5 726 .3 511.8.3 511.8.3h-.4S297 .3 154 10.6C134 13 90.3 13.2 51.5 54 21 85 11 155.2 11 155.2S.8 238 .8 320.6V398C.8 481 11 563.5 11 563.5S21 634 51.6 665c39 40.6 90 39.3 112.6 43.6C246 716.4 511.5 719 511.5 719s214.5-.5 357.5-11c20-2.3 63.6-2.5 102.4-43.2 30.6-31 40.6-101.4 40.6-101.4s10.2-82.7 10.2-165.3v-77c0-82.7-10.2-165.3-10.2-165.3zM406 492V205l276 144-276 143z"/></g></svg>
